<svg width="21" height="20" viewBox="0 0 21 20" fill="none" xmlns="http://www.w3.org/2000/svg">
<g filter="url(#filter0_d)">
<mask id="path-1-outside-1" maskUnits="userSpaceOnUse" x="2.72461" y="2" width="16" height="16" fill="black">
<rect fill="white" x="2.72461" y="2" width="16" height="16"/>
<path fill-rule="evenodd" clip-rule="evenodd" d="M7.99991 3.75C7.99991 3.33579 8.33569 3 8.74991 3C9.16412 3 9.49991 3.33579 9.49991 3.75V8.5C9.49991 8.77614 9.72377 9 9.99991 9V9C10.2761 9 10.4999 8.77614 10.4999 8.5V7.75C10.4999 7.33579 10.8357 7 11.2499 7C11.6641 7 11.9999 7.33579 11.9999 7.75V8.5C11.9999 8.77614 12.2238 9 12.4999 9V9C12.7761 9 12.9999 8.77614 12.9999 8.5V8.25C12.9999 7.83579 13.3357 7.5 13.7499 7.5C14.1641 7.5 14.4999 7.83579 14.4999 8.25V8.49997C14.4999 8.77613 14.7238 9 14.9999 9H15.25C15.388 9 15.5 8.88807 15.5 8.75V8.75C15.5 8.33579 15.8358 8 16.25 8C16.6642 8 17 8.33579 17 8.75V11.25C17 11.251 17 11.252 17 11.253V12.5C17 14.9853 14.9852 17 12.5 17C10.9532 17 9.58867 16.2196 8.7787 15.031C8.06334 14.2173 6.9485 13.3364 5.98539 12.5754L5.98535 12.5754L5.98516 12.5753C5.67928 12.3336 5.3887 12.104 5.13109 11.8925C4.65222 11.4993 4.58391 10.768 4.99321 10.3027C5.69738 9.50228 6.8991 10.5874 7.62724 11.3661C7.63538 11.3748 7.64355 11.3835 7.65176 11.3924C7.77434 11.5242 7.99996 11.4392 7.99996 11.2592V11.2592L7.99991 11.25V3.75Z"/>
</mask>
<path fill-rule="evenodd" clip-rule="evenodd" d="M7.99991 3.75C7.99991 3.33579 8.33569 3 8.74991 3C9.16412 3 9.49991 3.33579 9.49991 3.75V8.5C9.49991 8.77614 9.72377 9 9.99991 9V9C10.2761 9 10.4999 8.77614 10.4999 8.5V7.75C10.4999 7.33579 10.8357 7 11.2499 7C11.6641 7 11.9999 7.33579 11.9999 7.75V8.5C11.9999 8.77614 12.2238 9 12.4999 9V9C12.7761 9 12.9999 8.77614 12.9999 8.5V8.25C12.9999 7.83579 13.3357 7.5 13.7499 7.5C14.1641 7.5 14.4999 7.83579 14.4999 8.25V8.49997C14.4999 8.77613 14.7238 9 14.9999 9H15.25C15.388 9 15.5 8.88807 15.5 8.75V8.75C15.5 8.33579 15.8358 8 16.25 8C16.6642 8 17 8.33579 17 8.75V11.25C17 11.251 17 11.252 17 11.253V12.5C17 14.9853 14.9852 17 12.5 17C10.9532 17 9.58867 16.2196 8.7787 15.031C8.06334 14.2173 6.9485 13.3364 5.98539 12.5754L5.98535 12.5754L5.98516 12.5753C5.67928 12.3336 5.3887 12.104 5.13109 11.8925C4.65222 11.4993 4.58391 10.768 4.99321 10.3027C5.69738 9.50228 6.8991 10.5874 7.62724 11.3661C7.63538 11.3748 7.64355 11.3835 7.65176 11.3924C7.77434 11.5242 7.99996 11.4392 7.99996 11.2592V11.2592L7.99991 11.25V3.75Z" fill="white"/>
<path d="M17 11.253L16 11.2491V11.253H17ZM8.7787 15.031L9.60506 14.4679L9.57039 14.417L9.52974 14.3708L8.7787 15.031ZM5.98539 12.5754L6.60536 11.7908L6.59927 11.786L6.5931 11.7813L5.98539 12.5754ZM5.98535 12.5754L5.36457 13.3594L5.37106 13.3645L5.37764 13.3696L5.98535 12.5754ZM5.98516 12.5753L6.60594 11.7913L6.60513 11.7906L5.98516 12.5753ZM5.13109 11.8925L4.49652 12.6653L4.49652 12.6653L5.13109 11.8925ZM4.99321 10.3027L4.24239 9.64221L4.24239 9.64221L4.99321 10.3027ZM7.62724 11.3661L8.35767 10.6831L8.35767 10.6831L7.62724 11.3661ZM7.99991 11.25L6.99989 11.25L6.99993 11.256L7.99991 11.25ZM7.65176 11.3924L6.91943 12.0733L7.65176 11.3924ZM8.74991 2C7.78341 2 6.99991 2.7835 6.99991 3.75H8.99991C8.99991 3.88807 8.88798 4 8.74991 4V2ZM10.4999 3.75C10.4999 2.7835 9.71641 2 8.74991 2V4C8.61184 4 8.49991 3.88807 8.49991 3.75H10.4999ZM10.4999 8.5V3.75H8.49991V8.5H10.4999ZM9.49991 7.75V8.5H11.4999V7.75H9.49991ZM11.2499 6C10.2834 6 9.49991 6.7835 9.49991 7.75H11.4999C11.4999 7.88807 11.388 8 11.2499 8V6ZM12.9999 7.75C12.9999 6.7835 12.2164 6 11.2499 6V8C11.1118 8 10.9999 7.88807 10.9999 7.75H12.9999ZM12.9999 8.5V7.75H10.9999V8.5H12.9999ZM11.9999 8.25V8.5H13.9999V8.25H11.9999ZM13.7499 6.5C12.7834 6.5 11.9999 7.2835 11.9999 8.25H13.9999C13.9999 8.38807 13.888 8.5 13.7499 8.5V6.5ZM15.4999 8.25C15.4999 7.2835 14.7164 6.5 13.7499 6.5V8.5C13.6118 8.5 13.4999 8.38807 13.4999 8.25H15.4999ZM15.4999 8.49997V8.25H13.4999V8.49997H15.4999ZM15.25 8H14.9999V10H15.25V8ZM16.5 8.75C16.5 8.88807 16.388 9 16.25 9V7C15.2835 7 14.5 7.7835 14.5 8.75H16.5ZM16.25 9C16.1119 9 16 8.88807 16 8.75H18C18 7.7835 17.2165 7 16.25 7V9ZM16 8.75V11.25H18V8.75H16ZM16 11.25L16 11.2491L18 11.2568C18 11.2546 18 11.2523 18 11.25H16ZM18 12.5V11.253H16V12.5H18ZM12.5 18C15.5375 18 18 15.5376 18 12.5H16C16 14.433 14.433 16 12.5 16V18ZM7.95234 15.5942C8.94061 17.0444 10.6085 18 12.5 18V16C11.2978 16 10.2367 15.3948 9.60506 14.4679L7.95234 15.5942ZM5.36542 13.3601C6.35229 14.1398 7.38511 14.9604 8.02766 15.6913L9.52974 14.3708C8.74157 13.4742 7.54472 12.533 6.60536 11.7908L5.36542 13.3601ZM5.37764 13.3696L5.37768 13.3696L6.5931 11.7813L6.59306 11.7812L5.37764 13.3696ZM5.36438 13.3592L5.36457 13.3594L6.60613 11.7914L6.60594 11.7913L5.36438 13.3592ZM4.49652 12.6653C4.76279 12.8839 5.0612 13.1197 5.36519 13.3599L6.60513 11.7906C6.29735 11.5474 6.01461 11.324 5.76567 11.1196L4.49652 12.6653ZM4.24239 9.64221C3.44978 10.5432 3.59193 11.9226 4.49652 12.6653L5.76567 11.1196C5.74634 11.1037 5.72867 11.0756 5.72516 11.0361C5.72174 10.9977 5.73372 10.975 5.74402 10.9632L4.24239 9.64221ZM8.35767 10.6831C7.98461 10.2841 7.41355 9.71906 6.78991 9.36975C6.47674 9.19434 6.06594 9.02445 5.60542 9.0217C5.09518 9.01865 4.6112 9.22299 4.24239 9.64221L5.74402 10.9632C5.74638 10.9606 5.72814 10.9811 5.68653 10.9997C5.64509 11.0182 5.60961 11.0218 5.59349 11.0217C5.57909 11.0216 5.64627 11.0215 5.81256 11.1147C6.14787 11.3025 6.54173 11.6693 6.89681 12.0491L8.35767 10.6831ZM8.38408 10.7114C8.37524 10.7019 8.36644 10.6925 8.35767 10.6831L6.89681 12.0491C6.90431 12.0571 6.91185 12.0652 6.91943 12.0733L8.38408 10.7114ZM6.99993 11.256L6.99998 11.2652L8.99995 11.2532L8.99989 11.244L6.99993 11.256ZM6.99991 3.75V11.25H8.99991V3.75H6.99991ZM6.91943 12.0733C7.63259 12.8403 8.99996 12.3889 8.99996 11.2592H6.99996C6.99996 10.4896 7.9161 10.2081 8.38408 10.7114L6.91943 12.0733ZM12.4999 10C13.3283 10 13.9999 9.32843 13.9999 8.5H11.9999C11.9999 8.22386 12.2238 8 12.4999 8V10ZM9.99991 10C10.8283 10 11.4999 9.32843 11.4999 8.5H9.49991C9.49991 8.22386 9.72377 8 9.99991 8V10ZM13.4999 8.49997C13.4999 9.32841 14.1715 10 14.9999 10V8C15.2761 8 15.4999 8.22384 15.4999 8.49997H13.4999ZM10.9999 8.5C10.9999 9.32843 11.6715 10 12.4999 10V8C12.7761 8 12.9999 8.22386 12.9999 8.5H10.9999ZM15.25 10C15.9403 10 16.5 9.44036 16.5 8.75H14.5C14.5 8.33579 14.8358 8 15.25 8V10ZM8.49991 8.5C8.49991 9.32843 9.17148 10 9.99991 10V8C10.2761 8 10.4999 8.22386 10.4999 8.5H8.49991Z" fill="black" mask="url(#path-1-outside-1)"/>
</g>
<defs>
<filter id="filter0_d" x="0.724365" y="0" width="20.2756" height="22" filterUnits="userSpaceOnUse" color-interpolation-filters="sRGB">
<feFlood flood-opacity="0" result="BackgroundImageFix"/>
<feColorMatrix in="SourceAlpha" type="matrix" values="0 0 0 0 0 0 0 0 0 0 0 0 0 0 0 0 0 0 127 0" result="hardAlpha"/>
<feOffset dy="1"/>
<feGaussianBlur stdDeviation="1.5"/>
<feColorMatrix type="matrix" values="0 0 0 0 0 0 0 0 0 0 0 0 0 0 0 0 0 0 0.35 0"/>
<feBlend mode="normal" in2="BackgroundImageFix" result="effect1_dropShadow"/>
<feBlend mode="normal" in="SourceGraphic" in2="effect1_dropShadow" result="shape"/>
</filter>
</defs>
</svg>
