<svg width="128" height="128" viewBox="0 0 128 128" fill="none" xmlns="http://www.w3.org/2000/svg">
<g clip-path="url(#clip0)">
<rect width="128" height="128" fill="#F0F0F0"/>
<path fill-rule="evenodd" clip-rule="evenodd" d="M3.26526 63.4996L4.67947 62.0854L62.0857 4.67911L63.4999 3.26489L64.9142 4.67911L122.32 62.0854L123.735 63.4996L122.32 64.9138L64.9142 122.32L63.4999 123.734L62.0857 122.32L4.67947 64.9138L3.26526 63.4996ZM63.4999 118.077L118.078 63.4996L63.4999 8.92175L8.92211 63.4996L63.4999 118.077Z" fill="#7B61FF"/>
<g clip-path="url(#clip1)">
<rect x="39.6179" y="35.6179" width="23.4783" height="23.4783" rx="11.7392" stroke="black" stroke-width="1.2357"/>
</g>
<path d="M51.357 36.2357H76.0711V33.7643H51.357V36.2357ZM76.0711 58.4783H51.357V60.9497H76.0711V58.4783ZM51.357 58.4783C45.2149 58.4783 40.2357 53.4992 40.2357 47.357H37.7643C37.7643 54.8641 43.85 60.9497 51.357 60.9497V58.4783ZM87.1924 47.357C87.1924 53.4992 82.2132 58.4783 76.0711 58.4783V60.9497C83.5781 60.9497 89.6638 54.8641 89.6638 47.357H87.1924ZM76.0711 36.2357C82.2132 36.2357 87.1924 41.2149 87.1924 47.357H89.6638C89.6638 39.85 83.5781 33.7643 76.0711 33.7643V36.2357ZM51.357 33.7643C43.85 33.7643 37.7643 39.85 37.7643 47.357H40.2357C40.2357 41.2149 45.2149 36.2357 51.357 36.2357V33.7643Z" fill="black"/>
<g clip-path="url(#clip2)">
<path d="M39 80.643C39 73.8184 44.5324 68.2859 51.357 68.2859H76.0711C82.8957 68.2859 88.4281 73.8184 88.4281 80.643C88.4281 87.4676 82.8957 93 76.0711 93H51.357C44.5324 93 39 87.4676 39 80.643Z" fill="black"/>
<rect x="64.3318" y="68.9037" width="23.4783" height="23.4783" rx="11.7392" fill="white" stroke="black" stroke-width="1.2357"/>
</g>
<path d="M51.357 69.5217H76.0711V67.0502H51.357V69.5217ZM76.0711 91.7643H51.357V94.2357H76.0711V91.7643ZM51.357 91.7643C45.2149 91.7643 40.2357 86.7851 40.2357 80.643H37.7643C37.7643 88.15 43.85 94.2357 51.357 94.2357V91.7643ZM87.1924 80.643C87.1924 86.7851 82.2132 91.7643 76.0711 91.7643V94.2357C83.5781 94.2357 89.6638 88.15 89.6638 80.643H87.1924ZM76.0711 69.5217C82.2132 69.5217 87.1924 74.5008 87.1924 80.643H89.6638C89.6638 73.1359 83.5781 67.0502 76.0711 67.0502V69.5217ZM51.357 67.0502C43.85 67.0502 37.7643 73.1359 37.7643 80.643H40.2357C40.2357 74.5008 45.2149 69.5217 51.357 69.5217V67.0502Z" fill="black"/>
</g>
<defs>
<clipPath id="clip0">
<rect width="128" height="128" fill="white"/>
</clipPath>
<clipPath id="clip1">
<path d="M39 47.357C39 40.5324 44.5324 35 51.357 35H76.0711C82.8957 35 88.4281 40.5324 88.4281 47.357C88.4281 54.1816 82.8957 59.714 76.0711 59.714H51.357C44.5324 59.714 39 54.1816 39 47.357Z" fill="white"/>
</clipPath>
<clipPath id="clip2">
<path d="M39 80.643C39 73.8184 44.5324 68.2859 51.357 68.2859H76.0711C82.8957 68.2859 88.4281 73.8184 88.4281 80.643C88.4281 87.4676 82.8957 93 76.0711 93H51.357C44.5324 93 39 87.4676 39 80.643Z" fill="white"/>
</clipPath>
</defs>
</svg>
