<svg width="25" height="24" viewBox="0 0 25 24" fill="none" xmlns="http://www.w3.org/2000/svg">
<path fill-rule="evenodd" clip-rule="evenodd" d="M23.977 22.407L12.4178 1.85742L0.858666 22.407H23.977ZM13.1651 1.43706C12.8373 0.854314 11.9983 0.854313 11.6705 1.43706L0.111361 21.9867C-0.21014 22.5582 0.202893 23.2645 0.858669 23.2645H23.977C24.6328 23.2645 25.0458 22.5582 24.7243 21.9867L13.1651 1.43706ZM12.4175 9.19578C12.7726 9.19578 13.0605 9.48369 13.0605 9.83884V13.4995C13.0605 13.8546 12.7726 14.1425 12.4175 14.1425C12.0623 14.1425 11.7744 13.8546 11.7744 13.4995V9.83884C11.7744 9.48369 12.0623 9.19578 12.4175 9.19578ZM13.2749 18.1994C13.2749 17.7258 12.891 17.342 12.4175 17.342C11.9439 17.342 11.5601 17.7258 11.5601 18.1994V18.2986C11.5601 18.7721 11.9439 19.156 12.4175 19.156C12.891 19.156 13.2749 18.7721 13.2749 18.2986V18.1994Z" fill="black" fill-opacity="0.3"/>
</svg>
