<svg width="136" height="95" viewBox="0 0 136 95" fill="none" xmlns="http://www.w3.org/2000/svg">
<circle cx="28" cy="46" r="1.5" stroke="white"/>
<circle cx="28" cy="46" r="1.5" stroke="#F531B3" stroke-width="0.333333"/>
<circle cx="28" cy="46" r="1.5" stroke="white"/>
<circle cx="28" cy="46" r="1.5" stroke="#F531B3" stroke-width="0.333333"/>
<path fill-rule="evenodd" clip-rule="evenodd" d="M18.7424 46.0001L19.2462 45.4962L27.4962 37.2462L28 36.7424L28.5038 37.2462L36.7538 45.4962L37.2576 46.0001L36.7538 46.5039L28.5038 54.7539L28 55.2577L27.4962 54.7539L19.2462 46.5039L18.7424 46.0001ZM28 53.2424L35.2424 46.0001L28 38.7577L20.7576 46.0001L28 53.2424Z" fill="#7B61FF"/>
<path fill-rule="evenodd" clip-rule="evenodd" d="M18.7424 46.0001L19.2462 45.4962L27.4962 37.2462L28 36.7424L28.5038 37.2462L36.7538 45.4962L37.2576 46.0001L36.7538 46.5039L28.5038 54.7539L28 55.2577L27.4962 54.7539L19.2462 46.5039L18.7424 46.0001ZM28 53.2424L35.2424 46.0001L28 38.7577L20.7576 46.0001L28 53.2424Z" fill="#7B61FF"/>
<circle cx="68" cy="46" r="1.5" stroke="white"/>
<circle cx="68" cy="46" r="1.5" stroke="#F531B3" stroke-width="0.333333"/>
<circle cx="68" cy="46" r="1.5" stroke="white"/>
<circle cx="68" cy="46" r="1.5" stroke="#F531B3" stroke-width="0.333333"/>
<path fill-rule="evenodd" clip-rule="evenodd" d="M58.7424 46.0001L59.2462 45.4962L67.4962 37.2462L68 36.7424L68.5038 37.2462L76.7538 45.4962L77.2576 46.0001L76.7538 46.5039L68.5038 54.7539L68 55.2577L67.4962 54.7539L59.2462 46.5039L58.7424 46.0001ZM68 53.2424L75.2424 46.0001L68 38.7577L60.7576 46.0001L68 53.2424Z" fill="#7B61FF"/>
<path fill-rule="evenodd" clip-rule="evenodd" d="M58.7424 46.0001L59.2462 45.4962L67.4962 37.2462L68 36.7424L68.5038 37.2462L76.7538 45.4962L77.2576 46.0001L76.7538 46.5039L68.5038 54.7539L68 55.2577L67.4962 54.7539L59.2462 46.5039L58.7424 46.0001ZM68 53.2424L75.2424 46.0001L68 38.7577L60.7576 46.0001L68 53.2424Z" fill="#7B61FF"/>
<circle cx="108" cy="46" r="1.5" stroke="white"/>
<circle cx="108" cy="46" r="1.5" stroke="#F531B3" stroke-width="0.333333"/>
<circle cx="108" cy="46" r="1.5" stroke="white"/>
<circle cx="108" cy="46" r="1.5" stroke="#F531B3" stroke-width="0.333333"/>
<path fill-rule="evenodd" clip-rule="evenodd" d="M98.7424 46.0001L99.2462 45.4962L107.496 37.2462L108 36.7424L108.504 37.2462L116.754 45.4962L117.258 46.0001L116.754 46.5039L108.504 54.7539L108 55.2577L107.496 54.7539L99.2462 46.5039L98.7424 46.0001ZM108 53.2424L115.242 46.0001L108 38.7577L100.758 46.0001L108 53.2424Z" fill="#7B61FF"/>
<path fill-rule="evenodd" clip-rule="evenodd" d="M98.7424 46.0001L99.2462 45.4962L107.496 37.2462L108 36.7424L108.504 37.2462L116.754 45.4962L117.258 46.0001L116.754 46.5039L108.504 54.7539L108 55.2577L107.496 54.7539L99.2462 46.5039L98.7424 46.0001ZM108 53.2424L115.242 46.0001L108 38.7577L100.758 46.0001L108 53.2424Z" fill="#7B61FF"/>
<rect x="4" y="14" width="128" height="64" rx="4" stroke="#7B61FF" stroke-dasharray="8 3"/>
<path d="M8.15625 6L5.84375 3.71875L3.53125 6L5.84375 8.3125L8.15625 6ZM11.0938 8.96875L8.8125 6.65625L6.5 8.96875L8.8125 11.25L11.0938 8.96875ZM11.0938 3.0625L8.8125 0.75L6.5 3.0625L8.8125 5.34375L11.0938 3.0625ZM14.0313 6L11.75 3.71875L9.46875 6L11.75 8.3125L14.0313 6Z" fill="#7B61FF"/>
<path d="M25.4063 4.5C25.1094 2.85937 23.7969 1.89062 22.1875 1.89062C20.1406 1.89062 18.6563 3.46875 18.6563 6C18.6563 8.53125 20.1406 10.1094 22.1875 10.1094C23.7969 10.1094 25.1094 9.14062 25.4063 7.5H24.4375C24.2031 8.60938 23.25 9.20312 22.1875 9.20312C20.7344 9.20312 19.5938 8.07812 19.5938 6C19.5938 3.92188 20.7344 2.79687 22.1875 2.79687C23.25 2.79687 24.2031 3.39062 24.4375 4.5H25.4063ZM29.3392 10.125C30.9642 10.125 32.0579 8.89062 32.0579 7.03125C32.0579 5.15625 30.9642 3.92188 29.3392 3.92188C27.7142 3.92188 26.6204 5.15625 26.6204 7.03125C26.6204 8.89062 27.7142 10.125 29.3392 10.125ZM29.3392 9.29688C28.1048 9.29688 27.5423 8.23437 27.5423 7.03125C27.5423 5.82812 28.1048 4.75 29.3392 4.75C30.5736 4.75 31.1361 5.82812 31.1361 7.03125C31.1361 8.23437 30.5736 9.29688 29.3392 9.29688ZM33.5202 10H34.442V6.25C34.442 5.37109 35.0827 4.75 35.8014 4.75C36.5006 4.75 36.9889 5.20703 36.9889 5.89062V10H37.9264V6.09375C37.9264 5.32031 38.4108 4.75 39.2545 4.75C39.9108 4.75 40.4733 5.09766 40.4733 5.98437V10H41.3952V5.98437C41.3952 4.57422 40.6373 3.92188 39.567 3.92188C38.7077 3.92188 38.0787 4.31641 37.7702 4.9375H37.7077C37.4108 4.29687 36.8873 3.92188 36.0983 3.92188C35.317 3.92188 34.7389 4.29687 34.4889 4.9375H34.4108V4H33.5202V10ZM43.1357 12.25H44.0576V9.07812H44.1357C44.3388 9.40625 44.7295 10.125 45.8857 10.125C47.3857 10.125 48.4326 8.92187 48.4326 7.01563C48.4326 5.125 47.3857 3.92188 45.8701 3.92188C44.6982 3.92188 44.3388 4.64062 44.1357 4.95312H44.0263V4H43.1357V12.25ZM44.042 7C44.042 5.65625 44.6357 4.75 45.7607 4.75C46.9326 4.75 47.5107 5.73437 47.5107 7C47.5107 8.28125 46.917 9.29688 45.7607 9.29688C44.6513 9.29688 44.042 8.35937 44.042 7ZM52.3313 10.125C53.9563 10.125 55.0501 8.89062 55.0501 7.03125C55.0501 5.15625 53.9563 3.92188 52.3313 3.92188C50.7063 3.92188 49.6126 5.15625 49.6126 7.03125C49.6126 8.89062 50.7063 10.125 52.3313 10.125ZM52.3313 9.29688C51.097 9.29688 50.5345 8.23437 50.5345 7.03125C50.5345 5.82812 51.097 4.75 52.3313 4.75C53.5657 4.75 54.1282 5.82812 54.1282 7.03125C54.1282 8.23437 53.5657 9.29688 52.3313 9.29688ZM57.4342 6.39062C57.4342 5.34375 58.0826 4.75 58.9654 4.75C59.8209 4.75 60.3404 5.30859 60.3404 6.25V10H61.2623V6.1875C61.2623 4.65625 60.4459 3.92188 59.2311 3.92188C58.3248 3.92188 57.7623 4.32812 57.4811 4.9375H57.4029V4H56.5123V10H57.4342V6.39062ZM65.5175 10.125C66.7363 10.125 67.6269 9.51562 67.9081 8.60938L67.0175 8.35937C66.7831 8.98437 66.2402 9.29688 65.5175 9.29688C64.4355 9.29688 63.6894 8.59766 63.6464 7.3125H68.0019V6.92187C68.0019 4.6875 66.6738 3.92188 65.4238 3.92188C63.7988 3.92188 62.7206 5.20312 62.7206 7.04688C62.7206 8.89062 63.7831 10.125 65.5175 10.125ZM63.6464 6.51562C63.7089 5.58203 64.3691 4.75 65.4238 4.75C66.4238 4.75 67.0644 5.5 67.0644 6.51562H63.6464ZM70.3811 6.39062C70.3811 5.34375 71.0295 4.75 71.9123 4.75C72.7678 4.75 73.2873 5.30859 73.2873 6.25V10H74.2092V6.1875C74.2092 4.65625 73.3928 3.92188 72.178 3.92188C71.2717 3.92188 70.7092 4.32812 70.428 4.9375H70.3498V4H69.4592V10H70.3811V6.39062ZM78.5582 4H77.2769V2.5625H76.355V4H75.4488V4.78125H76.355V8.53125C76.355 9.57812 77.1988 10.0781 77.98 10.0781C78.3238 10.0781 78.5425 10.0156 78.6675 9.96875L78.48 9.14062C78.4019 9.15625 78.2769 9.1875 78.0738 9.1875C77.6675 9.1875 77.2769 9.0625 77.2769 8.28125V4.78125H78.5582V4Z" fill="#7B61FF"/>
<rect x="0.5" y="10.5" width="7" height="7" fill="white" stroke="#7B61FF" stroke-linecap="square"/>
<rect x="0.5" y="74.5" width="7" height="7" fill="white" stroke="#7B61FF" stroke-linecap="square"/>
<rect x="128.5" y="10.5" width="7" height="7" fill="white" stroke="#7B61FF" stroke-linecap="square"/>
<rect x="128.5" y="74.5" width="7" height="7" fill="white" stroke="#7B61FF" stroke-linecap="square"/>
<path d="M4 14V13H3V14H4ZM132 14H133V13H132V14ZM132 78V79H133V78H132ZM4 78H3V79H4V78ZM4 15H132V13H4V15ZM131 14V78H133V14H131ZM132 77H4V79H132V77ZM5 78V14H3V78H5Z" fill="#7B61FF"/>
<g filter="url(#filter0_d)">
<path d="M118.5 88L116 75L127 81.5L121.5 83L118.5 88Z" fill="#010101"/>
<path d="M116.254 74.5695L115.3 74.0053L115.509 75.0944L118.009 88.0944L118.256 89.3786L118.929 88.2572L121.825 83.4295L127.132 81.9824L128.273 81.6712L127.254 81.0695L116.254 74.5695Z" stroke="white" stroke-linecap="square"/>
</g>
<defs>
<filter id="filter0_d" x="111.599" y="71.0106" width="20.946" height="23.7465" filterUnits="userSpaceOnUse" color-interpolation-filters="sRGB">
<feFlood flood-opacity="0" result="BackgroundImageFix"/>
<feColorMatrix in="SourceAlpha" type="matrix" values="0 0 0 0 0 0 0 0 0 0 0 0 0 0 0 0 0 0 127 0" result="hardAlpha"/>
<feOffset dy="1"/>
<feGaussianBlur stdDeviation="1.5"/>
<feColorMatrix type="matrix" values="0 0 0 0 0 0 0 0 0 0 0 0 0 0 0 0 0 0 0.35 0"/>
<feBlend mode="normal" in2="BackgroundImageFix" result="effect1_dropShadow"/>
<feBlend mode="normal" in="SourceGraphic" in2="effect1_dropShadow" result="shape"/>
</filter>
</defs>
</svg>
