<svg width="68" height="83" viewBox="0 0 68 83" fill="none" xmlns="http://www.w3.org/2000/svg">
<path d="M1 82V57.6769H8.62667V51H19.1867V57.6769H26.8133V51H37.3733V57.6769H45V82H1Z" fill="#7B61FF"/>
<path d="M8.62667 57.6769H1V82H45V57.6769H37.3733M8.62667 57.6769V51H19.1867V57.6769M8.62667 57.6769H19.1867M19.1867 57.6769H26.8133M26.8133 57.6769V51H37.3733V57.6769M26.8133 57.6769H37.3733M26.8133 78.5H41.5V75.5" stroke="black"/>
<path d="M23 57V32.6769H30.6267V26H41.1867V32.6769H48.8133V26H59.3733V32.6769H67V57H23Z" fill="#1BC47D"/>
<path d="M30.6267 32.6769H23V57H67V32.6769H59.3733M30.6267 32.6769V26H41.1867V32.6769M30.6267 32.6769H41.1867M41.1867 32.6769H48.8133M48.8133 32.6769V26H59.3733V32.6769M48.8133 32.6769H59.3733M63 42.5V52.5H59.3733" stroke="black"/>
<path d="M1 32V7.67692H8.62667V1H19.1867V7.67692H26.8133V1H37.3733V7.67692H45V32H1Z" fill="#F531B3"/>
<path d="M8.62667 7.67692H1V32H45V7.67692H37.3733M8.62667 7.67692V1H19.1867V7.67692M8.62667 7.67692H19.1867M19.1867 7.67692H26.8133M26.8133 7.67692V1H37.3733V7.67692M26.8133 7.67692H37.3733M4.5 22V12.5H13" stroke="black"/>
</svg>
