<svg width="32" height="32" viewBox="0 0 32 32" fill="none" xmlns="http://www.w3.org/2000/svg">
<path d="M24.7407 7.44375L24.7187 7.43084L24.6679 7.41535C24.6884 7.43259 24.7139 7.4426 24.7407 7.44375Z" fill="#0D0C22"/>
<path d="M25.0606 9.72986L25.0361 9.73674L25.0606 9.72986Z" fill="#0D0C22"/>
<path d="M24.7501 7.44022C24.747 7.43982 24.7439 7.43909 24.7409 7.43804C24.7408 7.44007 24.7408 7.44212 24.7409 7.44415C24.7443 7.4437 24.7475 7.44235 24.7501 7.44022Z" fill="#0D0C22"/>
<path d="M24.7408 7.44402H24.7441V7.44197L24.7408 7.44402Z" fill="#0D0C22"/>
<path d="M25.041 9.72573L25.078 9.70464L25.0918 9.69688L25.1043 9.68355C25.0808 9.69366 25.0594 9.70797 25.041 9.72573Z" fill="#0D0C22"/>
<path d="M24.8047 7.49371L24.7686 7.45926L24.744 7.44592C24.7572 7.46919 24.779 7.48635 24.8047 7.49371Z" fill="#0D0C22"/>
<path d="M15.7064 29.6776C15.6775 29.6901 15.6522 29.7096 15.6328 29.7344L15.6556 29.7199C15.6711 29.7056 15.6931 29.6889 15.7064 29.6776Z" fill="#0D0C22"/>
<path d="M20.9897 28.6381C20.9897 28.6055 20.9738 28.6115 20.9777 28.7276C20.9777 28.7184 20.9816 28.7089 20.9833 28.6999C20.9854 28.6791 20.9872 28.6588 20.9897 28.6381Z" fill="#0D0C22"/>
<path d="M20.4417 29.6776C20.4128 29.6901 20.3875 29.7096 20.3681 29.7344L20.391 29.7199C20.4064 29.7056 20.4284 29.6889 20.4417 29.6776Z" fill="#0D0C22"/>
<path d="M11.9857 29.9248C11.9637 29.9058 11.9369 29.8933 11.9082 29.8885C11.9314 29.8998 11.9547 29.9111 11.9701 29.9196L11.9857 29.9248Z" fill="#0D0C22"/>
<path d="M11.1484 29.1229C11.145 29.0892 11.1346 29.0564 11.1178 29.0266C11.1297 29.0574 11.1396 29.0892 11.1475 29.1212L11.1484 29.1229Z" fill="#0D0C22"/>
<path d="M16.7723 14.7824C15.6229 15.2745 14.3185 15.8324 12.6279 15.8324C11.9207 15.831 11.2169 15.734 10.5357 15.544L11.705 27.5485C11.7464 28.0501 11.9749 28.518 12.3453 28.859C12.7157 29.2 13.2007 29.3891 13.7042 29.3891C13.7042 29.3891 15.362 29.4752 15.9152 29.4752C16.5106 29.4752 18.2959 29.3891 18.2959 29.3891C18.7993 29.3891 19.2842 29.1998 19.6545 28.8587C20.0248 28.5177 20.2533 28.0501 20.2947 27.5485L21.547 14.283C20.9873 14.0919 20.4225 13.9649 19.7858 13.9649C18.6846 13.9645 17.7973 14.3438 16.7723 14.7824Z" fill="#FFDD00"/>
<path d="M6.91629 9.66083L6.93609 9.67934L6.94901 9.6871C6.93906 9.67722 6.92809 9.66841 6.91629 9.66083Z" fill="#0D0C22"/>
<path d="M26.9539 8.55289L26.7778 7.66477C26.6198 6.86793 26.2612 6.11499 25.4433 5.82699C25.1811 5.73484 24.8836 5.69526 24.6826 5.50454C24.4815 5.31384 24.4221 5.01766 24.3756 4.743C24.2895 4.23888 24.2086 3.73434 24.1203 3.23109C24.0441 2.79843 23.9839 2.31241 23.7854 1.91549C23.5271 1.38254 22.9912 1.07086 22.4582 0.864649C22.1851 0.762704 21.9064 0.676465 21.6235 0.606353C20.2919 0.255066 18.892 0.125917 17.5221 0.0523025C15.8779 -0.0384242 14.2293 -0.0110895 12.589 0.134097C11.3682 0.245165 10.0823 0.379481 8.92209 0.801797C8.49806 0.956345 8.06109 1.14189 7.73867 1.4695C7.34303 1.87201 7.21388 2.49451 7.50273 2.99646C7.70809 3.35291 8.05594 3.60476 8.42488 3.77136C8.90542 3.98603 9.40729 4.14938 9.92214 4.25869C11.3557 4.57554 12.8405 4.69994 14.305 4.7529C15.9283 4.8184 17.5541 4.76531 19.1696 4.59403C19.5691 4.55012 19.9679 4.49745 20.366 4.43606C20.8348 4.36415 21.1357 3.75112 20.9975 3.32407C20.8322 2.81352 20.3879 2.61549 19.8856 2.69255C19.8115 2.70416 19.7379 2.71492 19.6638 2.72567L19.6105 2.73343C19.4403 2.75497 19.2701 2.77504 19.0999 2.7937C18.7483 2.83158 18.3959 2.86258 18.0426 2.8867C17.2513 2.94179 16.4579 2.96719 15.665 2.96849C14.8858 2.96849 14.1061 2.94652 13.3286 2.89531C12.9739 2.87206 12.62 2.84249 12.267 2.80661C12.1065 2.78982 11.9463 2.77219 11.7862 2.75237L11.6338 2.733L11.6007 2.72828L11.4427 2.70546C11.1198 2.6568 10.7969 2.60085 10.4775 2.53325C10.4452 2.52609 10.4164 2.50818 10.3957 2.48242C10.3751 2.45667 10.3638 2.42464 10.3638 2.39162C10.3638 2.3586 10.3751 2.32657 10.3957 2.30082C10.4164 2.27507 10.4452 2.25714 10.4775 2.24999H10.4835C10.7603 2.19101 11.0393 2.14064 11.3191 2.09673C11.4124 2.08209 11.5059 2.06774 11.5998 2.05368H11.6024C11.7776 2.04206 11.9537 2.01063 12.128 1.98997C13.6449 1.83218 15.1709 1.77839 16.6951 1.82896C17.4351 1.85049 18.1747 1.89397 18.9113 1.96887C19.0697 1.98523 19.2273 2.00245 19.3849 2.02182C19.4451 2.02914 19.5058 2.03775 19.5666 2.04507L19.6888 2.06272C20.0453 2.11582 20.3998 2.18025 20.7526 2.25602C21.2752 2.36967 21.9463 2.40669 22.1788 2.97925C22.2529 3.16091 22.2864 3.36282 22.3273 3.55352L22.3794 3.79676C22.3808 3.80111 22.3818 3.80559 22.3824 3.81009C22.5055 4.38409 22.6288 4.95809 22.7522 5.53209C22.7613 5.57449 22.7615 5.6183 22.7528 5.66079C22.7442 5.70329 22.7269 5.74353 22.702 5.77905C22.6772 5.81456 22.6452 5.84455 22.6082 5.86717C22.5712 5.88979 22.53 5.90453 22.487 5.91051H22.4836L22.4082 5.92084L22.3338 5.93072C22.0979 5.96145 21.8617 5.99014 21.6252 6.01684C21.1594 6.06993 20.6929 6.11584 20.2256 6.1546C19.2972 6.23178 18.3669 6.28245 17.4347 6.30656C16.9598 6.31917 16.4849 6.32508 16.0102 6.3242C14.1208 6.32273 12.2329 6.21289 10.3561 5.9953C10.1529 5.9712 9.94969 5.94536 9.74648 5.91911C9.90405 5.93935 9.63197 5.9036 9.57687 5.89587C9.44772 5.87778 9.31857 5.85899 9.18942 5.83948C8.75591 5.77445 8.325 5.69439 7.89234 5.62421C7.36929 5.53812 6.86905 5.58117 6.39593 5.83948C6.00758 6.05199 5.69326 6.37787 5.49491 6.77365C5.29085 7.19553 5.23015 7.65487 5.13889 8.10819C5.04762 8.5615 4.90556 9.04925 4.95937 9.51461C5.07517 10.519 5.77731 11.3352 6.78726 11.5177C7.73736 11.6899 8.69263 11.8294 9.65048 11.9482C13.4132 12.409 17.2145 12.4642 20.9889 12.1127C21.2963 12.084 21.6032 12.0527 21.9097 12.0188C22.0055 12.0083 22.1024 12.0193 22.1933 12.0511C22.2842 12.0829 22.3669 12.1346 22.4352 12.2024C22.5036 12.2703 22.5559 12.3526 22.5883 12.4432C22.6207 12.5339 22.6325 12.6307 22.6226 12.7265L22.5271 13.6556C22.3345 15.5328 22.1419 17.4099 21.9493 19.2869C21.7485 21.258 21.5463 23.229 21.3428 25.1996C21.2854 25.7548 21.228 26.3098 21.1706 26.8644C21.1155 27.4109 21.1077 27.9743 21.004 28.5142C20.8404 29.3631 20.2657 29.8845 19.4271 30.0752C18.6588 30.2501 17.8739 30.3419 17.086 30.3489C16.2125 30.3537 15.3395 30.3149 14.466 30.3196C13.5336 30.3249 12.3915 30.2388 11.6717 29.5448C11.0393 28.9353 10.9519 27.9808 10.8658 27.1554C10.751 26.0628 10.6372 24.9704 10.5244 23.8781L9.89157 17.8042L9.48217 13.8743C9.47527 13.8093 9.46839 13.7451 9.46193 13.6797C9.41285 13.2109 9.08094 12.752 8.55788 12.7756C8.11018 12.7954 7.60133 13.176 7.65385 13.6797L7.95734 16.5933L8.585 22.6202C8.76381 24.3322 8.94218 26.0443 9.12012 27.7569C9.15457 28.0849 9.18684 28.4139 9.223 28.7419C9.41975 30.5345 10.7887 31.5005 12.484 31.7725C13.4742 31.9319 14.4884 31.9647 15.4932 31.9809C16.7812 32.0017 18.0822 32.0512 19.3491 31.8178C21.2266 31.4733 22.6351 30.2198 22.8362 28.2753C22.8936 27.7138 22.951 27.1524 23.0084 26.5907C23.1992 24.7332 23.3898 22.8757 23.5801 21.0179L24.2026 14.9479L24.488 12.1661C24.5022 12.0281 24.5604 11.8984 24.6541 11.7961C24.7478 11.6939 24.8719 11.6245 25.008 11.5982C25.5448 11.4936 26.058 11.3149 26.4399 10.9064C27.0477 10.2559 27.1687 9.40786 26.9539 8.55289ZM6.75971 9.15301C6.76788 9.14913 6.75282 9.21928 6.74636 9.25201C6.74507 9.2025 6.74765 9.15859 6.75971 9.15301ZM6.8118 9.55595C6.8161 9.55292 6.82901 9.57016 6.84236 9.59082C6.82213 9.57186 6.80921 9.55767 6.81137 9.55595H6.8118ZM6.86303 9.62352C6.88154 9.65495 6.89144 9.67476 6.86303 9.62352V9.62352ZM6.96591 9.70704H6.9685C6.9685 9.71007 6.97323 9.71307 6.97495 9.7161C6.9721 9.71277 6.96893 9.70974 6.96548 9.70704H6.96591ZM24.9831 9.58219C24.7902 9.76559 24.4996 9.85083 24.2125 9.89346C20.9923 10.3713 17.7253 10.6132 14.4699 10.5065C12.14 10.4269 9.83475 10.1681 7.52815 9.84222C7.30213 9.81037 7.05718 9.76904 6.90177 9.60243C6.60903 9.28816 6.75282 8.65534 6.82901 8.27565C6.89876 7.9278 7.03221 7.46417 7.44592 7.41465C8.09167 7.33889 8.84158 7.61138 9.48045 7.70826C10.2496 7.82562 11.0216 7.91962 11.7965 7.99023C15.1036 8.29159 18.4662 8.24465 21.7586 7.80383C22.3588 7.72317 22.9567 7.62947 23.5525 7.52271C24.0833 7.42756 24.6718 7.24892 24.9925 7.79865C25.2125 8.17319 25.2418 8.67428 25.2078 9.09746C25.1973 9.28183 25.1167 9.45524 24.9826 9.58219H24.9831Z" fill="#0D0C22"/>
</svg>
