<svg width="60" height="90" viewBox="0 0 60 90" fill="none" xmlns="http://www.w3.org/2000/svg">
<path d="M30 45C30 36.7158 36.7157 30 44.9999 30V30C53.2842 30 60 36.7157 60 45V45C60 53.2843 53.2842 60 44.9999 60V60C36.7157 60 30 53.2842 30 45V45Z" fill="#1ABCFE"/>
<path d="M0 75C0 66.7157 6.71573 60 15 60H30V75C30 83.2843 23.2843 90 15 90V90C6.71573 90 0 83.2843 0 75V75Z" fill="#0ACF83"/>
<path d="M30 0V30H45C53.2843 30 60 23.2843 60 15V15C60 6.71573 53.2843 0 45 0L30 0Z" fill="#FF7262"/>
<path d="M0 15C0 23.2843 6.71573 30 15 30L30 30L30 -1.43051e-06L15 -1.43051e-06C6.71573 -1.43051e-06 0 6.71573 0 15V15Z" fill="#F24E1E"/>
<path d="M0 45C0 53.2843 6.71573 60 15 60L30 60L30 30H15C6.71573 30 0 36.7157 0 45V45Z" fill="#A259FF"/>
</svg>
