<svg width="25" height="24" viewBox="0 0 25 24" fill="none" xmlns="http://www.w3.org/2000/svg">
<path id='repo' fill-rule="evenodd" clip-rule="evenodd" d="M3.5 3.75C3.5 2.75544 3.89509 1.8016 4.59835 1.09835C5.30162 0.395088 6.25544 0 7.25 0H20.375C20.6734 0 20.9596 0.118526 21.1705 0.329505C21.3815 0.540483 21.5 0.826632 21.5 1.125V19.875C21.5 20.1733 21.3815 20.4596 21.1705 20.6705C20.9596 20.8815 20.6734 21 20.375 21H16.625C16.3267 21 16.0405 20.8815 15.8296 20.6705C15.6185 20.4596 15.5 20.1733 15.5 19.875C15.5 19.5767 15.6185 19.2904 15.8296 19.0795C16.0405 18.8685 16.3267 18.75 16.625 18.75H19.25V15.75H7.25C6.95462 15.75 6.66584 15.8373 6.41986 16.0008C6.17386 16.1643 5.98163 16.3968 5.86724 16.6692C5.75287 16.9414 5.72144 17.2415 5.7769 17.5317C5.83235 17.8218 5.97224 18.0891 6.179 18.3C6.38786 18.5133 6.50345 18.8007 6.50036 19.0992C6.49727 19.3977 6.37574 19.6827 6.1625 19.8915C5.94928 20.1003 5.6618 20.2159 5.36333 20.2128C5.06488 20.2098 4.77986 20.0883 4.571 19.875C3.88357 19.1744 3.49894 18.2316 3.5 17.25V3.75ZM19.25 2.25V13.5H7.25C6.716 13.5 6.209 13.611 5.75 13.812V3.75C5.75 3.35217 5.90804 2.97064 6.18934 2.68933C6.47065 2.40804 6.85217 2.25 7.25 2.25H19.25ZM8 18.375V23.25C8 23.3196 8.0194 23.3879 8.05601 23.4471C8.09263 23.5064 8.14501 23.5542 8.2073 23.5854C8.26958 23.6166 8.33932 23.6298 8.40868 23.6235C8.47804 23.6172 8.54429 23.5918 8.6 23.55L10.775 21.9195C10.8399 21.8707 10.9189 21.8445 11 21.8445C11.0811 21.8445 11.1601 21.8707 11.225 21.9195L13.4 23.55C13.4557 23.5918 13.522 23.6172 13.5913 23.6235C13.6607 23.6298 13.7304 23.6166 13.7927 23.5854C13.855 23.5542 13.9074 23.5064 13.944 23.4471C13.9806 23.3879 14 23.3196 14 23.25V18.375C14 18.2756 13.9605 18.1802 13.8902 18.1098C13.8198 18.0395 13.7245 18 13.625 18H8.375C8.27555 18 8.18017 18.0395 8.10983 18.1098C8.03951 18.1802 8 18.2756 8 18.375Z" fill="white"/>
</svg>
