<svg width="128" height="128" viewBox="0 0 128 128" fill="none" xmlns="http://www.w3.org/2000/svg">
<g clip-path="url(#clip0)">
<rect width="128" height="128" fill="#F0F0F0"/>
<path d="M58 65V69.5H47.5V65M58 65H61V72.5H44V65H47.5H58ZM58 65H47.5H58Z" stroke="#7B61FF" stroke-width="2"/>
<path d="M24 51.5L30.5 28H108.5L102.5 51.5H24Z" stroke="#7B61FF" stroke-width="2"/>
<path d="M13 65V100H92V65H13ZM13 65L24.5 51" stroke="#7B61FF" stroke-width="2" stroke-linejoin="round"/>
<path d="M92 100L102.5 85.5V51.5L92 65" stroke="#7B61FF" stroke-width="2"/>
<path d="M101.722 46.9472C101.905 47.133 102.062 47.3434 102.188 47.5724C102.427 48.0377 102.513 48.5665 102.434 49.0836C102.356 49.6007 102.116 50.0798 101.749 50.4527C101.01 51.1797 99.7031 52.4964 97.3726 54.7892C94.8253 57.3063 91.2003 61.4626 88 65H74.5C78.3541 61.7539 87.1669 53.7788 91.7571 49.2377C94.1574 46.8661 95.4878 45.5608 96.2148 44.8453C96.5572 44.5049 96.9947 44.2761 97.4696 44.189C97.9445 44.1019 98.4347 44.1605 98.8756 44.3572C99.1558 44.4832 99.4101 44.6604 99.6254 44.8796L101.722 46.9472Z" fill="#E5E5E5" stroke="black" stroke-linecap="round" stroke-linejoin="round"/>
<path d="M125.163 43.3147L121.241 39.4286C121.182 39.3688 121.11 39.3218 121.032 39.2906C120.953 39.2593 120.869 39.2444 120.784 39.2468C120.7 39.2454 120.616 39.2607 120.537 39.2919C120.459 39.3231 120.387 39.3696 120.327 39.4286C120.186 39.5704 120.014 39.6779 119.825 39.7427C119.636 39.8075 119.434 39.8279 119.235 39.8023C118.723 39.7463 118.178 39.5875 117.826 39.2468C117.026 38.4628 117.951 36.9197 117.247 35.9322C116.443 34.8515 115.561 33.8308 114.609 32.8782C113.802 32.0781 110.63 29.0526 105.288 26.8741C103.583 26.1757 101.758 25.8169 99.9157 25.818C96.9039 25.818 94.5882 27.1621 93.7436 27.9336C93.0715 28.5417 92.372 29.5075 92.372 29.5075C92.7759 29.3602 93.1886 29.2381 93.6076 29.1418C94.4813 28.9545 95.3779 28.8971 96.2684 28.9714C98.0469 29.1189 100.19 29.9533 101.34 30.8562C103.193 32.3421 103.989 34.3297 104.114 36.8946C104.205 38.8022 102.373 41.2105 100.635 43.1741C100.482 43.3468 100.401 43.5717 100.41 43.8022C100.418 44.0327 100.515 44.2511 100.68 44.412L103.108 46.8385C103.277 47.0055 103.505 47.1002 103.742 47.1023C103.98 47.1044 104.209 47.0139 104.381 46.8499C105.973 45.3058 107.935 43.5959 109.047 42.9112C110.159 42.2266 111.056 42.0334 111.487 41.9866C112.334 41.9046 113.185 42.0892 113.922 42.5146C114.052 42.588 114.17 42.6796 114.274 42.7867C115.012 43.5364 114.968 44.7617 114.217 45.5001L113.988 45.7161C113.929 45.7746 113.881 45.8444 113.849 45.9213C113.817 45.9982 113.8 46.0808 113.8 46.1642C113.8 46.2476 113.817 46.3301 113.849 46.407C113.881 46.484 113.929 46.5537 113.988 46.6122L117.91 50.4983C117.97 50.5576 118.041 50.6041 118.12 50.6352C118.198 50.6662 118.282 50.6811 118.367 50.6789C118.537 50.6814 118.701 50.6165 118.824 50.4983L125.163 44.2291C125.28 44.1056 125.345 43.942 125.345 43.7719C125.345 43.6018 125.28 43.4382 125.163 43.3147V43.3147Z" fill="#E5E5E5" stroke="black" stroke-linecap="round" stroke-linejoin="round"/>
<path d="M25.2242 18.782L36.6519 17.0252C38.0303 16.8136 39.261 17.9628 39.261 19.4612V30.5574C39.2402 32.5834 37.0458 34.2233 34.3383 34.2233C31.6192 34.2233 29.4155 32.5711 29.4155 30.5312C29.4155 28.4914 31.6192 26.8391 34.3383 26.8391C34.7517 26.8429 35.1639 26.8867 35.5689 26.9699V23.3409L26.9541 24.6654V33.0172C26.9333 35.0432 24.7389 36.6831 22.0313 36.6831C19.3123 36.6831 17.1086 35.0309 17.1086 32.9911C17.1086 30.9512 19.3123 29.299 22.0313 29.299C22.4448 29.3027 22.857 29.3465 23.262 29.4298V21.2172C23.262 19.9934 24.0981 18.955 25.2242 18.782Z" fill="#18A0FB" stroke="black"/>
<path d="M68.4096 55.1594H73.0693C73.8162 55.1594 74.2808 55.8355 73.9054 56.367L68.4096 65.5H65.5001L66.8789 60.0791H62.0862C61.5001 60.0791 61.0478 59.6491 61.1247 59.1645L62.4169 50.9397C62.4815 50.5397 62.8938 50.2397 63.3784 50.2397H69.1926C69.8272 50.2397 70.291 50.7443 70.1295 51.2558L68.4096 55.1594Z" fill="#FFEB00"/>
<path d="M68.4096 55.1594L67.9521 54.9578L67.6429 55.6594H68.4096V55.1594ZM70.1295 51.2558L70.5871 51.4574L70.5981 51.4324L70.6063 51.4064L70.1295 51.2558ZM62.4169 50.9397L61.9233 50.8599L61.923 50.8621L62.4169 50.9397ZM61.1247 59.1645L61.6185 59.2429L61.6186 59.2421L61.1247 59.1645ZM66.8789 60.0791L67.3635 60.2023L67.522 59.5791H66.8789V60.0791ZM73.9054 56.367L73.497 56.0786L73.4864 56.0935L73.477 56.1092L73.9054 56.367ZM65.5001 65.5L65.0155 65.3767L64.857 66H65.5001V65.5ZM68.4096 65.5V66H68.6923L68.838 65.7578L68.4096 65.5ZM73.0693 54.6594H68.4096V55.6594H73.0693V54.6594ZM68.8672 55.361L70.5871 51.4574L69.6719 51.0542L67.9521 54.9578L68.8672 55.361ZM70.6063 51.4064C70.7484 50.9565 70.6063 50.5201 70.3274 50.2172C70.052 49.9182 69.6411 49.7397 69.1926 49.7397V50.7397C69.3787 50.7397 69.5171 50.8135 69.5918 50.8947C69.663 50.972 69.6722 51.0436 69.6527 51.1052L70.6063 51.4064ZM69.1926 49.7397H63.3784V50.7397H69.1926V49.7397ZM63.3784 49.7397C62.718 49.7397 62.0372 50.1549 61.9233 50.8599L62.9105 51.0194C62.9259 50.9245 63.0696 50.7397 63.3784 50.7397V49.7397ZM61.923 50.8621L60.6308 59.0869L61.6186 59.2421L62.9109 51.0173L61.923 50.8621ZM60.6309 59.0861C60.4898 59.9747 61.3038 60.5791 62.0862 60.5791V59.5791C61.9136 59.5791 61.7797 59.5157 61.7014 59.4412C61.6254 59.369 61.6096 59.2991 61.6185 59.2429L60.6309 59.0861ZM62.0862 60.5791H66.8789V59.5791H62.0862V60.5791ZM74.3138 56.6555C74.6331 56.2034 74.5906 55.6722 74.3197 55.2798C74.0563 54.8983 73.5935 54.6594 73.0693 54.6594V55.6594C73.2921 55.6594 73.435 55.7585 73.4968 55.848C73.551 55.9265 73.5531 55.9991 73.497 56.0786L74.3138 56.6555ZM66.3944 59.9558L65.0155 65.3767L65.9846 65.6233L67.3635 60.2023L66.3944 59.9558ZM68.838 65.7578L74.3338 56.6248L73.477 56.1092L67.9812 65.2422L68.838 65.7578ZM65.5001 66H68.4096V65H65.5001V66Z" fill="black"/>
<path d="M68.5715 29.2944H72.2636C72.8234 29.2948 73.3602 29.5175 73.7558 29.9136C74.1515 30.3097 74.3736 30.8467 74.3734 31.4066V41.9636C74.3734 42.5233 74.1512 43.0601 73.7556 43.456C73.3599 43.852 72.8233 44.0746 72.2636 44.075H54.3309C54.0537 44.0749 53.7793 44.0202 53.5232 43.914C53.2672 43.8079 53.0346 43.6523 52.8387 43.4563C52.6427 43.2602 52.4874 43.0275 52.3814 42.7714C52.2754 42.5152 52.2209 42.2408 52.221 41.9636V31.4066C52.2209 31.1292 52.2755 30.8545 52.3816 30.5982C52.4877 30.3419 52.6433 30.109 52.8394 29.9128C53.0356 29.7167 53.2685 29.5611 53.5248 29.455C53.7811 29.3489 54.0558 29.2943 54.3332 29.2944H58.0253L58.5637 28.1991C58.7142 27.7972 58.9839 27.451 59.3366 27.2066C59.6893 26.9622 60.1083 26.8313 60.5374 26.8315H66.0532C66.4823 26.8313 66.9013 26.9622 67.254 27.2066C67.6067 27.451 67.8764 27.7972 68.0269 28.1991L68.5715 29.2944Z" fill="#1BC47D" stroke="black"/>
<path d="M61.0751 40.0165C61.7328 40.456 62.5062 40.6906 63.2972 40.6906C64.358 40.6906 65.3754 40.2692 66.1255 39.5191C66.8756 38.769 67.297 37.7516 67.297 36.6908C67.297 35.8997 67.0624 35.1264 66.6229 34.4687C66.1834 33.8109 65.5587 33.2983 64.8279 32.9955C64.097 32.6928 63.2928 32.6136 62.5169 32.7679C61.741 32.9223 61.0284 33.3032 60.469 33.8626C59.9096 34.4219 59.5287 35.1346 59.3743 35.9105C59.22 36.6864 59.2992 37.4906 59.6019 38.2214C59.9047 38.9523 60.4173 39.577 61.0751 40.0165Z" fill="#1BC47D" stroke="black"/>
<path d="M31.8288 48.1215C33.8308 46.4155 36.8295 46.7121 38.6845 48.6291L39.4424 49.4094L39.6102 49.5822L39.7782 49.4095L40.5366 48.6295C42.3948 46.7122 45.3899 46.4156 47.3918 48.1214C49.7035 50.0924 49.8257 53.6356 47.7534 55.7705L40.3114 63.4494L40.3104 63.4504C40.2197 63.5452 40.1107 63.6206 39.9901 63.6721C39.8694 63.7236 39.7396 63.7502 39.6084 63.7502C39.4772 63.7502 39.3474 63.7236 39.2267 63.6721C39.1061 63.6206 38.9971 63.5452 38.9064 63.4504L38.9054 63.4494L31.4609 55.7711C29.3994 53.6334 29.5175 50.0921 31.8288 48.1215Z" fill="#F24822" stroke="black"/>
<path d="M12.9859 35.0922L4 41.0273L6.74904 45.1894L9.49808 49.3516L11.9199 53.0182L14.3416 56.6849L17.0252 60.7479L19.7088 64.3337L32.5 64.3337L12.9859 35.0922Z" fill="#E5E5E5"/>
<path d="M9.49808 49.3516L11.9199 53.0182M9.49808 49.3516L6.74904 45.1894M9.49808 49.3516L11.3285 48.1426L13.159 46.9336M14.3416 56.6849L20.4432 52.6549M14.3416 56.6849L11.9199 53.0182M14.3416 56.6849L17.0252 60.7479M11.9199 53.0182L13.8058 51.7726M11.9199 53.0182L17.0252 60.7479M17.0252 60.7479L19.7088 64.3337L32.5 64.3337L12.9859 35.0922L4 41.0273L6.74904 45.1894M17.0252 60.7479L18.9111 59.5023M6.74904 45.1894L8.63498 43.9438" stroke="black"/>
<path d="M20 64.2517L21.8304 63.0427L23.6609 61.8337" stroke="black"/>
<path d="M13 65H92.1199" stroke="#7B61FF" stroke-width="2"/>
</g>
<defs>
<clipPath id="clip0">
<rect width="128" height="128" fill="white"/>
</clipPath>
</defs>
</svg>
