<svg width="128" height="128" viewBox="0 0 128 128" fill="none" xmlns="http://www.w3.org/2000/svg">
<g clip-path="url(#clip0)">
<path d="M0 6C0 2.68629 2.68629 0 6 0H122C125.314 0 128 2.68629 128 6V122C128 125.314 125.314 128 122 128H6C2.68629 128 0 125.314 0 122V6Z" fill="#F0F0F0"/>
<path d="M12.8951 101.779V75.221H22.1311H23.1311H24.1311H39.2191V81.4775V82.4775H40.2191H41.8577H57.073H58.073V81.4775V75.221H90.015V101.779H12.8951ZM41.2191 80.4775V75.221H43.1985V78.2004V79.2004H44.1985H53.5618H54.5618V78.2004V75.221H56.073V80.4775H41.8577H41.2191ZM45.1985 77.2004V75.221H52.5618V77.2004H45.1985ZM99.3685 64.4532L90.6008 73.221H58.073H57.073H56.073H54.5618H53.5618H52.5618H45.1985H44.1985H43.1985H41.2191H40.2191H39.2191H24.1311V64.4532H99.3685ZM22.1311 73.221H14.3839L22.1311 65.7966V73.221ZM100.998 62.4532H24.455L30.6748 40.5768H106.36L100.998 62.4532ZM92.015 74.6352L100.783 65.8674V91.597L92.015 100.365V74.6352Z" fill="#F0F0F0" stroke="#7B61FF" stroke-width="2"/>
<path d="M100.722 55.9472C100.905 56.133 101.062 56.3434 101.188 56.5724C101.427 57.0377 101.513 57.5665 101.434 58.0836C101.356 58.6007 101.116 59.0798 100.749 59.4527C100.01 60.1797 98.7031 61.4964 96.3726 63.7892C93.8253 66.3063 90.2003 70.4626 87 74H73.5C77.3541 70.7539 86.1669 62.7788 90.7571 58.2377C93.1574 55.8661 94.4878 54.5608 95.2147 53.8453C95.5572 53.5049 95.9946 53.2761 96.4696 53.189C96.9445 53.1019 97.4346 53.1605 97.8756 53.3572C98.1558 53.4832 98.4101 53.6604 98.6254 53.8796L100.722 55.9472Z" fill="#E5E5E5" stroke="black" stroke-width="0.468165" stroke-linecap="round" stroke-linejoin="round"/>
<path d="M124.163 52.3147L120.241 48.4286C120.182 48.3688 120.11 48.3218 120.032 48.2906C119.953 48.2593 119.869 48.2444 119.784 48.2468C119.7 48.2454 119.616 48.2607 119.537 48.2919C119.459 48.3231 119.387 48.3696 119.327 48.4286C119.186 48.5704 119.014 48.6779 118.825 48.7427C118.636 48.8075 118.434 48.8279 118.235 48.8023C117.723 48.7463 117.178 48.5875 116.826 48.2468C116.026 47.4628 116.951 45.9197 116.247 44.9322C115.443 43.8515 114.561 42.8308 113.609 41.8782C112.802 41.0781 109.63 38.0526 104.288 35.8741C102.583 35.1757 100.758 34.8169 98.9157 34.818C95.9039 34.818 93.5882 36.1621 92.7436 36.9336C92.0715 37.5417 91.372 38.5075 91.372 38.5075C91.7759 38.3602 92.1886 38.2381 92.6076 38.1418C93.4813 37.9545 94.3779 37.8971 95.2684 37.9714C97.0469 38.1189 99.19 38.9533 100.34 39.8562C102.193 41.3421 102.989 43.3297 103.114 45.8946C103.205 47.8022 101.373 50.2105 99.6346 52.1741C99.4817 52.3468 99.4011 52.5717 99.4096 52.8022C99.4181 53.0327 99.5151 53.2511 99.6803 53.412L102.108 55.8385C102.277 56.0055 102.505 56.1002 102.742 56.1023C102.98 56.1044 103.209 56.0139 103.381 55.8499C104.973 54.3058 106.935 52.5959 108.047 51.9112C109.159 51.2266 110.056 51.0334 110.487 50.9866C111.334 50.9046 112.185 51.0892 112.922 51.5146C113.051 51.588 113.17 51.6796 113.274 51.7867C114.012 52.5364 113.968 53.7617 113.217 54.5001L112.988 54.7161C112.929 54.7746 112.881 54.8444 112.849 54.9213C112.817 54.9982 112.8 55.0808 112.8 55.1642C112.8 55.2476 112.817 55.3301 112.849 55.407C112.881 55.484 112.929 55.5537 112.988 55.6122L116.91 59.4983C116.97 59.5576 117.041 59.6041 117.12 59.6352C117.198 59.6662 117.282 59.6811 117.367 59.6789C117.537 59.6814 117.701 59.6165 117.824 59.4983L124.163 53.2291C124.28 53.1056 124.345 52.942 124.345 52.7719C124.345 52.6018 124.28 52.4382 124.163 52.3147Z" fill="#E5E5E5" stroke="black" stroke-width="0.468165" stroke-linecap="round" stroke-linejoin="round"/>
<path d="M24.2598 28.0133L24.2598 28.0133L35.6875 26.2565C36.9046 26.0698 38.0269 27.0858 38.0269 28.4612V39.5562C38.017 40.4793 37.5124 41.3324 36.6673 41.9624C35.8217 42.5928 34.6464 42.9892 33.3383 42.9892C32.0245 42.9892 30.8442 42.5898 29.9977 41.9549C29.1512 41.3202 28.6496 40.461 28.6496 39.5312C28.6496 38.6015 29.1512 37.7423 29.9977 37.1075C30.844 36.4729 32.0238 36.0734 33.3372 36.0732C33.7352 36.0769 34.1319 36.1191 34.5218 36.1992L34.803 36.257V35.9699V32.3409V32.0681L34.5334 32.1095L25.9185 33.4341L25.72 33.4646V33.6654V42.016C25.7101 42.9391 25.2056 43.7922 24.3604 44.4223C23.5148 45.0526 22.3395 45.4491 21.0314 45.4491C19.7175 45.4491 18.5373 45.0496 17.6908 44.4148C16.8443 43.78 16.3427 42.9208 16.3427 41.9911C16.3427 41.0613 16.8443 40.2021 17.6908 39.5674C18.5371 38.9327 19.7169 38.5333 21.0303 38.5331C21.4283 38.5368 21.825 38.5789 22.2149 38.659L22.4961 38.7168V38.4298V30.2172C22.4961 29.096 23.2603 28.1669 24.2598 28.0133Z" fill="#18A0FB" stroke="black" stroke-width="0.468165"/>
<path d="M30.3439 56.8501C32.3459 55.1442 35.3446 55.4407 37.1996 57.3578L37.1999 57.3581L37.9576 58.138L38.1254 58.3108L38.2933 58.1381L39.0517 57.3582L39.052 57.3579C40.9101 55.4406 43.9051 55.1442 45.9069 56.8501C48.2186 58.821 48.3408 62.3642 46.2685 64.4992L46.2684 64.4993L38.8265 72.178L38.8256 72.179C38.7348 72.2738 38.6259 72.3492 38.5052 72.4007C38.3846 72.4522 38.2547 72.4788 38.1235 72.4788C37.9923 72.4788 37.8625 72.4522 37.7419 72.4007C37.6212 72.3492 37.5122 72.2738 37.4215 72.179L37.4205 72.178L29.976 64.4997C29.9759 64.4996 29.9758 64.4995 29.9757 64.4994C27.9143 62.3618 28.0326 58.8208 30.3439 56.8501ZM30.3439 56.8501L30.1921 56.6719M30.3439 56.8501L30.1921 56.6719M30.1921 56.6719C27.7761 58.7318 27.6538 62.4293 29.8075 64.6622H46.4365C48.6017 62.4316 48.4748 58.7318 46.0588 56.6719C43.952 54.8767 40.8176 55.1997 38.8839 57.195L38.2887 57.807L38.2934 57.8118L38.1255 57.9749L37.9576 57.8117L37.9623 57.807L37.3678 57.195C35.4372 55.1997 32.2989 54.8767 30.1921 56.6719Z" fill="#F24822" stroke="black" stroke-width="0.468165"/>
<mask id="path-7-inside-1" fill="white">
<path d="M67.4096 64.1594H72.0693C72.8162 64.1594 73.2807 64.8355 72.9054 65.367L67.4096 74.5H64.5L65.8789 69.0791H61.0861C60.5 69.0791 60.0477 68.6491 60.1247 68.1645L61.4169 59.9397C61.4815 59.5397 61.8938 59.2397 62.3784 59.2397H68.1926C68.8272 59.2397 69.291 59.7443 69.1295 60.2558L67.4096 64.1594Z"/>
</mask>
<path d="M67.4096 64.1594H72.0693C72.8162 64.1594 73.2807 64.8355 72.9054 65.367L67.4096 74.5H64.5L65.8789 69.0791H61.0861C60.5 69.0791 60.0477 68.6491 60.1247 68.1645L61.4169 59.9397C61.4815 59.5397 61.8938 59.2397 62.3784 59.2397H68.1926C68.8272 59.2397 69.291 59.7443 69.1295 60.2558L67.4096 64.1594Z" fill="#FFEB00"/>
<path d="M67.4096 64.1594L66.9812 63.9706L66.6917 64.6276H67.4096V64.1594ZM69.1295 60.2558L69.5579 60.4446L69.5682 60.4212L69.5759 60.3968L69.1295 60.2558ZM61.4169 59.9397L60.9547 59.865L60.9544 59.867L61.4169 59.9397ZM60.1247 68.1645L60.587 68.2379L60.5872 68.2372L60.1247 68.1645ZM65.8789 69.0791L66.3326 69.1945L66.4811 68.6109H65.8789V69.0791ZM72.9054 65.367L72.523 65.0969L72.5131 65.1109L72.5042 65.1256L72.9054 65.367ZM64.5 74.5L64.0463 74.3846L63.8979 74.9682H64.5V74.5ZM67.4096 74.5V74.9682H67.6743L67.8107 74.7414L67.4096 74.5ZM72.0693 63.6912H67.4096V64.6276H72.0693V63.6912ZM67.838 64.3482L69.5579 60.4446L68.701 60.067L66.9812 63.9706L67.838 64.3482ZM69.5759 60.3968C69.7141 59.9592 69.5763 59.5344 69.3039 59.2388C69.0349 58.9467 68.6327 58.7716 68.1926 58.7716V59.7079C68.3871 59.7079 68.5341 59.785 68.6152 59.8731C68.693 59.9576 68.7064 60.0409 68.683 60.1148L69.5759 60.3968ZM68.1926 58.7716H62.3784V59.7079H68.1926V58.7716ZM62.3784 58.7716C61.7292 58.7716 61.0655 59.1794 60.9547 59.865L61.8791 60.0143C61.8975 59.9 62.0584 59.7079 62.3784 59.7079V58.7716ZM60.9544 59.867L59.6622 68.0919L60.5872 68.2372L61.8794 60.0123L60.9544 59.867ZM59.6623 68.0911C59.5253 68.954 60.3162 69.5473 61.0861 69.5473V68.6109C60.9059 68.6109 60.764 68.5447 60.6794 68.4643C60.597 68.3859 60.5762 68.3059 60.587 68.2379L59.6623 68.0911ZM61.0861 69.5473H65.8789V68.6109H61.0861V69.5473ZM73.2878 65.6371C73.5987 65.1969 73.5575 64.6803 73.2934 64.2979C73.0364 63.9257 72.5838 63.6912 72.0693 63.6912V64.6276C72.3016 64.6276 72.4547 64.7311 72.5229 64.8299C72.584 64.9184 72.5875 65.0056 72.523 65.0969L73.2878 65.6371ZM65.4252 68.9637L64.0463 74.3846L64.9537 74.6154L66.3326 69.1945L65.4252 68.9637ZM67.8107 74.7414L73.3065 65.6084L72.5042 65.1256L67.0084 74.2586L67.8107 74.7414ZM64.5 74.9682H67.4096V74.0318H64.5V74.9682Z" fill="black" mask="url(#path-7-inside-1)"/>
<path d="M67.3611 38.399L67.4259 38.5294H67.5715H71.2634C71.7609 38.5298 72.2379 38.7277 72.5896 39.0797C72.9412 39.4317 73.1386 39.909 73.1384 40.4065V40.4066V50.9636C73.1384 51.461 72.9409 51.9381 72.5893 52.2899C72.2377 52.6418 71.7608 52.8396 71.2634 52.84H53.3309C53.3309 52.84 53.3309 52.84 53.3309 52.84C53.0846 52.8399 52.8407 52.7913 52.6132 52.697C52.3857 52.6026 52.179 52.4644 52.0049 52.2902C51.8308 52.1159 51.6927 51.9091 51.5985 51.6815C51.5043 51.4539 51.4559 51.21 51.456 50.9637V50.9636L51.456 40.4066L51.456 40.4065C51.4559 40.16 51.5044 39.9158 51.5987 39.688C51.693 39.4603 51.8313 39.2533 52.0056 39.079C52.1799 38.9047 52.3869 38.7664 52.6146 38.6721C52.8424 38.5778 53.0866 38.5293 53.3331 38.5294H53.3332H57.0252H57.1716L57.2361 38.3981L57.7746 37.3028L57.7797 37.2924L57.7837 37.2815C57.9175 36.9245 58.1571 36.6169 58.4705 36.3997C58.7838 36.1826 59.156 36.0663 59.5373 36.0665H59.5374L65.0532 36.0665L65.0533 36.0665C65.4345 36.0663 65.8067 36.1826 66.1201 36.3997C66.4335 36.6169 66.6731 36.9245 66.8068 37.2815L66.8111 37.2929L66.8165 37.3037L67.3611 38.399Z" fill="#1BC47D" stroke="black" stroke-width="0.47"/>
<path d="M11.9859 44.0922L3 50.0273L5.74904 54.1894L8.49808 58.3516L10.9199 62.0182L13.3416 65.6849L16.0252 69.7479L18.7088 73.3337L31.5 73.3337L11.9859 44.0922Z" fill="#E5E5E5"/>
<path d="M8.49808 58.3516L10.9199 62.0182M8.49808 58.3516L5.74904 54.1894M8.49808 58.3516L10.3285 57.1426L12.159 55.9336M13.3416 65.6849L19.4432 61.6549M13.3416 65.6849L10.9199 62.0182M13.3416 65.6849L16.0252 69.7479M10.9199 62.0182L12.8058 60.7726M10.9199 62.0182L16.0252 69.7479M16.0252 69.7479L18.7088 73.3337L31.5 73.3337L11.9859 44.0922L3 50.0273L5.74904 54.1894M16.0252 69.7479L17.9111 68.5023M5.74904 54.1894L7.63498 52.9438" stroke="black" stroke-width="0.468165"/>
<path d="M19 73.2517L20.8304 72.0427L22.6609 70.8337" stroke="black" stroke-width="0.468165"/>
<path d="M13.5 74H91.5" stroke="#7B61FF" stroke-width="2"/>
</g>
<defs>
<clipPath id="clip0">
<path d="M0 6C0 2.68629 2.68629 0 6 0H122C125.314 0 128 2.68629 128 6V122C128 125.314 125.314 128 122 128H6C2.68629 128 0 125.314 0 122V6Z" fill="white"/>
</clipPath>
</defs>
</svg>
