<svg width="128" height="128" viewBox="0 0 128 128" fill="none" xmlns="http://www.w3.org/2000/svg">
<rect width="128" height="128" fill="#F0F0F0"/>
<rect x="16.8462" y="17.8845" width="13.3846" height="2.80769" stroke="#7B61FF" stroke-width="2"/>
<rect x="48.3077" y="17.8845" width="13.3846" height="2.80769" stroke="#7B61FF" stroke-width="2"/>
<rect x="79.7693" y="17.8845" width="13.3846" height="2.80769" stroke="#7B61FF" stroke-width="2"/>
<rect x="13" y="13" width="84" height="12.5769" stroke="#7B61FF" stroke-width="2"/>
<rect x="16.8462" y="35.2693" width="33.3077" height="48.9615" stroke="#7B61FF" stroke-width="2"/>
<rect x="59.8462" y="35.2693" width="33.3077" height="48.9615" stroke="#7B61FF" stroke-width="2"/>
<rect x="13" y="31.4231" width="84" height="56.6538" stroke="#7B61FF" stroke-width="2"/>
<rect x="16.8462" y="97.7693" width="58.5769" height="3.76923" stroke="#7B61FF" stroke-width="2"/>
<rect x="16.8462" y="107.385" width="58.5769" height="3.76923" stroke="#7B61FF" stroke-width="2"/>
<rect x="79.7693" y="97.7693" width="13.3846" height="13.3846" stroke="#7B61FF" stroke-width="2"/>
<rect x="13" y="93.9231" width="84" height="21.0769" stroke="#7B61FF" stroke-width="2"/>
<path fill-rule="evenodd" clip-rule="evenodd" d="M107.519 18.8904L107.965 19.3359L109.555 20.9255L110 21.371L110.445 20.9255L112.035 19.3359L112.48 18.8904L112.035 18.445L110.445 16.8554L110 16.4099L109.555 16.8554L107.965 18.445L107.519 18.8904ZM111.59 18.8904L110 20.48L108.41 18.8904L110 17.3008L111.59 18.8904ZM107.519 25.2689L107.965 25.7144L109.555 27.304L110 27.7494L110.445 27.304L112.035 25.7144L112.48 25.2689L112.035 24.8235L110.445 23.2339L110 22.7884L109.555 23.2339L107.965 24.8235L107.519 25.2689ZM111.59 25.2689L110 26.8585L108.41 25.2689L110 23.6793L111.59 25.2689ZM104.776 22.5251L104.33 22.0797L104.776 21.6342L106.365 20.0446L106.811 19.5992L107.256 20.0446L108.846 21.6342L109.291 22.0797L108.846 22.5251L107.256 24.1147L106.811 24.5602L106.365 24.1147L104.776 22.5251ZM106.811 23.6693L108.4 22.0797L106.811 20.4901L105.221 22.0797L106.811 23.6693ZM110.709 22.0797L111.154 22.5251L112.744 24.1147L113.189 24.5602L113.635 24.1147L115.224 22.5251L115.67 22.0797L115.224 21.6342L113.635 20.0446L113.189 19.5992L112.744 20.0446L111.154 21.6342L110.709 22.0797ZM114.779 22.0797L113.189 23.6693L111.6 22.0797L113.189 20.4901L114.779 22.0797Z" fill="black" fill-opacity="0.8"/>
<path fill-rule="evenodd" clip-rule="evenodd" d="M107.519 60.8108L107.965 61.2563L109.555 62.8459L110 63.2914L110.445 62.8459L112.035 61.2563L112.48 60.8108L112.035 60.3654L110.445 58.7758L110 58.3303L109.555 58.7758L107.965 60.3654L107.519 60.8108ZM111.59 60.8108L110 62.4004L108.41 60.8108L110 59.2212L111.59 60.8108ZM107.519 67.1893L107.965 67.6348L109.555 69.2244L110 69.6698L110.445 69.2244L112.035 67.6348L112.48 67.1893L112.035 66.7439L110.445 65.1543L110 64.7088L109.555 65.1543L107.965 66.7439L107.519 67.1893ZM111.59 67.1893L110 68.7789L108.41 67.1893L110 65.5997L111.59 67.1893ZM104.776 64.4455L104.33 64.0001L104.776 63.5546L106.365 61.965L106.811 61.5196L107.256 61.965L108.846 63.5546L109.291 64.0001L108.846 64.4455L107.256 66.0351L106.811 66.4806L106.365 66.0351L104.776 64.4455ZM106.811 65.5897L108.4 64.0001L106.811 62.4105L105.221 64.0001L106.811 65.5897ZM110.709 64.0001L111.154 64.4455L112.744 66.0351L113.189 66.4806L113.635 66.0351L115.224 64.4455L115.67 64.0001L115.224 63.5546L113.635 61.965L113.189 61.5196L112.744 61.965L111.154 63.5546L110.709 64.0001ZM114.779 64.0001L113.189 65.5897L111.6 64.0001L113.189 62.4105L114.779 64.0001Z" fill="black" fill-opacity="0.8"/>
<path fill-rule="evenodd" clip-rule="evenodd" d="M107.519 102.731L107.965 103.177L109.555 104.766L110 105.212L110.445 104.766L112.035 103.177L112.48 102.731L112.035 102.286L110.445 100.696L110 100.251L109.555 100.696L107.965 102.286L107.519 102.731ZM111.59 102.731L110 104.321L108.41 102.731L110 101.142L111.59 102.731ZM107.519 109.11L107.965 109.555L109.555 111.145L110 111.59L110.445 111.145L112.035 109.555L112.48 109.11L112.035 108.664L110.445 107.075L110 106.629L109.555 107.075L107.965 108.664L107.519 109.11ZM111.59 109.11L110 110.699L108.41 109.11L110 107.52L111.59 109.11ZM104.776 106.366L104.33 105.92L104.776 105.475L106.365 103.885L106.811 103.44L107.256 103.885L108.846 105.475L109.291 105.92L108.846 106.366L107.256 107.956L106.811 108.401L106.365 107.956L104.776 106.366ZM106.811 107.51L108.4 105.92L106.811 104.331L105.221 105.92L106.811 107.51ZM110.709 105.92L111.154 106.366L112.744 107.956L113.189 108.401L113.635 107.956L115.224 106.366L115.67 105.92L115.224 105.475L113.635 103.885L113.189 103.44L112.744 103.885L111.154 105.475L110.709 105.92ZM114.779 105.92L113.189 107.51L111.6 105.92L113.189 104.331L114.779 105.92Z" fill="black" fill-opacity="0.8"/>
</svg>
