<svg width="128" height="128" viewBox="0 0 128 128" fill="none" xmlns="http://www.w3.org/2000/svg">
<rect width="128" height="128" fill="#F0F0F0"/>
<rect x="20.2667" y="17.3653" width="14.4231" height="3.84615" stroke="#7B61FF" stroke-width="0.961538"/>
<rect x="45.7475" y="17.3653" width="14.4231" height="3.84615" stroke="#7B61FF" stroke-width="0.961538"/>
<rect x="71.2282" y="17.3653" width="14.4231" height="3.84615" stroke="#7B61FF" stroke-width="0.961538"/>
<rect x="16.4205" y="14.4808" width="73.0769" height="9.61539" stroke="#7B61FF" stroke-width="0.961538"/>
<rect x="20.2667" y="32.7501" width="28.3654" height="50" stroke="#7B61FF" stroke-width="0.961538"/>
<rect x="57.2859" y="32.7501" width="28.3654" height="50" stroke="#7B61FF" stroke-width="0.961538"/>
<rect x="16.4205" y="28.9039" width="73.0769" height="57.6923" stroke="#7B61FF" stroke-width="0.961538"/>
<rect x="20.2667" y="95.2501" width="59.6154" height="4.80769" stroke="#7B61FF" stroke-width="0.961538"/>
<rect x="20.2667" y="104.865" width="59.6154" height="4.80769" stroke="#7B61FF" stroke-width="0.961538"/>
<rect x="71.2282" y="95.2501" width="14.4231" height="14.4231" stroke="#7B61FF" stroke-width="0.961538"/>
<rect x="16.4205" y="91.4039" width="73.0769" height="22.1154" stroke="#7B61FF" stroke-width="0.961538"/>
<path fill-rule="evenodd" clip-rule="evenodd" d="M99.5003 20.8904L99.9457 21.3359L101.535 22.9255L101.981 23.371L102.426 22.9255L104.016 21.3359L104.461 20.8904L104.016 20.445L102.426 18.8554L101.981 18.4099L101.535 18.8554L99.9457 20.445L99.5003 20.8904ZM103.57 20.8904L101.981 22.48L100.391 20.8904L101.981 19.3008L103.57 20.8904ZM99.5003 27.2689L99.9457 27.7144L101.535 29.304L101.981 29.7494L102.426 29.304L104.016 27.7144L104.461 27.2689L104.016 26.8235L102.426 25.2339L101.981 24.7884L101.535 25.2339L99.9457 26.8235L99.5003 27.2689ZM103.57 27.2689L101.981 28.8585L100.391 27.2689L101.981 25.6793L103.57 27.2689ZM96.7565 24.5251L96.311 24.0797L96.7565 23.6342L98.3461 22.0446L98.7916 21.5992L99.237 22.0446L100.827 23.6342L101.272 24.0797L100.827 24.5251L99.237 26.1147L98.7916 26.5602L98.3461 26.1147L96.7565 24.5251ZM98.7916 25.6693L100.381 24.0797L98.7916 22.4901L97.202 24.0797L98.7916 25.6693ZM102.69 24.0797L103.135 24.5251L104.725 26.1147L105.17 26.5602L105.615 26.1147L107.205 24.5251L107.651 24.0797L107.205 23.6342L105.615 22.0446L105.17 21.5992L104.725 22.0446L103.135 23.6342L102.69 24.0797ZM106.76 24.0797L105.17 25.6693L103.58 24.0797L105.17 22.4901L106.76 24.0797Z" fill="black" fill-opacity="0.8"/>
<path fill-rule="evenodd" clip-rule="evenodd" d="M99.5003 60.8108L99.9457 61.2563L101.535 62.8459L101.981 63.2914L102.426 62.8459L104.016 61.2563L104.461 60.8108L104.016 60.3654L102.426 58.7758L101.981 58.3303L101.535 58.7758L99.9457 60.3654L99.5003 60.8108ZM103.57 60.8108L101.981 62.4004L100.391 60.8108L101.981 59.2212L103.57 60.8108ZM99.5003 67.1893L99.9457 67.6348L101.535 69.2244L101.981 69.6698L102.426 69.2244L104.016 67.6348L104.461 67.1893L104.016 66.7439L102.426 65.1543L101.981 64.7088L101.535 65.1543L99.9457 66.7439L99.5003 67.1893ZM103.57 67.1893L101.981 68.7789L100.391 67.1893L101.981 65.5997L103.57 67.1893ZM96.7565 64.4455L96.311 64.0001L96.7565 63.5546L98.3461 61.965L98.7916 61.5196L99.237 61.965L100.827 63.5546L101.272 64.0001L100.827 64.4455L99.237 66.0351L98.7916 66.4806L98.3461 66.0351L96.7565 64.4455ZM98.7916 65.5897L100.381 64.0001L98.7916 62.4105L97.202 64.0001L98.7916 65.5897ZM102.69 64.0001L103.135 64.4455L104.725 66.0351L105.17 66.4806L105.615 66.0351L107.205 64.4455L107.651 64.0001L107.205 63.5546L105.615 61.965L105.17 61.5196L104.725 61.965L103.135 63.5546L102.69 64.0001ZM106.76 64.0001L105.17 65.5897L103.58 64.0001L105.17 62.4105L106.76 64.0001Z" fill="black" fill-opacity="0.8"/>
<path fill-rule="evenodd" clip-rule="evenodd" d="M99.5003 100.731L99.9457 101.177L101.535 102.766L101.981 103.212L102.426 102.766L104.016 101.177L104.461 100.731L104.016 100.286L102.426 98.6962L101.981 98.2507L101.535 98.6962L99.9457 100.286L99.5003 100.731ZM103.57 100.731L101.981 102.321L100.391 100.731L101.981 99.1416L103.57 100.731ZM99.5003 107.11L99.9457 107.555L101.535 109.145L101.981 109.59L102.426 109.145L104.016 107.555L104.461 107.11L104.016 106.664L102.426 105.075L101.981 104.629L101.535 105.075L99.9457 106.664L99.5003 107.11ZM103.57 107.11L101.981 108.699L100.391 107.11L101.981 105.52L103.57 107.11ZM96.7565 104.366L96.311 103.92L96.7565 103.475L98.3461 101.885L98.7916 101.44L99.237 101.885L100.827 103.475L101.272 103.92L100.827 104.366L99.237 105.956L98.7916 106.401L98.3461 105.956L96.7565 104.366ZM98.7916 105.51L100.381 103.92L98.7916 102.331L97.202 103.92L98.7916 105.51ZM102.69 103.92L103.135 104.366L104.725 105.956L105.17 106.401L105.615 105.956L107.205 104.366L107.651 103.92L107.205 103.475L105.615 101.885L105.17 101.44L104.725 101.885L103.135 103.475L102.69 103.92ZM106.76 103.92L105.17 105.51L103.58 103.92L105.17 102.331L106.76 103.92Z" fill="black" fill-opacity="0.8"/>
</svg>
