<svg width="123" height="131" viewBox="0 0 123 131" fill="none" xmlns="http://www.w3.org/2000/svg">
<path d="M0 6C0 2.68629 2.68629 0 6 0H116.966C120.279 0 122.966 2.68629 122.966 6V125C122.966 128.314 120.279 131 116.966 131H6C2.68629 131 0 128.314 0 125V6Z" fill="#F0F0F0"/>
<rect x="9" y="10.5" width="14" height="3" stroke="#7B61FF" stroke-width="2"/>
<rect x="43" y="10.5" width="14" height="3" stroke="#7B61FF" stroke-width="2"/>
<rect x="77" y="10.5" width="14" height="3" stroke="#7B61FF" stroke-width="2"/>
<rect x="5" y="5.5" width="90" height="13" stroke="#7B61FF" stroke-width="2"/>
<rect x="9" y="28.5" width="36" height="65" stroke="#7B61FF" stroke-width="2"/>
<rect x="55" y="28.5" width="36" height="65" stroke="#7B61FF" stroke-width="2"/>
<rect x="5" y="24.5" width="90" height="73" stroke="#7B61FF" stroke-width="2"/>
<rect x="9" y="107.5" width="61" height="4" stroke="#7B61FF" stroke-width="2"/>
<rect x="9" y="117.5" width="61" height="4" stroke="#7B61FF" stroke-width="2"/>
<rect x="77" y="107.5" width="14" height="14" stroke="#7B61FF" stroke-width="2"/>
<rect x="5" y="103.5" width="90" height="22" stroke="#7B61FF" stroke-width="2"/>
<path fill-rule="evenodd" clip-rule="evenodd" d="M104.5 9.50003L104.963 9.96331L107.537 12.5368L108 13L108.463 12.5368L111.037 9.96331L111.5 9.50003L111.037 9.03675L108.463 6.46331L108 6.00003L107.537 6.46331L104.963 9.03675L104.5 9.50003ZM110.573 9.50003L108 12.0735L105.427 9.50003L108 6.92658L110.573 9.50003ZM104.5 18.5001L104.963 18.9634L107.537 21.5368L108 22.0001L108.463 21.5368L111.037 18.9634L111.5 18.5001L111.037 18.0368L108.463 15.4634L108 15.0001L107.537 15.4634L104.963 18.0368L104.5 18.5001ZM110.573 18.5001L108 21.0735L105.427 18.5001L108 15.9266L110.573 18.5001ZM100.463 14.4634L100 14.0001L100.463 13.5368L103.037 10.9634L103.5 10.5001L103.963 10.9634L106.537 13.5368L107 14.0001L106.537 14.4634L103.963 17.0368L103.5 17.5001L103.037 17.0368L100.463 14.4634ZM103.5 16.5735L106.073 14.0001L103.5 11.4266L100.927 14.0001L103.5 16.5735ZM109 14.0001L109.463 14.4634L112.037 17.0368L112.5 17.5001L112.963 17.0368L115.537 14.4634L116 14.0001L115.537 13.5368L112.963 10.9634L112.5 10.5001L112.037 10.9634L109.463 13.5368L109 14.0001ZM115.073 14.0001L112.5 16.5735L109.927 14.0001L112.5 11.4266L115.073 14.0001Z" fill="black" fill-opacity="0.8"/>
<path fill-rule="evenodd" clip-rule="evenodd" d="M104.5 60.5001L104.963 60.9633L107.537 63.5368L108 64.0001L108.463 63.5368L111.037 60.9633L111.5 60.5001L111.037 60.0368L108.463 57.4633L108 57.0001L107.537 57.4633L104.963 60.0368L104.5 60.5001ZM110.573 60.5001L108 63.0735L105.427 60.5001L108 57.9266L110.573 60.5001ZM104.5 69.5001L104.963 69.9634L107.537 72.5368L108 73.0001L108.463 72.5368L111.037 69.9634L111.5 69.5001L111.037 69.0368L108.463 66.4634L108 66.0001L107.537 66.4634L104.963 69.0368L104.5 69.5001ZM110.573 69.5001L108 72.0736L105.427 69.5001L108 66.9267L110.573 69.5001ZM100.463 65.4634L100 65.0001L100.463 64.5368L103.037 61.9634L103.5 61.5001L103.963 61.9634L106.537 64.5368L107 65.0001L106.537 65.4634L103.963 68.0368L103.5 68.5001L103.037 68.0368L100.463 65.4634ZM103.5 67.5736L106.073 65.0001L103.5 62.4267L100.927 65.0001L103.5 67.5736ZM109 65.0001L109.463 65.4634L112.037 68.0368L112.5 68.5001L112.963 68.0368L115.537 65.4634L116 65.0001L115.537 64.5368L112.963 61.9634L112.5 61.5001L112.037 61.9634L109.463 64.5368L109 65.0001ZM115.073 65.0001L112.5 67.5736L109.927 65.0001L112.5 62.4267L115.073 65.0001Z" fill="black" fill-opacity="0.8"/>
<path fill-rule="evenodd" clip-rule="evenodd" d="M104.5 112.5L104.963 112.963L107.537 115.537L108 116L108.463 115.537L111.037 112.963L111.5 112.5L111.037 112.037L108.463 109.463L108 109L107.537 109.463L104.963 112.037L104.5 112.5ZM110.573 112.5L108 115.073L105.427 112.5L108 109.927L110.573 112.5ZM104.5 121.5L104.963 121.963L107.537 124.537L108 125L108.463 124.537L111.037 121.963L111.5 121.5L111.037 121.037L108.463 118.463L108 118L107.537 118.463L104.963 121.037L104.5 121.5ZM110.573 121.5L108 124.074L105.427 121.5L108 118.927L110.573 121.5ZM100.463 117.463L100 117L100.463 116.537L103.037 113.963L103.5 113.5L103.963 113.963L106.537 116.537L107 117L106.537 117.463L103.963 120.037L103.5 120.5L103.037 120.037L100.463 117.463ZM103.5 119.574L106.073 117L103.5 114.427L100.927 117L103.5 119.574ZM109 117L109.463 117.463L112.037 120.037L112.5 120.5L112.963 120.037L115.537 117.463L116 117L115.537 116.537L112.963 113.963L112.5 113.5L112.037 113.963L109.463 116.537L109 117ZM115.073 117L112.5 119.574L109.927 117L112.5 114.427L115.073 117Z" fill="black" fill-opacity="0.8"/>
</svg>
