<svg width="54" height="54" viewBox="0 0 54 54" fill="none" xmlns="http://www.w3.org/2000/svg">
<path d="M7.44446 51V36.5863H11.964V32.6296H18.2217V36.5863H22.7412V32.6296H28.999V36.5863H33.5185V51H7.44446Z" fill="#7B61FF"/>
<path d="M11.964 36.5863H7.44446V51H33.5185V36.5863H28.999M11.964 36.5863V32.6296H18.2217V36.5863M11.964 36.5863H18.2217M18.2217 36.5863H22.7412M22.7412 36.5863V32.6296H28.999V36.5863M22.7412 36.5863H28.999M22.7412 48.9259H31.4445V47.1481" stroke="black" stroke-width="0.765292"/>
<path d="M20.4815 36.1852V21.7715H25.001V17.8148H31.2588V21.7715H35.7783V17.8148H42.0361V21.7715H46.5556V36.1852H20.4815Z" fill="#1BC47D"/>
<path d="M25.001 21.7715H20.4815V36.1852H46.5556V21.7715H42.0361M25.001 21.7715V17.8148H31.2588V21.7715M25.001 21.7715H31.2588M31.2588 21.7715H35.7783M35.7783 21.7715V17.8148H42.0361V21.7715M35.7783 21.7715H42.0361M44.1852 27.5926V33.5185H42.0361" stroke="black" stroke-width="0.765292"/>
<path d="M7.44446 21.3704V6.9567H11.964V3H18.2217V6.9567H22.7412V3H28.999V6.9567H33.5185V21.3704H7.44446Z" fill="#F531B3"/>
<path d="M11.964 6.9567H7.44446V21.3704H33.5185V6.9567H28.999M11.964 6.9567V3H18.2217V6.9567M11.964 6.9567H18.2217M18.2217 6.9567H22.7412M22.7412 6.9567V3H28.999V6.9567M22.7412 6.9567H28.999M9.51853 15.4444V9.81481H14.5556" stroke="black" stroke-width="0.765292"/>
</svg>
