<svg width="83" height="55" viewBox="0 0 83 55" fill="none" xmlns="http://www.w3.org/2000/svg">
<g filter="url(#filter0_d)">
<rect width="52" height="18" transform="translate(27 32)" fill="#1BC47D"/>
<path d="M35.0908 37V42.6719C35.0869 43.5938 34.6572 44.0859 33.8915 44.0859C33.1845 44.0859 32.6923 43.6641 32.6884 43H31.4892C31.4892 44.3516 32.5048 45.1094 33.8603 45.1094C35.329 45.1094 36.29 44.2109 36.2939 42.6719V37H35.0908ZM40.6529 45.1211C41.9615 45.1211 42.8873 44.4766 43.1529 43.5L42.0474 43.3008C41.8365 43.8672 41.3287 44.1562 40.6646 44.1562C39.6646 44.1562 38.9928 43.5078 38.9615 42.3516H43.2271V41.9375C43.2271 39.7695 41.9303 38.9219 40.5709 38.9219C38.899 38.9219 37.7974 40.1953 37.7974 42.0391C37.7974 43.9023 38.8834 45.1211 40.6529 45.1211ZM38.9654 41.4766C39.0123 40.625 39.6295 39.8867 40.5787 39.8867C41.4849 39.8867 42.0787 40.5586 42.0826 41.4766H38.9654ZM45.801 41.4375C45.801 40.4805 46.3869 39.9336 47.1994 39.9336C47.9924 39.9336 48.4729 40.4531 48.4729 41.3242V45H49.6408V41.1836C49.6408 39.6992 48.8244 38.9219 47.5979 38.9219C46.6955 38.9219 46.1057 39.3398 45.8283 39.9766H45.7541V39H44.633V45H45.801V41.4375ZM52.4852 41.4375C52.4852 40.4805 53.0712 39.9336 53.8837 39.9336C54.6766 39.9336 55.1571 40.4531 55.1571 41.3242V45H56.3251V41.1836C56.3251 39.6992 55.5087 38.9219 54.2821 38.9219C53.3797 38.9219 52.7899 39.3398 52.5126 39.9766H52.4383V39H51.3172V45H52.4852V41.4375ZM58.0015 45H59.1694V39H58.0015V45ZM58.5913 38.0742C58.9937 38.0742 59.3296 37.7617 59.3296 37.3789C59.3296 36.9961 58.9937 36.6797 58.5913 36.6797C58.1851 36.6797 57.853 36.9961 57.853 37.3789C57.853 37.7617 58.1851 38.0742 58.5913 38.0742ZM63.7062 39H62.4132V38.4609C62.4132 37.9297 62.632 37.6406 63.2023 37.6406C63.4445 37.6406 63.6163 37.6953 63.7257 37.7305L63.9992 36.7852C63.8351 36.7227 63.4953 36.625 63.0226 36.625C62.0734 36.625 61.2413 37.1797 61.2413 38.3047V39H60.3156V39.9375H61.2413V45H62.4132V39.9375H63.7062V39ZM67.3709 45.1211C68.6795 45.1211 69.6053 44.4766 69.8709 43.5L68.7654 43.3008C68.5545 43.8672 68.0467 44.1562 67.3826 44.1562C66.3826 44.1562 65.7107 43.5078 65.6795 42.3516H69.9451V41.9375C69.9451 39.7695 68.6482 38.9219 67.2888 38.9219C65.617 38.9219 64.5154 40.1953 64.5154 42.0391C64.5154 43.9023 65.6013 45.1211 67.3709 45.1211ZM65.6834 41.4766C65.7303 40.625 66.3474 39.8867 67.2967 39.8867C68.2029 39.8867 68.7967 40.5586 68.8006 41.4766H65.6834ZM71.351 45H72.519V41.3359C72.519 40.5508 73.1244 39.9844 73.9526 39.9844C74.1947 39.9844 74.4682 40.0273 74.5619 40.0547V38.9375C74.4447 38.9219 74.2143 38.9102 74.0658 38.9102C73.3627 38.9102 72.7612 39.3086 72.5424 39.9531H72.4799V39H71.351V45Z" fill="white"/>
</g>
<g filter="url(#filter1_d)">
<path d="M18.5 29L16 16L27 22.5L21.5 24L18.5 29Z" fill="#1BC47D"/>
<path d="M16.2544 15.5695L15.2996 15.0053L15.509 16.0944L18.009 29.0944L18.2559 30.3786L18.9287 29.2572L21.8254 24.4295L27.1316 22.9824L28.2726 22.6712L27.2544 22.0695L16.2544 15.5695Z" stroke="white" stroke-linecap="square"/>
</g>
<defs>
<filter id="filter0_d" x="23" y="29" width="60" height="26" filterUnits="userSpaceOnUse" color-interpolation-filters="sRGB">
<feFlood flood-opacity="0" result="BackgroundImageFix"/>
<feColorMatrix in="SourceAlpha" type="matrix" values="0 0 0 0 0 0 0 0 0 0 0 0 0 0 0 0 0 0 127 0" result="hardAlpha"/>
<feOffset dy="1"/>
<feGaussianBlur stdDeviation="2"/>
<feColorMatrix type="matrix" values="0 0 0 0 0 0 0 0 0 0 0 0 0 0 0 0 0 0 0.16 0"/>
<feBlend mode="normal" in2="BackgroundImageFix" result="effect1_dropShadow"/>
<feBlend mode="normal" in="SourceGraphic" in2="effect1_dropShadow" result="shape"/>
</filter>
<filter id="filter1_d" x="11.5991" y="12.0107" width="20.946" height="23.7463" filterUnits="userSpaceOnUse" color-interpolation-filters="sRGB">
<feFlood flood-opacity="0" result="BackgroundImageFix"/>
<feColorMatrix in="SourceAlpha" type="matrix" values="0 0 0 0 0 0 0 0 0 0 0 0 0 0 0 0 0 0 127 0" result="hardAlpha"/>
<feOffset dy="1"/>
<feGaussianBlur stdDeviation="1.5"/>
<feColorMatrix type="matrix" values="0 0 0 0 0 0 0 0 0 0 0 0 0 0 0 0 0 0 0.35 0"/>
<feBlend mode="normal" in2="BackgroundImageFix" result="effect1_dropShadow"/>
<feBlend mode="normal" in="SourceGraphic" in2="effect1_dropShadow" result="shape"/>
</filter>
</defs>
</svg>
