<svg width="81" height="55" viewBox="0 0 81 55" fill="none" xmlns="http://www.w3.org/2000/svg">
<g filter="url(#filter0_d)">
<rect width="50" height="18" transform="translate(27 32)" fill="#907CFF"/>
<path d="M31.9255 45H33.0935V41.3008C33.0935 40.4922 33.6599 39.9297 34.324 39.9297C34.9724 39.9297 35.4216 40.3594 35.4216 41.0117V45H36.5857V41.1758C36.5857 40.4531 37.0271 39.9297 37.7888 39.9297C38.406 39.9297 38.9138 40.2734 38.9138 41.0859V45H40.0818V40.9766C40.0818 39.6055 39.3162 38.9219 38.2302 38.9219C37.367 38.9219 36.7185 39.3359 36.4295 39.9766H36.367C36.1052 39.3203 35.5545 38.9219 34.7537 38.9219C33.9607 38.9219 33.3709 39.3164 33.1209 39.9766H33.0466V39H31.9255V45ZM44.3432 45.1211C45.6518 45.1211 46.5775 44.4766 46.8432 43.5L45.7377 43.3008C45.5268 43.8672 45.0189 44.1562 44.3549 44.1562C43.3549 44.1562 42.683 43.5078 42.6518 42.3516H46.9174V41.9375C46.9174 39.7695 45.6205 38.9219 44.2611 38.9219C42.5893 38.9219 41.4877 40.1953 41.4877 42.0391C41.4877 43.9023 42.5736 45.1211 44.3432 45.1211ZM42.6557 41.4766C42.7025 40.625 43.3197 39.8867 44.2689 39.8867C45.1752 39.8867 45.7689 40.5586 45.7729 41.4766H42.6557ZM49.4912 37H48.3233V45H49.4912V37ZM52.9186 45.1328C53.9108 45.1328 54.4694 44.6289 54.6921 44.1797H54.7389V45H55.8796V41.0156C55.8796 39.2695 54.5046 38.9219 53.5514 38.9219C52.4655 38.9219 51.4655 39.3594 51.0749 40.4531L52.1725 40.7031C52.3444 40.2773 52.7819 39.8672 53.5671 39.8672C54.321 39.8672 54.7077 40.2617 54.7077 40.9414V40.9687C54.7077 41.3945 54.2702 41.3867 53.1921 41.5117C52.0554 41.6445 50.8913 41.9414 50.8913 43.3047C50.8913 44.4844 51.778 45.1328 52.9186 45.1328ZM53.1725 44.1953C52.5124 44.1953 52.0358 43.8984 52.0358 43.3203C52.0358 42.6953 52.5905 42.4727 53.2663 42.3828C53.6452 42.332 54.5436 42.2305 54.7116 42.0625V42.8359C54.7116 43.5469 54.1452 44.1953 53.1725 44.1953ZM58.7132 41.4375C58.7132 40.4805 59.2991 39.9336 60.1116 39.9336C60.9046 39.9336 61.3851 40.4531 61.3851 41.3242V45H62.553V41.1836C62.553 39.6992 61.7366 38.9219 60.5101 38.9219C59.6077 38.9219 59.0179 39.3398 58.7405 39.9766H58.6663V39H57.5452V45H58.7132V41.4375ZM64.2295 45H65.3974V39H64.2295V45ZM64.8193 38.0742C65.2216 38.0742 65.5576 37.7617 65.5576 37.3789C65.5576 36.9961 65.2216 36.6797 64.8193 36.6797C64.413 36.6797 64.081 36.9961 64.081 37.3789C64.081 37.7617 64.413 38.0742 64.8193 38.0742ZM69.6646 45.1211C70.9732 45.1211 71.899 44.4766 72.1647 43.5L71.0592 43.3008C70.8482 43.8672 70.3404 44.1562 69.6764 44.1562C68.6764 44.1562 68.0045 43.5078 67.9732 42.3516H72.2389V41.9375C72.2389 39.7695 70.942 38.9219 69.5826 38.9219C67.9107 38.9219 66.8092 40.1953 66.8092 42.0391C66.8092 43.9023 67.8951 45.1211 69.6646 45.1211ZM67.9772 41.4766C68.024 40.625 68.6412 39.8867 69.5904 39.8867C70.4967 39.8867 71.0904 40.5586 71.0943 41.4766H67.9772Z" fill="white"/>
</g>
<g filter="url(#filter1_d)">
<path d="M18.5 29L16 16L27 22.5L21.5 24L18.5 29Z" fill="#907CFF"/>
<path d="M16.2544 15.5695L15.2996 15.0053L15.509 16.0944L18.009 29.0944L18.2559 30.3786L18.9287 29.2572L21.8254 24.4295L27.1316 22.9824L28.2726 22.6712L27.2544 22.0695L16.2544 15.5695Z" stroke="white" stroke-linecap="square"/>
</g>
<defs>
<filter id="filter0_d" x="23" y="29" width="58" height="26" filterUnits="userSpaceOnUse" color-interpolation-filters="sRGB">
<feFlood flood-opacity="0" result="BackgroundImageFix"/>
<feColorMatrix in="SourceAlpha" type="matrix" values="0 0 0 0 0 0 0 0 0 0 0 0 0 0 0 0 0 0 127 0" result="hardAlpha"/>
<feOffset dy="1"/>
<feGaussianBlur stdDeviation="2"/>
<feColorMatrix type="matrix" values="0 0 0 0 0 0 0 0 0 0 0 0 0 0 0 0 0 0 0.16 0"/>
<feBlend mode="normal" in2="BackgroundImageFix" result="effect1_dropShadow"/>
<feBlend mode="normal" in="SourceGraphic" in2="effect1_dropShadow" result="shape"/>
</filter>
<filter id="filter1_d" x="11.5991" y="12.0107" width="20.946" height="23.7463" filterUnits="userSpaceOnUse" color-interpolation-filters="sRGB">
<feFlood flood-opacity="0" result="BackgroundImageFix"/>
<feColorMatrix in="SourceAlpha" type="matrix" values="0 0 0 0 0 0 0 0 0 0 0 0 0 0 0 0 0 0 127 0" result="hardAlpha"/>
<feOffset dy="1"/>
<feGaussianBlur stdDeviation="1.5"/>
<feColorMatrix type="matrix" values="0 0 0 0 0 0 0 0 0 0 0 0 0 0 0 0 0 0 0.35 0"/>
<feBlend mode="normal" in2="BackgroundImageFix" result="effect1_dropShadow"/>
<feBlend mode="normal" in="SourceGraphic" in2="effect1_dropShadow" result="shape"/>
</filter>
</defs>
</svg>
