<svg width="212" height="885" viewBox="0 0 212 885" fill="none" xmlns="http://www.w3.org/2000/svg">
<rect width="212" height="885" fill="white"/>
<circle cx="186.776" cy="857.074" r="16.2151" fill="#2B2B2B"/>
<path d="M186.137 860.274C186.126 859.648 186.165 859.079 186.253 858.567C186.353 858.055 186.618 857.566 187.049 857.1C187.292 856.838 187.546 856.582 187.811 856.332C188.076 856.081 188.319 855.831 188.54 855.581C188.761 855.319 188.943 855.052 189.087 854.779C189.242 854.506 189.319 854.21 189.319 853.891C189.319 853.584 189.258 853.3 189.137 853.038C189.026 852.765 188.861 852.532 188.64 852.338C188.419 852.133 188.148 851.974 187.828 851.86C187.507 851.747 187.143 851.69 186.734 851.69C186.325 851.69 185.96 851.764 185.64 851.911C185.319 852.059 185.049 852.264 184.828 852.526C184.618 852.788 184.458 853.095 184.347 853.447C184.237 853.789 184.187 854.164 184.198 854.574H183.187C183.143 854.005 183.204 853.487 183.369 853.021C183.535 852.554 183.778 852.156 184.099 851.826C184.43 851.485 184.822 851.223 185.275 851.041C185.728 850.859 186.225 850.768 186.767 850.768C187.33 850.768 187.833 850.848 188.275 851.007C188.728 851.155 189.109 851.371 189.419 851.655C189.728 851.929 189.965 852.264 190.131 852.662C190.297 853.061 190.38 853.499 190.38 853.976C190.38 854.477 190.269 854.909 190.048 855.273C189.838 855.626 189.579 855.956 189.269 856.263C188.96 856.57 188.64 856.883 188.308 857.202C187.977 857.509 187.689 857.856 187.446 858.243C187.259 858.539 187.154 858.869 187.131 859.233C187.109 859.585 187.098 859.932 187.098 860.274H186.137ZM186.038 863.38V862.479H187.131V863.38H186.038Z" fill="white"/>
<path d="M15.0397 645.164H19.9098V643.908H16.5634V642.187H19.6459V640.931H16.5634V639.214H19.8958V637.957H15.0397V645.164ZM22.3317 639.759H20.7834L22.3317 642.462L20.7271 645.164H22.2754L23.3241 643.296L24.3903 645.164H25.921L24.3129 642.462L25.8788 639.759H24.341L23.3241 641.649L22.3317 639.759ZM26.769 647.191H28.2681V644.298H28.3138C28.5215 644.749 28.9754 645.252 29.8481 645.252C31.0797 645.252 32.0404 644.277 32.0404 642.469C32.0404 640.611 31.0375 639.689 29.8516 639.689C28.9472 639.689 28.5144 640.227 28.3138 640.667H28.247V639.759H26.769V647.191ZM28.2364 642.462C28.2364 641.497 28.6446 640.882 29.373 640.882C30.1155 640.882 30.5096 641.526 30.5096 642.462C30.5096 643.405 30.1085 644.059 29.373 644.059C28.6517 644.059 28.2364 643.426 28.2364 642.462ZM35.4818 645.27C37.1216 645.27 38.1421 644.147 38.1421 642.483C38.1421 640.808 37.1216 639.689 35.4818 639.689C33.842 639.689 32.8215 640.808 32.8215 642.483C32.8215 644.147 33.842 645.27 35.4818 645.27ZM35.4889 644.108C34.7323 644.108 34.3452 643.415 34.3452 642.472C34.3452 641.529 34.7323 640.832 35.4889 640.832C36.2314 640.832 36.6184 641.529 36.6184 642.472C36.6184 643.415 36.2314 644.108 35.4889 644.108ZM39.1169 645.164H40.6159V642.106C40.6159 641.441 41.1015 640.984 41.7631 640.984C41.9707 640.984 42.2557 641.019 42.3965 641.065V639.734C42.2627 639.703 42.0762 639.682 41.9249 639.682C41.3197 639.682 40.8235 640.034 40.6265 640.702H40.5702V639.759H39.1169V645.164ZM46.3174 639.759H45.3004V638.464H43.8014V639.759H43.0624V640.885H43.8014V643.7C43.7943 644.759 44.5157 645.284 45.6031 645.238C45.9901 645.224 46.2646 645.146 46.4159 645.097L46.1802 643.982C46.1063 643.996 45.9479 644.031 45.8072 644.031C45.508 644.031 45.3004 643.918 45.3004 643.503V640.885H46.3174V639.759Z" fill="#B6B6B6"/>
<path d="M191.878 636.515V641.47M191.878 646.424V641.47M191.878 641.47H196.833H186.924" stroke="#B6B6B6" stroke-width="0.900837"/>
<line y1="619.325" x2="215.3" y2="619.325" stroke="#E5E5E5" stroke-width="0.900837"/>
<path d="M15.0397 601.924H19.9098V600.668H16.5634V598.947H19.6459V597.691H16.5634V595.973H19.8958V594.717H15.0397V601.924ZM23.9856 596.519H22.9123V596.156C22.9123 595.79 23.0601 595.576 23.5 595.576C23.6795 595.576 23.8624 595.614 23.9821 595.653L24.246 594.527C24.0595 594.471 23.6478 594.379 23.1868 594.379C22.1699 594.379 21.4133 594.953 21.4133 596.128V596.519H20.6497V597.645H21.4133V601.924H22.9123V597.645H23.9856V596.519ZM27.808 596.519H26.7347V596.156C26.7347 595.79 26.8825 595.576 27.3224 595.576C27.5019 595.576 27.6848 595.614 27.8045 595.653L28.0684 594.527C27.8819 594.471 27.4702 594.379 27.0092 594.379C25.9923 594.379 25.2357 594.953 25.2357 596.128V596.519H24.4721V597.645H25.2357V601.924H26.7347V597.645H27.808V596.519ZM30.9935 602.029C32.3307 602.029 33.2315 601.378 33.4426 600.376L32.0562 600.284C31.9049 600.696 31.5178 600.91 31.0181 600.91C30.2686 600.91 29.7935 600.414 29.7935 599.608V599.605H33.4743V599.193C33.4743 597.356 32.3623 596.448 30.9337 596.448C29.3431 596.448 28.3121 597.578 28.3121 599.246C28.3121 600.96 29.329 602.029 30.9935 602.029ZM29.7935 598.676C29.8252 598.06 30.2932 597.567 30.9583 597.567C31.6093 597.567 32.0597 598.032 32.0632 598.676H29.7935ZM36.8947 602.029C38.3339 602.029 39.2383 601.185 39.3086 599.943H37.894C37.8061 600.52 37.426 600.844 36.9123 600.844C36.212 600.844 35.7581 600.256 35.7581 599.221C35.7581 598.201 36.2155 597.617 36.9123 597.617C37.4612 597.617 37.8131 597.979 37.894 598.518H39.3086C39.2453 597.268 38.2987 596.448 36.8876 596.448C35.2478 596.448 34.2344 597.585 34.2344 599.242C34.2344 600.886 35.2302 602.029 36.8947 602.029ZM43.1433 596.519H42.1264V595.224H40.6273V596.519H39.8884V597.645H40.6273V600.46C40.6203 601.519 41.3417 602.043 42.429 601.998C42.8161 601.984 43.0906 601.906 43.2419 601.857L43.0061 600.741C42.9322 600.756 42.7739 600.791 42.6331 600.791C42.334 600.791 42.1264 600.678 42.1264 600.263V597.645H43.1433V596.519ZM48.5396 598.06C48.4059 597.064 47.6035 596.448 46.2382 596.448C44.8553 596.448 43.9439 597.089 43.9474 598.13C43.9439 598.94 44.4541 599.464 45.5098 599.675L46.4458 599.862C46.9174 599.957 47.132 600.129 47.1391 600.4C47.132 600.72 46.7836 600.949 46.2593 600.949C45.7245 600.949 45.369 600.72 45.2776 600.281L43.8031 600.358C43.9439 601.392 44.8236 602.029 46.2558 602.029C47.6563 602.029 48.6592 601.315 48.6627 600.249C48.6592 599.468 48.149 599 47.1003 598.785L46.1221 598.588C45.6189 598.479 45.4324 598.306 45.4359 598.046C45.4324 597.722 45.7984 597.511 46.2628 597.511C46.7836 597.511 47.0933 597.796 47.1672 598.145L48.5396 598.06Z" fill="#B6B6B6"/>
<path d="M191.878 594.176V599.131M191.878 604.085V599.131M191.878 599.131H196.833H186.924" stroke="#B6B6B6" stroke-width="0.900837"/>
<line y1="576.085" x2="215.3" y2="576.085" stroke="#E5E5E5" stroke-width="0.900837"/>
<path d="M18.1398 494.83H19.396C19.3714 493.612 18.3333 492.75 16.7991 492.75C15.286 492.75 14.1494 493.602 14.1529 494.876C14.1529 495.91 14.8883 496.505 16.0742 496.811L16.8941 497.022C17.6718 497.219 18.1855 497.462 18.1891 498.021C18.1855 498.637 17.6014 499.049 16.7498 499.049C15.9335 499.049 15.3 498.683 15.2473 497.926H13.9629C14.0157 499.359 15.0819 500.165 16.7604 500.165C18.4882 500.165 19.4911 499.302 19.4946 498.032C19.4911 496.783 18.46 496.213 17.3762 495.956L16.7006 495.787C16.1094 495.646 15.469 495.396 15.476 494.795C15.4795 494.253 15.9651 493.855 16.7815 493.855C17.5592 493.855 18.0729 494.218 18.1398 494.83ZM23.3011 494.65H22.2349V493.355H20.9611V494.65H20.194V495.636H20.9611V498.641C20.954 499.658 21.693 500.157 22.6501 500.129C23.0126 500.119 23.2624 500.048 23.3997 500.003L23.185 499.007C23.1146 499.024 22.9704 499.056 22.812 499.056C22.4918 499.056 22.2349 498.943 22.2349 498.43V495.636H23.3011V494.65ZM24.3665 500.055H25.6403V496.878C25.6403 496.192 26.1576 495.706 26.8579 495.706C27.0725 495.706 27.3399 495.745 27.449 495.78V494.608C27.3329 494.587 27.1323 494.573 26.9916 494.573C26.3723 494.573 25.855 494.925 25.6579 495.551H25.6016V494.65H24.3665V500.055ZM30.4304 500.161C32.0139 500.161 33.0203 499.045 33.0203 497.374C33.0203 495.699 32.0139 494.58 30.4304 494.58C28.8469 494.58 27.8405 495.699 27.8405 497.374C27.8405 499.045 28.8469 500.161 30.4304 500.161ZM30.4375 499.141C29.5613 499.141 29.1319 498.359 29.1319 497.371C29.1319 496.382 29.5613 495.59 30.4375 495.59C31.2996 495.59 31.7289 496.382 31.7289 497.371C31.7289 498.359 31.2996 499.141 30.4375 499.141ZM34.1015 500.055H35.3753V498.24L35.8398 497.744L37.4937 500.055H39.0174L36.8005 496.983L38.8942 494.65H37.4057L35.4633 496.822H35.3753V492.849H34.1015V500.055ZM41.9135 500.161C43.1732 500.161 44.0389 499.545 44.2641 498.606L43.0747 498.472C42.9023 498.929 42.48 499.169 41.931 499.169C41.1076 499.169 40.5622 498.627 40.5516 497.701H44.3169V497.311C44.3169 495.414 43.1767 494.58 41.8466 494.58C40.2983 494.58 39.2884 495.717 39.2884 497.385C39.2884 499.081 40.2842 500.161 41.9135 500.161ZM40.5552 496.843C40.5939 496.153 41.1041 495.572 41.8642 495.572C42.5961 495.572 43.0888 496.107 43.0958 496.843H40.5552Z" fill="#2C2C2C"/>
<path d="M104.321 519.874H103.262L101.464 521.049V522.091L103.188 520.965H103.23V527.081H104.321V519.874ZM108.78 527.2C110.444 527.2 111.419 525.842 111.419 523.481C111.419 521.137 110.43 519.775 108.78 519.775C107.126 519.775 106.14 521.134 106.137 523.481C106.137 525.838 107.112 527.197 108.78 527.2ZM108.78 526.261C107.805 526.261 107.217 525.282 107.217 523.481C107.221 521.686 107.808 520.697 108.78 520.697C109.747 520.697 110.339 521.686 110.339 523.481C110.339 525.282 109.751 526.261 108.78 526.261ZM115.176 527.2C116.841 527.2 117.815 525.842 117.815 523.481C117.815 521.137 116.826 519.775 115.176 519.775C113.522 519.775 112.537 521.134 112.533 523.481C112.533 525.838 113.508 527.197 115.176 527.2ZM115.176 526.261C114.201 526.261 113.614 525.282 113.614 523.481C113.617 521.686 114.205 520.697 115.176 520.697C116.144 520.697 116.735 521.686 116.735 523.481C116.735 525.282 116.147 526.261 115.176 526.261ZM122.825 525.729C122.829 526.542 123.339 527.228 124.293 527.228C125.236 527.228 125.753 526.542 125.753 525.729V525.349C125.753 524.533 125.25 523.85 124.293 523.85C123.353 523.85 122.829 524.536 122.825 525.349V525.729ZM119.201 521.605C119.201 522.418 119.715 523.104 120.668 523.104C121.608 523.104 122.129 522.422 122.125 521.605V521.225C122.129 520.409 121.622 519.726 120.668 519.726C119.732 519.726 119.201 520.409 119.201 521.225V521.605ZM119.496 527.081H120.337L125.292 519.874H124.451L119.496 527.081ZM123.645 525.349C123.649 524.945 123.825 524.554 124.293 524.554C124.778 524.554 124.93 524.945 124.93 525.349V525.729C124.93 526.134 124.764 526.525 124.293 526.525C123.814 526.525 123.649 526.13 123.645 525.729V525.349ZM120.024 521.225C120.024 520.824 120.2 520.43 120.668 520.43C121.154 520.43 121.305 520.82 121.305 521.225V521.605C121.305 522.01 121.14 522.4 120.668 522.4C120.19 522.4 120.024 522.01 120.024 521.605V521.225Z" fill="black"/>
<path d="M36.8252 527.081H41.3857V526.145H37.9125V523.938H41.1077V523.006H37.9125V520.81H41.3435V519.874H36.8252V527.081ZM45.0761 527.179C46.5259 527.179 47.5605 526.155 47.5569 524.751C47.5605 523.358 46.5893 522.344 45.2767 522.344C44.7418 522.344 44.2457 522.548 43.9642 522.823H43.9219L44.1507 520.806H47.2086V519.874H43.2463L42.8416 523.505L43.8375 523.653C44.1084 523.41 44.594 523.245 45.0304 523.245C45.8855 523.252 46.5048 523.892 46.5048 524.772C46.5048 525.638 45.9031 526.264 45.0761 526.264C44.3794 526.264 43.8269 525.821 43.7706 525.201H42.7149C42.7572 526.349 43.753 527.179 45.0761 527.179ZM48.9408 527.081H53.5012V526.145H50.0281V523.938H53.2232V523.006H50.0281V520.81H53.459V519.874H48.9408V527.081ZM57.1917 527.179C58.6415 527.179 59.676 526.155 59.6725 524.751C59.676 523.358 58.7048 522.344 57.3923 522.344C56.8574 522.344 56.3612 522.548 56.0797 522.823H56.0375L56.2662 520.806H59.3241V519.874H55.3619L54.9572 523.505L55.953 523.653C56.224 523.41 56.7096 523.245 57.1459 523.245C58.001 523.252 58.6204 523.892 58.6204 524.772C58.6204 525.638 58.0186 526.264 57.1917 526.264C56.4949 526.264 55.9425 525.821 55.8862 525.201H54.8305C54.8727 526.349 55.8686 527.179 57.1917 527.179ZM61.0563 527.081H65.6168V526.145H62.1436V523.938H65.3388V523.006H62.1436V520.81H65.5746V519.874H61.0563V527.081ZM69.3072 527.179C70.757 527.179 71.7916 526.155 71.7881 524.751C71.7916 523.358 70.8204 522.344 69.5078 522.344C68.9729 522.344 68.4768 522.548 68.1953 522.823H68.153L68.3818 520.806H71.4397V519.874H67.4774L67.0727 523.505L68.0686 523.653C68.3395 523.41 68.8251 523.245 69.2615 523.245C70.1166 523.252 70.7359 523.892 70.7359 524.772C70.7359 525.638 70.1342 526.264 69.3072 526.264C68.6105 526.264 68.058 525.821 68.0017 525.201H66.9461C66.9883 526.349 67.9841 527.179 69.3072 527.179Z" fill="#2C2C2C"/>
<rect x="14.4133" y="516.18" width="14.4134" height="14.4134" rx="0.900837" fill="#E5E5E5"/>
<path d="M165.407 525.188C166.402 525.188 167.208 524.381 167.208 523.386C167.208 522.391 166.402 521.585 165.407 521.585C164.412 521.585 163.605 522.391 163.605 523.386C163.605 524.381 164.412 525.188 165.407 525.188Z" fill="#2C2C2C"/>
<path fill-rule="evenodd" clip-rule="evenodd" d="M171.178 523.124C171.178 523.124 171.178 523.125 170.812 523.386C171.178 523.648 171.178 523.648 171.178 523.648L171.177 523.65L171.175 523.652L171.169 523.661L171.146 523.691C171.127 523.717 171.099 523.754 171.063 523.8C170.991 523.892 170.885 524.022 170.749 524.177C170.476 524.486 170.079 524.898 169.578 525.31C168.584 526.129 167.133 526.99 165.407 526.99C163.681 526.99 162.23 526.129 161.236 525.31C160.734 524.898 160.337 524.486 160.065 524.177C159.929 524.022 159.823 523.892 159.751 523.8C159.714 523.754 159.686 523.717 159.667 523.691L159.645 523.661L159.638 523.652L159.636 523.65L159.636 523.649C159.636 523.649 159.635 523.648 160.002 523.386C159.635 523.125 159.635 523.124 159.635 523.124L159.636 523.123L159.638 523.12L159.645 523.112L159.667 523.081C159.686 523.055 159.714 523.019 159.751 522.973C159.823 522.88 159.929 522.751 160.065 522.596C160.337 522.287 160.734 521.875 161.236 521.462C162.23 520.643 163.681 519.783 165.407 519.783C167.133 519.783 168.584 520.643 169.578 521.462C170.079 521.875 170.476 522.287 170.749 522.596C170.885 522.751 170.991 522.88 171.063 522.973C171.099 523.019 171.127 523.055 171.146 523.081L171.169 523.112L171.175 523.12L171.177 523.123L171.178 523.124ZM160.741 523.581C160.678 523.509 160.622 523.444 160.574 523.386C160.622 523.329 160.678 523.263 160.741 523.191C160.989 522.909 161.352 522.533 161.808 522.158C162.728 521.4 163.98 520.684 165.407 520.684C166.834 520.684 168.085 521.4 169.005 522.158C169.461 522.533 169.824 522.909 170.073 523.191C170.136 523.263 170.192 523.329 170.239 523.386C170.192 523.444 170.136 523.509 170.073 523.581C169.824 523.863 169.461 524.24 169.005 524.615C168.085 525.373 166.834 526.089 165.407 526.089C163.98 526.089 162.728 525.373 161.808 524.615C161.352 524.24 160.989 523.863 160.741 523.581Z" fill="#2C2C2C"/>
<path d="M170.812 523.386L171.178 523.124L171.365 523.386L171.178 523.648L170.812 523.386Z" fill="#2C2C2C"/>
<path d="M159.635 523.124L160.002 523.386L159.636 523.649L159.448 523.386L159.635 523.124Z" fill="#2C2C2C"/>
<path d="M101.686 549.701V556.907H102.72V551.689H102.787L104.912 556.897H105.771L107.896 551.692H107.963V556.907H108.998V549.701H107.678L105.384 555.303H105.299L103.005 549.701H101.686ZM110.494 556.907H111.546V551.502H110.494V556.907ZM111.026 550.668C111.388 550.668 111.691 550.387 111.691 550.042C111.691 549.697 111.388 549.412 111.026 549.412C110.66 549.412 110.361 549.697 110.361 550.042C110.361 550.387 110.66 550.668 111.026 550.668ZM113.792 551.502H112.638L114.299 554.205L112.617 556.907H113.771L114.985 554.887L116.203 556.907H117.353L115.654 554.205L117.339 551.502H116.189L114.985 553.607L113.792 551.502ZM120.527 557.016C121.705 557.016 122.539 556.436 122.779 555.556L121.783 555.377C121.593 555.887 121.135 556.147 120.537 556.147C119.636 556.147 119.031 555.563 119.003 554.521H122.846V554.148C122.846 552.195 121.677 551.432 120.453 551.432C118.947 551.432 117.954 552.579 117.954 554.24C117.954 555.918 118.933 557.016 120.527 557.016ZM119.006 553.733C119.049 552.966 119.605 552.301 120.46 552.301C121.276 552.301 121.811 552.906 121.815 553.733H119.006ZM126.036 557.013C127.022 557.013 127.409 556.411 127.599 556.066H127.687V556.907H128.714V549.701H127.662V552.378H127.599C127.409 552.044 127.05 551.432 126.043 551.432C124.738 551.432 123.777 552.463 123.777 554.215C123.777 555.964 124.724 557.013 126.036 557.013ZM126.269 556.115C125.329 556.115 124.84 555.289 124.84 554.205C124.84 553.131 125.318 552.326 126.269 552.326C127.187 552.326 127.68 553.075 127.68 554.205C127.68 555.341 127.176 556.115 126.269 556.115Z" fill="#2C2C2C"/>
<path d="M36.8252 549.701V556.907H37.8598V551.689H37.9266L40.052 556.897H40.9106L43.036 551.692H43.1029V556.907H44.1375V549.701H42.8179L40.5236 555.303H40.4391L38.1448 549.701H36.8252ZM45.6339 556.907H46.686V551.502H45.6339V556.907ZM46.1652 550.668C46.5277 550.668 46.8303 550.387 46.8303 550.042C46.8303 549.697 46.5277 549.412 46.1652 549.412C45.7993 549.412 45.5002 549.697 45.5002 550.042C45.5002 550.387 45.7993 550.668 46.1652 550.668ZM48.932 551.502H47.7778L49.4387 554.205L47.7566 556.907H48.9108L50.1249 554.887L51.3424 556.907H52.4931L50.7935 554.205L52.479 551.502H51.3283L50.1249 553.607L48.932 551.502ZM55.6662 557.016C56.8451 557.016 57.6791 556.436 57.9183 555.556L56.9225 555.377C56.7325 555.887 56.275 556.147 55.6768 556.147C54.776 556.147 54.1707 555.563 54.1426 554.521H57.9852V554.148C57.9852 552.195 56.8169 551.432 55.5923 551.432C54.0863 551.432 53.0939 552.579 53.0939 554.24C53.0939 555.918 54.0722 557.016 55.6662 557.016ZM54.1461 553.733C54.1883 552.966 54.7443 552.301 55.5994 552.301C56.4158 552.301 56.9506 552.906 56.9542 553.733H54.1461ZM61.176 557.013C62.1612 557.013 62.5483 556.411 62.7383 556.066H62.8263V556.907H63.8538V549.701H62.8017V552.378H62.7383C62.5483 552.044 62.1894 551.432 61.183 551.432C59.8775 551.432 58.9168 552.463 58.9168 554.215C58.9168 555.964 59.8634 557.013 61.176 557.013ZM61.4082 556.115C60.4687 556.115 59.9795 555.289 59.9795 554.205C59.9795 553.131 60.4581 552.326 61.4082 552.326C62.3266 552.326 62.8193 553.075 62.8193 554.205C62.8193 555.341 62.3161 556.115 61.4082 556.115Z" fill="#2C2C2C"/>
<path d="M136.026 552.213L138.729 554.916L141.431 552.213" stroke="#B6B6B6" stroke-width="0.900837"/>
<path d="M192.329 491.857V496.812M192.329 501.766V496.812M192.329 496.812H197.283H187.374" stroke="#2C2C2C" stroke-width="0.900837"/>
<path d="M192.535 523.837H197.49H187.58" stroke="#2C2C2C" stroke-width="0.900837"/>
<circle cx="162.601" cy="494.109" r="1.35126" fill="black"/>
<circle cx="168.006" cy="494.109" r="1.35126" fill="black"/>
<circle cx="168.006" cy="499.514" r="1.35126" fill="black"/>
<circle cx="162.601" cy="499.514" r="1.35126" fill="black"/>
<circle cx="192.329" cy="553.564" r="1.35126" fill="black"/>
<circle cx="197.734" cy="553.564" r="1.35126" fill="black"/>
<circle cx="186.924" cy="553.564" r="1.35126" fill="black"/>
<rect x="16.2151" y="555.816" width="10.81" height="2.70251" fill="#B3B3B3"/>
<rect x="16.2151" y="551.312" width="10.81" height="1.80167" fill="#B3B3B3"/>
<rect x="16.2151" y="547.709" width="10.81" height="0.900837" fill="#B3B3B3"/>
<line y1="473.39" x2="215.3" y2="473.39" stroke="#E5E5E5" stroke-width="0.900837"/>
<path d="M15.1241 426.187H16.4297V423.125H19.4242V422.031H16.4297V420.074H19.7409V418.98H15.1241V426.187ZM20.874 426.187H22.1479V420.782H20.874V426.187ZM21.5145 420.015C21.9191 420.015 22.2499 419.705 22.2499 419.325C22.2499 418.941 21.9191 418.632 21.5145 418.632C21.1063 418.632 20.7755 418.941 20.7755 419.325C20.7755 419.705 21.1063 420.015 21.5145 420.015ZM24.7316 418.98H23.4578V426.187H24.7316V418.98ZM27.3154 418.98H26.0415V426.187H27.3154V418.98Z" fill="#2C2C2C"/>
<path d="M21.2928 450.338C21.0711 448.737 19.8395 447.808 18.2419 447.808C16.3593 447.808 14.9412 449.18 14.9412 451.509C14.9412 453.835 16.3417 455.211 18.2419 455.211C19.9556 455.211 21.0922 454.103 21.2928 452.727L19.9767 452.72C19.8113 453.564 19.1216 454.04 18.2595 454.04C17.0912 454.04 16.2537 453.163 16.2537 451.509C16.2537 449.884 17.0842 448.979 18.263 448.979C19.1392 448.979 19.8254 449.476 19.9767 450.338H21.2928ZM23.7059 447.906H22.432V455.113H23.7059V447.906ZM25.0158 455.113H26.2896V449.708H25.0158V455.113ZM25.6562 448.941C26.0609 448.941 26.3916 448.631 26.3916 448.251C26.3916 447.867 26.0609 447.558 25.6562 447.558C25.248 447.558 24.9172 447.867 24.9172 448.251C24.9172 448.631 25.248 448.941 25.6562 448.941ZM29.9572 455.218C31.3155 455.218 32.1811 454.413 32.2726 453.265H31.0551C30.946 453.846 30.5272 454.18 29.9677 454.18C29.1725 454.18 28.6587 453.515 28.6587 452.41C28.6587 451.319 29.183 450.665 29.9677 450.665C30.58 450.665 30.9565 451.059 31.0551 451.58H32.2726C32.1846 450.408 31.2697 449.637 29.9501 449.637C28.3666 449.637 27.3673 450.781 27.3673 452.431C27.3673 454.068 28.342 455.218 29.9572 455.218ZM33.3186 455.113H34.5924V453.297L35.0569 452.801L36.7108 455.113H38.2345L36.0176 452.041L38.1113 449.708H36.6228L34.6804 451.879H34.5924V447.906H33.3186V455.113ZM43.5436 454.687H44.6486V452.804H46.5312V451.699H44.6486V449.817H43.5436V451.699H41.661V452.804H43.5436V454.687ZM53.2426 449.708H52.1764V448.413H50.9025V449.708H50.1354V450.693H50.9025V453.698C50.8955 454.715 51.6344 455.215 52.5916 455.187C52.954 455.176 53.2039 455.106 53.3411 455.06L53.1265 454.064C53.0561 454.082 52.9118 454.113 52.7534 454.113C52.4332 454.113 52.1764 454.001 52.1764 453.487V450.693H53.2426V449.708ZM56.6075 455.218C58.191 455.218 59.1974 454.103 59.1974 452.431C59.1974 450.756 58.191 449.637 56.6075 449.637C55.024 449.637 54.0176 450.756 54.0176 452.431C54.0176 454.103 55.024 455.218 56.6075 455.218ZM56.6146 454.198C55.7384 454.198 55.309 453.417 55.309 452.428C55.309 451.439 55.7384 450.647 56.6146 450.647C57.4767 450.647 57.906 451.439 57.906 452.428C57.906 453.417 57.4767 454.198 56.6146 454.198ZM62.7366 455.113H64.0104V451.935C64.0104 451.249 64.5277 450.763 65.2279 450.763C65.4426 450.763 65.71 450.802 65.8191 450.837V449.666C65.703 449.644 65.5024 449.63 65.3617 449.63C64.7423 449.63 64.225 449.982 64.028 450.609H63.9717V449.708H62.7366V455.113ZM68.8357 455.218C70.0954 455.218 70.9611 454.603 71.1863 453.663L69.9969 453.529C69.8245 453.987 69.4022 454.226 68.8533 454.226C68.0299 454.226 67.4844 453.684 67.4739 452.759H71.2391V452.368C71.2391 450.471 70.099 449.637 68.7688 449.637C67.2205 449.637 66.2106 450.774 66.2106 452.442C66.2106 454.138 67.2064 455.218 68.8357 455.218ZM67.4774 451.9C67.5161 451.21 68.0263 450.63 68.7864 450.63C69.5183 450.63 70.011 451.165 70.018 451.9H67.4774ZM72.3167 457.14H73.5906V454.261H73.6434C73.8439 454.655 74.2627 455.208 75.1917 455.208C76.4655 455.208 77.4191 454.198 77.4191 452.417C77.4191 450.616 76.4374 449.637 75.1882 449.637C74.2345 449.637 73.8369 450.211 73.6434 450.602H73.5695V449.708H72.3167V457.14ZM73.566 452.41C73.566 451.362 74.0164 450.683 74.8363 450.683C75.6843 450.683 76.1207 451.404 76.1207 452.41C76.1207 453.424 75.6773 454.163 74.8363 454.163C74.0234 454.163 73.566 453.459 73.566 452.41ZM79.7838 447.906H78.51V455.113H79.7838V447.906ZM82.6491 455.222C83.4972 455.222 84.0039 454.824 84.2361 454.37H84.2784V455.113H85.5029V451.495C85.5029 450.067 84.3382 449.637 83.3071 449.637C82.1705 449.637 81.2978 450.144 81.0163 451.129L82.2057 451.298C82.3324 450.929 82.6913 450.612 83.3142 450.612C83.9054 450.612 84.2291 450.915 84.2291 451.446V451.467C84.2291 451.833 83.8455 451.851 82.8919 451.953C81.8433 452.065 80.8404 452.379 80.8404 453.596C80.8404 454.659 81.6181 455.222 82.6491 455.222ZM82.9799 454.286C82.4485 454.286 82.0685 454.043 82.0685 453.575C82.0685 453.086 82.4943 452.882 83.0643 452.801C83.3986 452.755 84.0672 452.671 84.2326 452.537V453.174C84.2326 453.776 83.747 454.286 82.9799 454.286ZM89.1415 455.218C90.4998 455.218 91.3654 454.413 91.4569 453.265H90.2394C90.1303 453.846 89.7115 454.18 89.152 454.18C88.3567 454.18 87.843 453.515 87.843 452.41C87.843 451.319 88.3673 450.665 89.152 450.665C89.7643 450.665 90.1408 451.059 90.2394 451.58H91.4569C91.3689 450.408 90.454 449.637 89.1344 449.637C87.5509 449.637 86.5516 450.781 86.5516 452.431C86.5516 454.068 87.5263 455.218 89.1415 455.218ZM94.8957 455.218C96.1555 455.218 97.0211 454.603 97.2464 453.663L96.057 453.529C95.8845 453.987 95.4623 454.226 94.9133 454.226C94.0899 454.226 93.5445 453.684 93.5339 452.759H97.2991V452.368C97.2991 450.471 96.159 449.637 94.8289 449.637C93.2806 449.637 92.2706 450.774 92.2706 452.442C92.2706 454.138 93.2665 455.218 94.8957 455.218ZM93.5374 451.9C93.5762 451.21 94.0864 450.63 94.8465 450.63C95.5784 450.63 96.071 451.165 96.0781 451.9H93.5374ZM100.835 455.113H102.109V451.826C102.109 451.161 102.552 450.711 103.101 450.711C103.639 450.711 104.009 451.073 104.009 451.629V455.113H105.258V451.742C105.258 451.133 105.62 450.711 106.236 450.711C106.75 450.711 107.158 451.013 107.158 451.682V455.113H108.436V451.485C108.436 450.278 107.739 449.637 106.746 449.637C105.962 449.637 105.364 450.024 105.124 450.626H105.068C104.86 450.014 104.336 449.637 103.608 449.637C102.883 449.637 102.341 450.01 102.116 450.626H102.052V449.708H100.835V455.113ZM109.728 455.113H111.002V449.708H109.728V455.113ZM110.368 448.941C110.773 448.941 111.104 448.631 111.104 448.251C111.104 447.867 110.773 447.558 110.368 447.558C109.96 447.558 109.629 447.867 109.629 448.251C109.629 448.631 109.96 448.941 110.368 448.941ZM113.353 449.708H112.002L113.607 452.41L111.96 455.113H113.311L114.444 453.167L115.588 455.113H116.928L115.271 452.41L116.9 449.708H115.553L114.444 451.703L113.353 449.708ZM120.075 455.218C121.335 455.218 122.201 454.603 122.426 453.663L121.236 453.529C121.064 453.987 120.642 454.226 120.093 454.226C119.269 454.226 118.724 453.684 118.713 452.759H122.479V452.368C122.479 450.471 121.338 449.637 120.008 449.637C118.46 449.637 117.45 450.774 117.45 452.442C117.45 454.138 118.446 455.218 120.075 455.218ZM118.717 451.9C118.756 451.21 119.266 450.63 120.026 450.63C120.758 450.63 121.251 451.165 121.258 451.9H118.717ZM125.562 455.208C126.491 455.208 126.91 454.655 127.11 454.261H127.188V455.113H128.44V447.906H127.163V450.602H127.11C126.917 450.211 126.519 449.637 125.566 449.637C124.316 449.637 123.335 450.616 123.335 452.417C123.335 454.198 124.288 455.208 125.562 455.208ZM125.917 454.163C125.076 454.163 124.633 453.424 124.633 452.41C124.633 451.404 125.069 450.683 125.917 450.683C126.737 450.683 127.188 451.362 127.188 452.41C127.188 453.459 126.73 454.163 125.917 454.163ZM134.614 455.218C135.972 455.218 136.837 454.413 136.929 453.265H135.711C135.602 453.846 135.184 454.18 134.624 454.18C133.829 454.18 133.315 453.515 133.315 452.41C133.315 451.319 133.839 450.665 134.624 450.665C135.236 450.665 135.613 451.059 135.711 451.58H136.929C136.841 450.408 135.926 449.637 134.606 449.637C133.023 449.637 132.024 450.781 132.024 452.431C132.024 454.068 132.998 455.218 134.614 455.218ZM140.333 455.218C141.916 455.218 142.923 454.103 142.923 452.431C142.923 450.756 141.916 449.637 140.333 449.637C138.749 449.637 137.743 450.756 137.743 452.431C137.743 454.103 138.749 455.218 140.333 455.218ZM140.34 454.198C139.463 454.198 139.034 453.417 139.034 452.428C139.034 451.439 139.463 450.647 140.34 450.647C141.202 450.647 141.631 451.439 141.631 452.428C141.631 453.417 141.202 454.198 140.34 454.198ZM145.278 451.946C145.278 451.165 145.749 450.714 146.421 450.714C147.079 450.714 147.473 451.147 147.473 451.868V455.113H148.747V451.671C148.751 450.376 148.012 449.637 146.896 449.637C146.087 449.637 145.531 450.024 145.285 450.626H145.221V449.708H144.004V455.113H145.278V451.946ZM152.741 449.708H151.675V448.413H150.401V449.708H149.634V450.693H150.401V453.698C150.394 454.715 151.133 455.215 152.09 455.187C152.453 455.176 152.702 455.106 152.84 455.06L152.625 454.064C152.555 454.082 152.41 454.113 152.252 454.113C151.932 454.113 151.675 454.001 151.675 453.487V450.693H152.741V449.708ZM156.141 455.218C157.401 455.218 158.267 454.603 158.492 453.663L157.302 453.529C157.13 453.987 156.708 454.226 156.159 454.226C155.335 454.226 154.79 453.684 154.779 452.759H158.545V452.368C158.545 450.471 157.405 449.637 156.074 449.637C154.526 449.637 153.516 450.774 153.516 452.442C153.516 454.138 154.512 455.218 156.141 455.218ZM154.783 451.9C154.822 451.21 155.332 450.63 156.092 450.63C156.824 450.63 157.317 451.165 157.324 451.9H154.783ZM160.896 451.946C160.896 451.165 161.368 450.714 162.04 450.714C162.698 450.714 163.092 451.147 163.092 451.868V455.113H164.366V451.671C164.369 450.376 163.63 449.637 162.515 449.637C161.705 449.637 161.149 450.024 160.903 450.626H160.84V449.708H159.622V455.113H160.896V451.946ZM168.36 449.708H167.293V448.413H166.02V449.708H165.253V450.693H166.02V453.698C166.013 454.715 166.752 455.215 167.709 455.187C168.071 455.176 168.321 455.106 168.458 455.06L168.244 454.064C168.173 454.082 168.029 454.113 167.871 454.113C167.55 454.113 167.293 454.001 167.293 453.487V450.693H168.36V449.708ZM170.21 455.19C170.625 455.19 170.98 454.845 170.984 454.416C170.98 453.994 170.625 453.649 170.21 453.649C169.78 453.649 169.432 453.994 169.436 454.416C169.432 454.845 169.78 455.19 170.21 455.19Z" fill="#B6B6B6"/>
<path d="M191.878 416.187V421.141M191.878 426.096V421.141M191.878 421.141H196.833H186.924" stroke="#2C2C2C" stroke-width="0.900837"/>
<circle cx="161.7" cy="418.439" r="1.35126" fill="black"/>
<circle cx="167.105" cy="418.439" r="1.35126" fill="black"/>
<circle cx="167.105" cy="423.844" r="1.35126" fill="black"/>
<circle cx="161.7" cy="423.844" r="1.35126" fill="black"/>
<line y1="401.323" x2="215.3" y2="401.323" stroke="#E5E5E5" stroke-width="0.900837"/>
<path d="M14.1388 382.947H17.2178C18.8365 382.947 19.6987 382.102 19.6987 380.955C19.6987 379.889 18.9351 379.245 18.1152 379.206V379.136C18.8647 378.967 19.4172 378.435 19.4172 377.587C19.4172 376.507 18.6148 375.74 17.0243 375.74H14.1388V382.947ZM15.6625 381.701V379.787H16.9399C17.6718 379.787 18.1257 380.209 18.1257 380.804C18.1257 381.345 17.7562 381.701 16.9047 381.701H15.6625ZM15.6625 378.756V376.971H16.8202C17.4958 376.971 17.8794 377.32 17.8794 377.841C17.8794 378.411 17.4149 378.756 16.7921 378.756H15.6625ZM22.2032 383.049C23.002 383.049 23.5193 382.7 23.7832 382.197H23.8255V382.947H25.2471V379.301C25.2471 378.013 24.1562 377.471 22.9528 377.471C21.6578 377.471 20.8062 378.09 20.5986 379.076L21.9851 379.188C22.0871 378.829 22.4073 378.566 22.9457 378.566C23.456 378.566 23.748 378.822 23.748 379.266V379.287C23.748 379.635 23.3786 379.681 22.439 379.772C21.3693 379.871 20.4086 380.23 20.4086 381.437C20.4086 382.507 21.1722 383.049 22.2032 383.049ZM22.6325 382.014C22.1716 382.014 21.8408 381.799 21.8408 381.388C21.8408 380.965 22.1892 380.758 22.717 380.684C23.0443 380.638 23.5791 380.561 23.7586 380.441V381.015C23.7586 381.581 23.2906 382.014 22.6325 382.014ZM28.8522 383.052C30.2914 383.052 31.1958 382.208 31.2662 380.965H29.8516C29.7636 381.542 29.3835 381.866 28.8698 381.866C28.1695 381.866 27.7156 381.279 27.7156 380.244C27.7156 379.224 28.173 378.639 28.8698 378.639C29.4187 378.639 29.7706 379.002 29.8516 379.54H31.2662C31.2028 378.291 30.2562 377.471 28.8452 377.471C27.2054 377.471 26.1919 378.608 26.1919 380.265C26.1919 381.908 27.1878 383.052 28.8522 383.052ZM32.2259 382.947H33.725V381.229L34.1297 380.768L35.6041 382.947H37.36L35.2522 379.882L37.258 377.542H35.5372L33.8059 379.593H33.725V375.74H32.2259V382.947ZM40.2059 385.086C41.7507 385.086 42.8486 384.382 42.8486 382.999V377.542H41.3601V378.449H41.3038C41.1032 378.01 40.6634 377.471 39.759 377.471C38.5731 377.471 37.5703 378.393 37.5703 380.233C37.5703 382.032 38.545 382.869 39.7625 382.869C40.6247 382.869 41.1067 382.436 41.3038 381.989H41.3671V382.978C41.3671 383.721 40.8921 384.009 40.2411 384.009C39.5795 384.009 39.2453 383.721 39.1221 383.393L37.7356 383.58C37.9151 384.432 38.7491 385.086 40.2059 385.086ZM40.2376 381.743C39.5021 381.743 39.101 381.159 39.101 380.226C39.101 379.308 39.4951 378.664 40.2376 378.664C40.966 378.664 41.3742 379.28 41.3742 380.226C41.3742 381.18 40.959 381.743 40.2376 381.743ZM44.0415 382.947H45.5406V379.889C45.5406 379.224 46.0262 378.766 46.6877 378.766C46.8953 378.766 47.1804 378.801 47.3211 378.847V377.517C47.1874 377.485 47.0009 377.464 46.8496 377.464C46.2443 377.464 45.7482 377.816 45.5511 378.485H45.4948V377.542H44.0415V382.947ZM50.2867 383.052C51.9265 383.052 52.9469 381.93 52.9469 380.265C52.9469 378.59 51.9265 377.471 50.2867 377.471C48.6469 377.471 47.6264 378.59 47.6264 380.265C47.6264 381.93 48.6469 383.052 50.2867 383.052ZM50.2937 381.891C49.5371 381.891 49.1501 381.198 49.1501 380.255C49.1501 379.312 49.5371 378.615 50.2937 378.615C51.0362 378.615 51.4233 379.312 51.4233 380.255C51.4233 381.198 51.0362 381.891 50.2937 381.891ZM57.3878 380.645C57.3913 381.37 56.8951 381.75 56.3568 381.75C55.7902 381.75 55.4243 381.352 55.4207 380.716V377.542H53.9217V380.983C53.9252 382.246 54.6642 383.017 55.7515 383.017C56.5644 383.017 57.1485 382.598 57.3913 381.965H57.4476V382.947H58.8868V377.542H57.3878V380.645ZM61.585 379.822C61.5885 379.125 62.0037 378.717 62.609 378.717C63.2107 378.717 63.5731 379.111 63.5696 379.772V382.947H65.0687V379.505C65.0687 378.245 64.3297 377.471 63.2036 377.471C62.4013 377.471 61.8207 377.865 61.5779 378.495H61.5146V377.542H60.0859V382.947H61.585V379.822ZM68.2418 383.035C69.1145 383.035 69.5684 382.531 69.7761 382.081H69.8394V382.947H71.3173V375.74H69.8218V378.449H69.7761C69.5755 378.01 69.1427 377.471 68.2383 377.471C67.0524 377.471 66.0496 378.393 66.0496 380.251C66.0496 382.06 67.0102 383.035 68.2418 383.035ZM68.7169 381.842C67.9814 381.842 67.5803 381.187 67.5803 380.244C67.5803 379.308 67.9744 378.664 68.7169 378.664C69.4453 378.664 69.8535 379.28 69.8535 380.244C69.8535 381.208 69.4382 381.842 68.7169 381.842Z" fill="#B6B6B6"/>
<path d="M191.878 375.199V380.153M191.878 385.108V380.153M191.878 380.153H196.833H186.924" stroke="#B6B6B6" stroke-width="0.900837"/>
<line y1="356.281" x2="215.3" y2="356.281" stroke="#E5E5E5" stroke-width="0.900837"/>
<path d="M14.2233 309.979H18.7028V308.884H15.5288V302.772H14.2233V309.979ZM21.335 310.088C22.183 310.088 22.6897 309.69 22.922 309.236H22.9642V309.979H24.1888V306.361C24.1888 304.933 23.024 304.503 21.993 304.503C20.8564 304.503 19.9837 305.01 19.7022 305.995L20.8916 306.164C21.0183 305.795 21.3772 305.478 22 305.478C22.5912 305.478 22.9149 305.781 22.9149 306.312V306.333C22.9149 306.699 22.5314 306.717 21.5778 306.819C20.5291 306.931 19.5262 307.245 19.5262 308.462C19.5262 309.525 20.3039 310.088 21.335 310.088ZM21.6657 309.152C21.1344 309.152 20.7543 308.909 20.7543 308.441C20.7543 307.952 21.1801 307.748 21.7502 307.667C22.0845 307.621 22.7531 307.537 22.9185 307.403V308.04C22.9185 308.642 22.4329 309.152 21.6657 309.152ZM26.0679 312.006C27.0602 312.006 27.6338 311.495 27.9399 310.633L30.1111 304.581L28.7493 304.574L27.5001 308.656H27.4438L26.1981 304.574H24.8468L26.8068 310.091L26.6978 310.383C26.462 310.999 26.089 311.041 25.533 310.88L25.2374 311.872C25.4098 311.942 25.7195 312.006 26.0679 312.006ZM33.2042 310.084C34.464 310.084 35.3296 309.469 35.5548 308.529L34.3654 308.395C34.193 308.853 33.7707 309.092 33.2218 309.092C32.3984 309.092 31.8529 308.55 31.8424 307.625H35.6076V307.234C35.6076 305.337 34.4675 304.503 33.1373 304.503C31.589 304.503 30.5791 305.64 30.5791 307.308C30.5791 309.004 31.5749 310.084 33.2042 310.084ZM31.8459 306.766C31.8846 306.076 32.3948 305.496 33.1549 305.496C33.8869 305.496 34.3795 306.031 34.3865 306.766H31.8459ZM36.6853 309.979H37.9591V306.801C37.9591 306.115 38.4764 305.629 39.1766 305.629C39.3913 305.629 39.6587 305.668 39.7678 305.703V304.532C39.6517 304.51 39.4511 304.496 39.3104 304.496C38.691 304.496 38.1737 304.848 37.9767 305.475H37.9204V304.574H36.6853V309.979Z" fill="#2C2C2C"/>
<path d="M34.1228 339.806H35.2101V337.272H36.6881C38.3596 337.272 39.1865 336.262 39.1865 334.932C39.1865 333.605 38.3666 332.599 36.6916 332.599H34.1228V339.806ZM35.2101 336.35V333.531H36.5755C37.6523 333.531 38.0921 334.116 38.0921 334.932C38.0921 335.748 37.6523 336.35 36.5896 336.35H35.2101ZM41.9013 339.925C42.7951 339.925 43.2983 339.471 43.4989 339.067H43.5411V339.806H44.5686V336.216C44.5686 334.643 43.33 334.33 42.4714 334.33C41.4931 334.33 40.5923 334.724 40.2404 335.71L41.2292 335.935C41.384 335.551 41.7782 335.182 42.4855 335.182C43.1646 335.182 43.513 335.537 43.513 336.15V336.174C43.513 336.558 43.1189 336.551 42.1476 336.663C41.1236 336.783 40.075 337.05 40.075 338.278C40.075 339.341 40.8738 339.925 41.9013 339.925ZM42.1301 339.081C41.5354 339.081 41.1061 338.813 41.1061 338.293C41.1061 337.73 41.6057 337.529 42.2145 337.448C42.5558 337.402 43.3652 337.311 43.5165 337.159V337.856C43.5165 338.497 43.0063 339.081 42.1301 339.081ZM50.0203 335.72C49.8021 334.879 49.1441 334.33 47.9758 334.33C46.7548 334.33 45.8891 334.974 45.8891 335.931C45.8891 336.698 46.3536 337.209 47.367 337.434L48.282 337.635C48.8028 337.751 49.0456 337.983 49.0456 338.321C49.0456 338.739 48.5987 339.067 47.909 339.067C47.2791 339.067 46.8744 338.796 46.7477 338.264L45.7308 338.419C45.9067 339.376 46.702 339.915 47.916 339.915C49.2215 339.915 50.1259 339.222 50.1259 338.243C50.1259 337.48 49.6403 337.008 48.6479 336.779L47.7893 336.582C47.1946 336.442 46.9377 336.241 46.9413 335.875C46.9377 335.46 47.3882 335.164 47.9864 335.164C48.6409 335.164 48.9435 335.527 49.0667 335.889L50.0203 335.72ZM55.3329 335.72C55.1148 334.879 54.4567 334.33 53.2885 334.33C52.0674 334.33 51.2018 334.974 51.2018 335.931C51.2018 336.698 51.6663 337.209 52.6797 337.434L53.5946 337.635C54.1154 337.751 54.3582 337.983 54.3582 338.321C54.3582 338.739 53.9113 339.067 53.2216 339.067C52.5917 339.067 52.1871 338.796 52.0604 338.264L51.0434 338.419C51.2194 339.376 52.0146 339.915 53.2286 339.915C54.5342 339.915 55.4385 339.222 55.4385 338.243C55.4385 337.48 54.9529 337.008 53.9606 336.779L53.102 336.582C52.5073 336.442 52.2504 336.241 52.2539 335.875C52.2504 335.46 52.7008 335.164 53.299 335.164C53.9535 335.164 54.2562 335.527 54.3793 335.889L55.3329 335.72ZM58.9469 333.535H61.1919V339.806H62.2757V333.535H64.5243V332.599H58.9469V333.535ZM66.7245 336.596C66.7245 335.734 67.2699 335.242 68.0194 335.242C68.7443 335.242 69.1772 335.703 69.1772 336.494V339.806H70.2293V336.368C70.2293 335.02 69.4903 334.33 68.3784 334.33C67.5374 334.33 67.0306 334.696 66.7773 335.28H66.7104V332.599H65.6723V339.806H66.7245V336.596ZM71.6333 339.806H72.6855V336.505C72.6855 335.798 73.2309 335.287 73.9769 335.287C74.1951 335.287 74.4414 335.326 74.5259 335.351V334.344C74.4203 334.33 74.2127 334.32 74.079 334.32C73.4456 334.32 72.9037 334.679 72.7066 335.259H72.6503V334.401H71.6333V339.806ZM77.5196 339.915C79.0433 339.915 80.0391 338.799 80.0391 337.128C80.0391 335.446 79.0433 334.33 77.5196 334.33C75.9959 334.33 75.0001 335.446 75.0001 337.128C75.0001 338.799 75.9959 339.915 77.5196 339.915ZM77.5231 339.032C76.5273 339.032 76.0628 338.162 76.0628 337.124C76.0628 336.09 76.5273 335.21 77.5231 335.21C78.5119 335.21 78.9764 336.09 78.9764 337.124C78.9764 338.162 78.5119 339.032 77.5231 339.032ZM84.6374 337.564C84.6409 338.483 83.9583 338.919 83.3671 338.919C82.7161 338.919 82.2657 338.447 82.2657 337.712V334.401H81.2135V337.839C81.2135 339.179 81.949 339.876 82.9871 339.876C83.7999 339.876 84.3524 339.447 84.6022 338.87H84.6585V339.806H85.6931V334.401H84.6374V337.564ZM89.373 341.945C90.7489 341.945 91.8116 341.315 91.8116 339.925V334.401H90.7805V335.277H90.7031C90.5166 334.943 90.1436 334.33 89.1372 334.33C87.8317 334.33 86.871 335.361 86.871 337.082C86.871 338.806 87.8528 339.725 89.1302 339.725C90.1225 339.725 90.5061 339.165 90.6961 338.82H90.7629V339.883C90.7629 340.731 90.1823 341.097 89.3835 341.097C88.5073 341.097 88.166 340.657 87.9795 340.348L87.0751 340.721C87.3602 341.382 88.0815 341.945 89.373 341.945ZM89.3624 338.852C88.4229 338.852 87.9337 338.131 87.9337 337.068C87.9337 336.03 88.4123 335.224 89.3624 335.224C90.2809 335.224 90.7735 335.974 90.7735 337.068C90.7735 338.183 90.2703 338.852 89.3624 338.852ZM94.2748 336.596C94.2748 335.734 94.8202 335.242 95.5698 335.242C96.2946 335.242 96.7275 335.703 96.7275 336.494V339.806H97.7796V336.368C97.7796 335.02 97.0406 334.33 95.9287 334.33C95.0877 334.33 94.5809 334.696 94.3276 335.28H94.2607V332.599H93.2226V339.806H94.2748V336.596Z" fill="#2C2C2C"/>
<path d="M146.661 333.4H145.601L143.803 334.576V335.617L145.527 334.491H145.57V340.607H146.661V333.4ZM151.119 340.727C152.783 340.727 153.758 339.369 153.758 337.007C153.758 334.664 152.769 333.302 151.119 333.302C149.465 333.302 148.48 334.66 148.476 337.007C148.476 339.365 149.451 340.723 151.119 340.727ZM151.119 339.787C150.144 339.787 149.557 338.809 149.557 337.007C149.56 335.213 150.148 334.224 151.119 334.224C152.087 334.224 152.678 335.213 152.678 337.007C152.678 338.809 152.09 339.787 151.119 339.787ZM157.515 340.727C159.18 340.727 160.155 339.369 160.155 337.007C160.155 334.664 159.166 333.302 157.515 333.302C155.862 333.302 154.876 334.66 154.873 337.007C154.873 339.365 155.848 340.723 157.515 340.727ZM157.515 339.787C156.541 339.787 155.953 338.809 155.953 337.007C155.957 335.213 156.544 334.224 157.515 334.224C158.483 334.224 159.074 335.213 159.074 337.007C159.074 338.809 158.487 339.787 157.515 339.787ZM165.165 339.256C165.168 340.069 165.678 340.755 166.632 340.755C167.575 340.755 168.092 340.069 168.092 339.256V338.876C168.092 338.059 167.589 337.377 166.632 337.377C165.693 337.377 165.168 338.063 165.165 338.876V339.256ZM161.54 335.132C161.54 335.945 162.054 336.631 163.008 336.631C163.947 336.631 164.468 335.948 164.464 335.132V334.752C164.468 333.935 163.961 333.253 163.008 333.253C162.072 333.253 161.54 333.935 161.54 334.752V335.132ZM161.836 340.607H162.677L167.631 333.4H166.79L161.836 340.607ZM165.985 338.876C165.988 338.471 166.164 338.081 166.632 338.081C167.118 338.081 167.269 338.471 167.269 338.876V339.256C167.269 339.661 167.104 340.051 166.632 340.051C166.153 340.051 165.988 339.657 165.985 339.256V338.876ZM162.364 334.752C162.364 334.351 162.54 333.956 163.008 333.956C163.493 333.956 163.645 334.347 163.645 334.752V335.132C163.645 335.536 163.479 335.927 163.008 335.927C162.529 335.927 162.364 335.536 162.364 335.132V334.752Z" fill="black"/>
<path d="M192.432 338.715C193.427 338.715 194.234 337.908 194.234 336.913C194.234 335.918 193.427 335.111 192.432 335.111C191.437 335.111 190.63 335.918 190.63 336.913C190.63 337.908 191.437 338.715 192.432 338.715Z" fill="#2C2C2C"/>
<path fill-rule="evenodd" clip-rule="evenodd" d="M198.203 336.651C198.203 336.651 198.203 336.651 197.837 336.913C198.203 337.175 198.203 337.175 198.203 337.175L198.202 337.176L198.2 337.179L198.194 337.188L198.172 337.218C198.152 337.244 198.124 337.281 198.088 337.327C198.016 337.419 197.91 337.549 197.774 337.704C197.502 338.013 197.104 338.425 196.603 338.837C195.609 339.656 194.158 340.517 192.432 340.517C190.706 340.517 189.255 339.656 188.261 338.837C187.759 338.425 187.362 338.013 187.09 337.704C186.954 337.549 186.848 337.419 186.776 337.327C186.739 337.281 186.712 337.244 186.692 337.218L186.67 337.188L186.663 337.179L186.661 337.176L186.661 337.176C186.661 337.175 186.66 337.175 187.027 336.913C186.66 336.651 186.66 336.651 186.661 336.651L186.661 336.65L186.663 336.647L186.67 336.638L186.692 336.608C186.712 336.582 186.739 336.545 186.776 336.499C186.848 336.407 186.954 336.278 187.09 336.123C187.362 335.814 187.759 335.402 188.261 334.989C189.255 334.17 190.706 333.31 192.432 333.31C194.158 333.31 195.609 334.17 196.603 334.989C197.104 335.402 197.502 335.814 197.774 336.123C197.91 336.278 198.016 336.407 198.088 336.499C198.124 336.545 198.152 336.582 198.172 336.608L198.194 336.638L198.2 336.647L198.202 336.65L198.203 336.651ZM187.766 337.108C187.703 337.036 187.647 336.971 187.599 336.913C187.647 336.856 187.703 336.79 187.766 336.718C188.015 336.436 188.378 336.06 188.833 335.684C189.753 334.927 191.005 334.211 192.432 334.211C193.859 334.211 195.11 334.927 196.03 335.684C196.486 336.06 196.849 336.436 197.098 336.718C197.161 336.79 197.217 336.856 197.264 336.913C197.217 336.971 197.161 337.036 197.098 337.108C196.849 337.39 196.486 337.767 196.03 338.142C195.11 338.9 193.859 339.616 192.432 339.616C191.005 339.616 189.753 338.9 188.833 338.142C188.378 337.767 188.015 337.39 187.766 337.108Z" fill="#2C2C2C"/>
<path d="M197.837 336.913L198.203 336.651L198.39 336.913L198.203 337.175L197.837 336.913Z" fill="#2C2C2C"/>
<path d="M186.661 336.651L187.027 336.913L186.661 337.176L186.473 336.913L186.661 336.651Z" fill="#2C2C2C"/>
<path d="M104.497 335.111L107.2 337.814L109.902 335.111" stroke="#B6B6B6" stroke-width="0.900837"/>
<path d="M24.3227 336.913C24.3227 337.364 23.8723 340.066 21.1698 340.066C19.3681 340.066 18.0168 338.715 18.0168 336.913C18.0168 335.472 20.1188 333.31 21.1698 332.409C23.4219 333.76 24.3227 336.463 24.3227 336.913Z" stroke="black" stroke-width="0.900837"/>
<line y1="285.115" x2="215.3" y2="285.115" stroke="#E5E5E5" stroke-width="0.900837"/>
<path d="M19.4913 188.095C19.2696 186.494 18.038 185.565 16.4404 185.565C14.5578 185.565 13.1397 186.937 13.1397 189.267C13.1397 191.593 14.5402 192.968 16.4404 192.968C18.1541 192.968 19.2907 191.86 19.4913 190.484L18.1752 190.477C18.0098 191.322 17.3201 191.797 16.458 191.797C15.2897 191.797 14.4522 190.92 14.4522 189.267C14.4522 187.641 15.2827 186.736 16.4615 186.736C17.3377 186.736 18.0239 187.233 18.1752 188.095H19.4913ZM22.9882 192.975C24.5717 192.975 25.5781 191.86 25.5781 190.188C25.5781 188.513 24.5717 187.394 22.9882 187.394C21.4047 187.394 20.3983 188.513 20.3983 190.188C20.3983 191.86 21.4047 192.975 22.9882 192.975ZM22.9952 191.955C22.119 191.955 21.6897 191.174 21.6897 190.185C21.6897 189.196 22.119 188.404 22.9952 188.404C23.8573 188.404 24.2866 189.196 24.2866 190.185C24.2866 191.174 23.8573 191.955 22.9952 191.955ZM27.9331 189.703C27.9331 188.922 28.4046 188.471 29.0767 188.471C29.7348 188.471 30.1289 188.904 30.1289 189.625V192.87H31.4027V189.428C31.4062 188.133 30.6673 187.394 29.5518 187.394C28.7424 187.394 28.1864 187.782 27.9401 188.383H27.8768V187.465H26.6592V192.87H27.9331V189.703ZM36.9696 188.894C36.7937 187.979 36.0617 187.394 34.7949 187.394C33.4929 187.394 32.6062 188.035 32.6097 189.034C32.6062 189.823 33.0918 190.343 34.1299 190.558L35.0518 190.751C35.548 190.861 35.7802 191.061 35.7802 191.367C35.7802 191.737 35.3791 192.015 34.7738 192.015C34.1897 192.015 33.8096 191.761 33.7006 191.276L32.4584 191.395C32.6167 192.388 33.4507 192.975 34.7773 192.975C36.1286 192.975 37.0822 192.275 37.0857 191.251C37.0822 190.481 36.586 190.009 35.5656 189.787L34.6436 189.59C34.0947 189.467 33.8765 189.277 33.88 188.964C33.8765 188.598 34.2812 188.345 34.8125 188.345C35.4002 188.345 35.7098 188.665 35.8084 189.02L36.9696 188.894ZM40.8351 187.465H39.7689V186.17H38.495V187.465H37.7279V188.45H38.495V191.455C38.488 192.472 39.227 192.972 40.1841 192.944C40.5466 192.933 40.7964 192.863 40.9336 192.817L40.719 191.821C40.6486 191.839 40.5043 191.871 40.346 191.871C40.0258 191.871 39.7689 191.758 39.7689 191.244V188.45H40.8351V187.465ZM41.9005 192.87H43.1743V189.692C43.1743 189.006 43.6916 188.521 44.3918 188.521C44.6065 188.521 44.8739 188.559 44.983 188.594V187.423C44.8669 187.402 44.6663 187.387 44.5256 187.387C43.9062 187.387 43.389 187.739 43.1919 188.366H43.1356V187.465H41.9005V192.87ZM47.2782 192.979C48.1263 192.979 48.633 192.581 48.8652 192.127H48.9075V192.87H50.132V189.252C50.132 187.824 48.9673 187.394 47.9362 187.394C46.7996 187.394 45.927 187.901 45.6454 188.886L46.8348 189.055C46.9615 188.686 47.3204 188.369 47.9433 188.369C48.5345 188.369 48.8582 188.672 48.8582 189.203V189.224C48.8582 189.59 48.4746 189.608 47.521 189.71C46.4724 189.823 45.4695 190.136 45.4695 191.353C45.4695 192.416 46.2472 192.979 47.2782 192.979ZM47.609 192.043C47.0776 192.043 46.6976 191.8 46.6976 191.332C46.6976 190.843 47.1234 190.639 47.6934 190.558C48.0277 190.512 48.6963 190.428 48.8617 190.294V190.931C48.8617 191.533 48.3761 192.043 47.609 192.043ZM51.4129 192.87H52.6868V187.465H51.4129V192.87ZM52.0534 186.698C52.458 186.698 52.7888 186.388 52.7888 186.008C52.7888 185.624 52.458 185.315 52.0534 185.315C51.6452 185.315 51.3144 185.624 51.3144 186.008C51.3144 186.388 51.6452 186.698 52.0534 186.698ZM55.2705 189.703C55.2705 188.922 55.742 188.471 56.4141 188.471C57.0722 188.471 57.4663 188.904 57.4663 189.625V192.87H58.7401V189.428C58.7437 188.133 58.0047 187.394 56.8892 187.394C56.0798 187.394 55.5239 187.782 55.2775 188.383H55.2142V187.465H53.9967V192.87H55.2705V189.703ZM62.7341 187.465H61.6679V186.17H60.394V187.465H59.6269V188.45H60.394V191.455C60.387 192.472 61.1259 192.972 62.0831 192.944C62.4455 192.933 62.6954 192.863 62.8326 192.817L62.618 191.821C62.5476 191.839 62.4033 191.871 62.2449 191.871C61.9247 191.871 61.6679 191.758 61.6679 191.244V188.45H62.7341V187.465ZM67.9939 188.894C67.818 187.979 67.0861 187.394 65.8193 187.394C64.5173 187.394 63.6305 188.035 63.634 189.034C63.6305 189.823 64.1161 190.343 65.1542 190.558L66.0761 190.751C66.5723 190.861 66.8046 191.061 66.8046 191.367C66.8046 191.737 66.4034 192.015 65.7982 192.015C65.214 192.015 64.834 191.761 64.7249 191.276L63.4827 191.395C63.6411 192.388 64.4751 192.975 65.8017 192.975C67.1529 192.975 68.1066 192.275 68.1101 191.251C68.1066 190.481 67.6104 190.009 66.5899 189.787L65.668 189.59C65.119 189.467 64.9008 189.277 64.9044 188.964C64.9008 188.598 65.3055 188.345 65.8369 188.345C66.4245 188.345 66.7342 188.665 66.8327 189.02L67.9939 188.894Z" fill="#2C2C2C"/>
<path d="M106.19 222.697V229.903H107.224V224.685H107.291L109.417 229.893H110.275L112.401 224.688H112.467V229.903H113.502V222.697H112.182L109.888 228.299H109.804L107.509 222.697H106.19ZM114.998 229.903H116.051V224.498H114.998V229.903ZM115.53 223.664C115.892 223.664 116.195 223.383 116.195 223.038C116.195 222.693 115.892 222.408 115.53 222.408C115.164 222.408 114.865 222.693 114.865 223.038C114.865 223.383 115.164 223.664 115.53 223.664ZM118.296 224.498H117.142L118.803 227.201L117.121 229.903H118.275L119.489 227.883L120.707 229.903H121.858L120.158 227.201L121.844 224.498H120.693L119.489 226.603L118.296 224.498ZM125.031 230.012C126.21 230.012 127.044 229.432 127.283 228.552L126.287 228.373C126.097 228.883 125.64 229.143 125.041 229.143C124.14 229.143 123.535 228.559 123.507 227.518H127.35V227.145C127.35 225.192 126.181 224.428 124.957 224.428C123.451 224.428 122.458 225.575 122.458 227.236C122.458 228.915 123.437 230.012 125.031 230.012ZM123.511 226.729C123.553 225.962 124.109 225.297 124.964 225.297C125.78 225.297 126.315 225.902 126.319 226.729H123.511ZM130.54 230.009C131.526 230.009 131.913 229.407 132.103 229.062H132.191V229.903H133.218V222.697H132.166V225.375H132.103C131.913 225.04 131.554 224.428 130.547 224.428C129.242 224.428 128.281 225.459 128.281 227.211C128.281 228.96 129.228 230.009 130.54 230.009ZM130.773 229.112C129.833 229.112 129.344 228.285 129.344 227.201C129.344 226.128 129.823 225.322 130.773 225.322C131.691 225.322 132.184 226.071 132.184 227.201C132.184 228.337 131.681 229.112 130.773 229.112Z" fill="#2C2C2C"/>
<path d="M106.19 250.623V257.829H107.224V252.611H107.291L109.417 257.819H110.275L112.401 252.614H112.467V257.829H113.502V250.623H112.182L109.888 256.225H109.804L107.509 250.623H106.19ZM114.998 257.829H116.051V252.424H114.998V257.829ZM115.53 251.59C115.892 251.59 116.195 251.309 116.195 250.964C116.195 250.619 115.892 250.334 115.53 250.334C115.164 250.334 114.865 250.619 114.865 250.964C114.865 251.309 115.164 251.59 115.53 251.59ZM118.296 252.424H117.142L118.803 255.127L117.121 257.829H118.275L119.489 255.809L120.707 257.829H121.858L120.158 255.127L121.844 252.424H120.693L119.489 254.529L118.296 252.424ZM125.031 257.938C126.21 257.938 127.044 257.358 127.283 256.478L126.287 256.299C126.097 256.809 125.64 257.069 125.041 257.069C124.14 257.069 123.535 256.485 123.507 255.444H127.35V255.071C127.35 253.118 126.181 252.354 124.957 252.354C123.451 252.354 122.458 253.501 122.458 255.162C122.458 256.841 123.437 257.938 125.031 257.938ZM123.511 254.655C123.553 253.888 124.109 253.223 124.964 253.223C125.78 253.223 126.315 253.828 126.319 254.655H123.511ZM130.54 257.935C131.526 257.935 131.913 257.333 132.103 256.988H132.191V257.829H133.218V250.623H132.166V253.301H132.103C131.913 252.966 131.554 252.354 130.547 252.354C129.242 252.354 128.281 253.385 128.281 255.137C128.281 256.886 129.228 257.935 130.54 257.935ZM130.773 257.038C129.833 257.038 129.344 256.211 129.344 255.127C129.344 254.054 129.823 253.248 130.773 253.248C131.691 253.248 132.184 253.997 132.184 255.127C132.184 256.263 131.681 257.038 130.773 257.038Z" fill="#2C2C2C"/>
<path d="M140.531 225.209L143.233 227.912L145.936 225.209" stroke="#B6B6B6" stroke-width="0.900837"/>
<path d="M140.531 253.135L143.233 255.838L145.936 253.135" stroke="#B6B6B6" stroke-width="0.900837"/>
<rect x="14.8637" y="212.147" width="55.8519" height="55.8519" rx="0.450419" stroke="#E5E5E5" stroke-width="0.900837"/>
<rect x="31.9797" y="229.263" width="21.6201" height="21.6201" rx="1.35126" stroke="#E5E5E5" stroke-width="0.900837" stroke-linejoin="round" stroke-dasharray="2.7 1.8"/>
<rect x="42.3394" y="216.201" width="0.900837" height="9.00837" fill="#2C2C2C"/>
<rect x="27.926" y="239.623" width="0.900837" height="9.00837" transform="rotate(90 27.926 239.623)" fill="#2C2C2C"/>
<rect x="66.6619" y="239.623" width="0.900837" height="9.00837" transform="rotate(90 66.6619 239.623)" fill="#2C2C2C"/>
<rect x="42.3394" y="254.937" width="0.900837" height="9.00837" fill="#2C2C2C"/>
<rect x="42.3394" y="232.416" width="0.900837" height="15.3142" fill="#2C2C2C"/>
<rect x="50.4468" y="239.623" width="0.900837" height="15.3142" transform="rotate(90 50.4468 239.623)" fill="#2C2C2C"/>
<path d="M90.0837 223.408L88.282 225.209M88.282 225.209L90.0837 227.011M88.282 225.209H96.3895M96.3895 225.209L94.5878 223.408M96.3895 225.209L94.5878 227.011" stroke="#B3B3B3" stroke-width="0.900837"/>
<path d="M94.1375 251.334L92.3358 249.532M92.3358 249.532L90.5341 251.334M92.3358 249.532L92.3358 257.64M92.3358 257.64L94.1375 255.838M92.3358 257.64L90.5341 255.838" stroke="#B3B3B3" stroke-width="0.900837"/>
<line y1="168.006" x2="215.3" y2="168.006" stroke="#E5E5E5" stroke-width="0.900837"/>
<path d="M18.2808 54.7153H19.3962C19.1534 53.3113 17.9535 52.34 16.3981 52.34C14.5331 52.34 13.1713 53.7441 13.1713 56.0454C13.1713 58.3257 14.4944 59.7438 16.4474 59.7438C18.1963 59.7438 19.4455 58.5966 19.4455 56.7774V55.9575H16.6128V56.8548H18.3934C18.3687 58.016 17.6016 58.7515 16.4474 58.7515C15.1771 58.7515 14.2516 57.7908 14.2516 56.0384C14.2516 54.293 15.1841 53.3324 16.4052 53.3324C17.3623 53.3324 18.0098 53.8602 18.2808 54.7153ZM20.7413 59.6453H21.7935V56.3445C21.7935 55.6372 22.3389 55.127 23.0849 55.127C23.3031 55.127 23.5494 55.1657 23.6339 55.1903V54.1839C23.5283 54.1699 23.3207 54.1593 23.187 54.1593C22.5536 54.1593 22.0117 54.5182 21.8146 55.0989H21.7583V54.2402H20.7413V59.6453ZM26.6276 59.7543C28.1513 59.7543 29.1471 58.6389 29.1471 56.9674C29.1471 55.2854 28.1513 54.1699 26.6276 54.1699C25.1039 54.1699 24.108 55.2854 24.108 56.9674C24.108 58.6389 25.1039 59.7543 26.6276 59.7543ZM26.6311 58.8711C25.6352 58.8711 25.1708 58.0019 25.1708 56.9639C25.1708 55.9293 25.6352 55.0496 26.6311 55.0496C27.6199 55.0496 28.0844 55.9293 28.0844 56.9639C28.0844 58.0019 27.6199 58.8711 26.6311 58.8711ZM33.7454 57.4037C33.7489 58.3222 33.0663 58.7585 32.4751 58.7585C31.8241 58.7585 31.3737 58.287 31.3737 57.5515V54.2402H30.3215V57.6782C30.3215 59.0189 31.057 59.7156 32.0951 59.7156C32.9079 59.7156 33.4604 59.2863 33.7102 58.7092H33.7665V59.6453H34.8011V54.2402H33.7454V57.4037ZM36.2148 61.6721H37.267V58.8042H37.3303C37.5203 59.1491 37.9074 59.7508 38.8927 59.7508C40.2017 59.7508 41.1518 58.7022 41.1518 56.9533C41.1518 55.2009 40.1876 54.1699 38.8821 54.1699C37.8792 54.1699 37.5168 54.7822 37.3303 55.1164H37.2423V54.2402H36.2148V61.6721ZM37.2458 56.9428C37.2458 55.8132 37.7385 55.0637 38.6569 55.0637C39.6105 55.0637 40.0891 55.8695 40.0891 56.9428C40.0891 58.0266 39.5965 58.8535 38.6569 58.8535C37.7526 58.8535 37.2458 58.0794 37.2458 56.9428Z" fill="#2C2C2C"/>
<path d="M50.4468 55.8518L53.1493 58.5543L55.8518 55.8518" stroke="#B6B6B6" stroke-width="0.900837"/>
<path d="M36.5332 90.3933C38.1977 90.3933 39.1724 89.035 39.1724 86.6739C39.1724 84.3303 38.1836 82.9685 36.5332 82.9685C34.8794 82.9685 33.8941 84.3267 33.8906 86.6739C33.8906 89.0315 34.8653 90.3898 36.5332 90.3933ZM36.5332 89.4538C35.5585 89.4538 34.9709 88.4755 34.9709 86.6739C34.9744 84.8792 35.562 83.8904 36.5332 83.8904C37.5009 83.8904 38.0921 84.8792 38.0921 86.6739C38.0921 88.4755 37.5045 89.4538 36.5332 89.4538Z" fill="#2C2C2C"/>
<path d="M34.0243 120.001H38.7677V119.069H35.5233V119.016L36.9555 117.517C38.2751 116.183 38.6516 115.546 38.6516 114.74C38.6516 113.583 37.7086 112.696 36.3503 112.696C35.0025 112.696 34.0172 113.569 34.0172 114.885H35.0553C35.0518 114.111 35.5515 113.604 36.3292 113.604C37.0611 113.604 37.6171 114.054 37.6171 114.772C37.6171 115.409 37.237 115.867 36.4629 116.686L34.0243 119.213V120.001ZM42.6104 120.121C44.2748 120.121 45.2496 118.763 45.2496 116.401C45.2496 114.058 44.2607 112.696 42.6104 112.696C40.9565 112.696 39.9712 114.054 39.9677 116.401C39.9677 118.759 40.9424 120.117 42.6104 120.121ZM42.6104 119.181C41.6356 119.181 41.048 118.203 41.048 116.401C41.0515 114.607 41.6392 113.618 42.6104 113.618C43.5781 113.618 44.1693 114.607 44.1693 116.401C44.1693 118.203 43.5816 119.181 42.6104 119.181ZM48.933 120.1C50.432 120.1 51.4912 119.248 51.4982 118.08C51.4912 117.172 50.8543 116.408 50.0484 116.264V116.222C50.7487 116.053 51.2238 115.395 51.2308 114.617C51.2238 113.516 50.2525 112.696 48.933 112.696C47.5993 112.696 46.6281 113.516 46.6351 114.617C46.6281 115.391 47.1031 116.053 47.8175 116.222V116.264C46.9976 116.408 46.3606 117.172 46.3677 118.08C46.3606 119.248 47.4198 120.1 48.933 120.1ZM48.933 119.209C48.0321 119.209 47.4621 118.731 47.4691 118.01C47.4621 117.26 48.0814 116.725 48.933 116.725C49.7705 116.725 50.3898 117.26 50.3968 118.01C50.3898 118.731 49.8232 119.209 48.933 119.209ZM48.933 115.856C48.2045 115.856 47.6873 115.395 47.6943 114.709C47.6873 114.033 48.1869 113.586 48.933 113.586C49.6649 113.586 50.1646 114.033 50.1716 114.709C50.1646 115.395 49.6508 115.856 48.933 115.856Z" fill="#2C2C2C"/>
<path d="M36.5332 148.047C38.1977 148.047 39.1724 146.689 39.1724 144.327C39.1724 141.984 38.1836 140.622 36.5332 140.622C34.8794 140.622 33.8941 141.98 33.8906 144.327C33.8906 146.685 34.8653 148.043 36.5332 148.047ZM36.5332 147.107C35.5585 147.107 34.9709 146.129 34.9709 144.327C34.9744 142.533 35.562 141.544 36.5332 141.544C37.5009 141.544 38.0921 142.533 38.0921 144.327C38.0921 146.129 37.5045 147.107 36.5332 147.107Z" fill="#2C2C2C"/>
<path d="M123.013 148.047C124.678 148.047 125.653 146.689 125.653 144.327C125.653 141.984 124.664 140.622 123.013 140.622C121.36 140.622 120.374 141.98 120.371 144.327C120.371 146.685 121.346 148.043 123.013 148.047ZM123.013 147.107C122.039 147.107 121.451 146.129 121.451 144.327C121.455 142.533 122.042 141.544 123.013 141.544C123.981 141.544 124.572 142.533 124.572 144.327C124.572 146.129 123.985 147.107 123.013 147.107Z" fill="#2C2C2C"/>
<path d="M102.245 149.539V145.485C102.245 143.495 103.858 141.882 105.848 141.882H109.902" stroke="#B6B6B6" stroke-width="0.900837"/>
<path d="M123.013 90.3933C124.678 90.3933 125.653 89.035 125.653 86.6739C125.653 84.3303 124.664 82.9685 123.013 82.9685C121.36 82.9685 120.374 84.3267 120.371 86.6739C120.371 89.0315 121.346 90.3898 123.013 90.3933ZM123.013 89.4538C122.039 89.4538 121.451 88.4755 121.451 86.6739C121.455 84.8792 122.042 83.8904 123.013 83.8904C123.981 83.8904 124.572 84.8792 124.572 86.6739C124.572 88.4755 123.985 89.4538 123.013 89.4538Z" fill="#2C2C2C"/>
<path d="M102.586 120.001H103.674V116.859H107.267V120.001H108.357V112.795H107.267V115.926H103.674V112.795H102.586V120.001Z" fill="#B3B3B3"/>
<path d="M120.747 120.001H121.884L125.019 113.759V112.795H120.255V113.727H123.893V113.78L120.747 120.001ZM128.533 120.1C130.032 120.1 131.091 119.248 131.098 118.08C131.091 117.172 130.454 116.408 129.648 116.264V116.222C130.349 116.053 130.824 115.395 130.831 114.617C130.824 113.516 129.852 112.696 128.533 112.696C127.199 112.696 126.228 113.516 126.235 114.617C126.228 115.391 126.703 116.053 127.417 116.222V116.264C126.597 116.408 125.961 117.172 125.968 118.08C125.961 119.248 127.02 120.1 128.533 120.1ZM128.533 119.209C127.632 119.209 127.062 118.731 127.069 118.01C127.062 117.26 127.681 116.725 128.533 116.725C129.37 116.725 129.99 117.26 129.997 118.01C129.99 118.731 129.423 119.209 128.533 119.209ZM128.533 115.856C127.804 115.856 127.287 115.395 127.294 114.709C127.287 114.033 127.787 113.586 128.533 113.586C129.265 113.586 129.764 114.033 129.772 114.709C129.764 115.395 129.251 115.856 128.533 115.856Z" fill="#2C2C2C"/>
<path d="M102.03 83.067L104.645 87.4445V90.2737H105.729V87.4445L108.343 83.067H107.108L105.226 86.3431H105.148L103.266 83.067H102.03Z" fill="#B3B3B3"/>
<path d="M16.6162 120.001H17.7141L19.2307 114.603H19.287L20.8036 120.001H21.898L23.9003 112.795H22.7531L21.3526 118.379H21.2857L19.8254 112.795H18.6923L17.232 118.375H17.1651L15.7611 112.795H14.6174L16.6162 120.001Z" fill="#B3B3B3"/>
<path d="M16.2151 83.7778L18.6924 87.156M21.1697 90.5341L18.6924 87.156M18.6924 87.156L21.1697 83.7778L16.2151 90.5341" stroke="#B3B3B3" stroke-width="0.900837"/>
<path d="M16.2151 141.431V144.584V148.188C16.2151 148.188 19.368 148.188 19.8184 148.188H22.9714" stroke="#B3B3B3" stroke-width="0.900837"/>
<path d="M16.2151 144.584C17.1159 144.584 18.1969 144.765 18.9176 145.485C19.8184 146.386 19.8184 147.737 19.8184 148.188" stroke="#B3B3B3" stroke-width="0.900837"/>
<path d="M187.824 143.233V140.981H190.077" stroke="black" stroke-width="0.900837"/>
<path d="M187.824 146.837V149.089H190.077" stroke="black" stroke-width="0.900837"/>
<path d="M195.932 143.233V140.981H193.68" stroke="black" stroke-width="0.900837"/>
<path d="M195.932 146.837V149.089H193.68" stroke="black" stroke-width="0.900837"/>
<circle cx="42.3393" cy="141.431" r="0.900837" stroke="black" stroke-width="0.900837"/>
<path d="M193.68 114.406C193.68 113.656 193.68 113.866 193.68 113.505C193.68 113.055 193.68 110.353 191.428 110.353C189.176 110.353 189.176 113.055 189.176 113.505V114.406" stroke="black" stroke-width="0.900837"/>
<path d="M193.68 118.01C193.68 118.76 193.68 118.55 193.68 118.911C193.68 119.361 193.68 122.063 191.428 122.063C189.176 122.063 189.176 119.361 189.176 118.911V118.01" stroke="black" stroke-width="0.900837"/>
<rect y="2.70239" width="212" height="64.8603" fill="white"/>
<line y1="67.1123" x2="212" y2="67.1123" stroke="#EFEFEF" stroke-width="0.900837"/>
<path d="M194.581 45.0417L197.283 47.7443L199.986 45.0417" stroke="black" stroke-width="0.900837"/>
<rect x="181.969" y="52.2485" width="0.900837" height="11.7109" transform="rotate(180 181.969 52.2485)" fill="black"/>
<rect x="191.878" y="52.2485" width="0.900837" height="11.7109" transform="rotate(180 191.878 52.2485)" fill="black"/>
<rect x="185.573" y="49.5461" width="6.30586" height="1.80167" transform="rotate(-90 185.573 49.5461)" fill="black"/>
<rect x="153.142" y="52.2485" width="0.900837" height="11.7109" transform="rotate(-90 153.142 52.2485)" fill="black"/>
<rect x="155.845" y="49.5461" width="9.00837" height="1.80167" transform="rotate(-90 155.845 49.5461)" fill="black"/>
<rect x="160.349" y="49.5461" width="5.40502" height="1.80167" transform="rotate(-90 160.349 49.5461)" fill="black"/>
<rect x="125.216" y="46.8435" width="0.900837" height="11.7109" transform="rotate(-90 125.216 46.8435)" fill="black"/>
<rect x="127.469" y="51.3477" width="9.90921" height="1.80167" transform="rotate(-90 127.469 51.3477)" fill="black"/>
<rect x="131.973" y="49.5461" width="6.30586" height="1.80167" transform="rotate(-90 131.973 49.5461)" fill="black"/>
<rect width="0.900837" height="11.7109" transform="matrix(4.37114e-08 1 1 -4.37114e-08 97.2905 40.5376)" fill="black"/>
<rect width="9.00837" height="1.80167" transform="matrix(4.37114e-08 1 1 -4.37114e-08 99.9929 43.2402)" fill="black"/>
<rect width="5.40502" height="1.80167" transform="matrix(4.37114e-08 1 1 -4.37114e-08 104.497 43.2402)" fill="black"/>
<rect width="0.900837" height="11.7109" transform="matrix(-1 0 0 1 81.0754 40.5376)" fill="black"/>
<rect width="9.00837" height="1.80167" transform="matrix(-1 0 0 1 78.3728 43.2402)" fill="black"/>
<rect width="5.40502" height="1.80167" transform="matrix(-1 0 0 1 78.3728 47.7444)" fill="black"/>
<rect x="45.0417" y="40.5376" width="0.900837" height="11.7109" fill="black"/>
<rect x="40.5376" y="42.7898" width="9.90921" height="1.80167" fill="black"/>
<rect x="42.3394" y="47.2939" width="6.30586" height="1.80167" fill="black"/>
<rect x="12.6118" y="40.5376" width="0.900837" height="11.7109" fill="black"/>
<rect x="15.3142" y="43.2402" width="9.00837" height="1.80167" fill="black"/>
<rect x="15.3142" y="47.7444" width="5.40502" height="1.80167" fill="black"/>
<path d="M115.255 17.9873C115.054 16.5318 113.934 15.6873 112.482 15.6873C110.77 15.6873 109.481 16.9349 109.481 19.0526C109.481 21.1671 110.754 22.4179 112.482 22.4179C114.04 22.4179 115.073 21.4103 115.255 20.1595L114.059 20.1531C113.908 20.9208 113.281 21.3527 112.498 21.3527C111.436 21.3527 110.674 20.5561 110.674 19.0526C110.674 17.5747 111.429 16.7525 112.501 16.7525C113.297 16.7525 113.921 17.2036 114.059 17.9873H115.255ZM118.434 22.4243C119.874 22.4243 120.789 21.4103 120.789 19.8907C120.789 18.368 119.874 17.3507 118.434 17.3507C116.995 17.3507 116.08 18.368 116.08 19.8907C116.08 21.4103 116.995 22.4243 118.434 22.4243ZM118.441 21.4966C117.644 21.4966 117.254 20.7865 117.254 19.8875C117.254 18.9886 117.644 18.2688 118.441 18.2688C119.224 18.2688 119.615 18.9886 119.615 19.8875C119.615 20.7865 119.224 21.4966 118.441 21.4966ZM123.595 22.4147C124.44 22.4147 124.82 21.9125 125.003 21.5542H125.073V22.3284H126.212V15.7768H125.051V18.2273H125.003C124.827 17.8722 124.465 17.3507 123.598 17.3507C122.463 17.3507 121.57 18.2401 121.57 19.8779C121.57 21.4966 122.437 22.4147 123.595 22.4147ZM123.918 21.4646C123.154 21.4646 122.751 20.7929 122.751 19.8715C122.751 18.9566 123.147 18.3008 123.918 18.3008C124.664 18.3008 125.073 18.9182 125.073 19.8715C125.073 20.8248 124.657 21.4646 123.918 21.4646ZM129.621 22.4243C130.766 22.4243 131.553 21.8645 131.758 21.0104L130.677 20.8888C130.52 21.3047 130.136 21.5222 129.637 21.5222C128.889 21.5222 128.393 21.0296 128.383 20.1882H131.806V19.8332C131.806 18.1089 130.77 17.3507 129.56 17.3507C128.153 17.3507 127.235 18.384 127.235 19.9003C127.235 21.4422 128.14 22.4243 129.621 22.4243ZM128.386 19.4077C128.422 18.7807 128.885 18.2528 129.576 18.2528C130.242 18.2528 130.69 18.7391 130.696 19.4077H128.386Z" fill="#B6B6B6"/>
<path d="M54.6965 22.3284H55.8833V20.1147H57.1373C58.6504 20.1147 59.463 19.2061 59.463 17.9457C59.463 16.6949 58.66 15.7768 57.1533 15.7768H54.6965V22.3284ZM55.8833 19.139V16.7685H56.971C57.8603 16.7685 58.2538 17.2484 58.2538 17.9457C58.2538 18.6431 57.8603 19.139 56.9774 19.139H55.8833ZM60.4427 22.3284H61.6007V19.4397C61.6007 18.8159 62.071 18.3744 62.7076 18.3744C62.9027 18.3744 63.1458 18.4096 63.245 18.4416V17.3763C63.1394 17.3571 62.9571 17.3443 62.8291 17.3443C62.2661 17.3443 61.7959 17.6642 61.6167 18.2337H61.5655V17.4147H60.4427V22.3284ZM65.9554 22.4243C67.3949 22.4243 68.3098 21.4103 68.3098 19.8907C68.3098 18.368 67.3949 17.3507 65.9554 17.3507C64.5158 17.3507 63.6009 18.368 63.6009 19.8907C63.6009 21.4103 64.5158 22.4243 65.9554 22.4243ZM65.9618 21.4966C65.1652 21.4966 64.7749 20.7865 64.7749 19.8875C64.7749 18.9886 65.1652 18.2688 65.9618 18.2688C66.7455 18.2688 67.1358 18.9886 67.1358 19.8875C67.1358 20.7865 66.7455 21.4966 65.9618 21.4966ZM71.7463 17.4147H70.777V16.2375H69.619V17.4147H68.9216V18.3104H69.619V21.0424C69.6126 21.9669 70.2844 22.4211 71.1545 22.3955C71.484 22.386 71.7111 22.322 71.8359 22.2804L71.6408 21.3751C71.5768 21.3911 71.4456 21.4199 71.3017 21.4199C71.0106 21.4199 70.777 21.3175 70.777 20.8504V18.3104H71.7463V17.4147ZM74.8054 22.4243C76.2449 22.4243 77.1598 21.4103 77.1598 19.8907C77.1598 18.368 76.2449 17.3507 74.8054 17.3507C73.3658 17.3507 72.4509 18.368 72.4509 19.8907C72.4509 21.4103 73.3658 22.4243 74.8054 22.4243ZM74.8118 21.4966C74.0152 21.4966 73.6249 20.7865 73.6249 19.8875C73.6249 18.9886 74.0152 18.2688 74.8118 18.2688C75.5955 18.2688 75.9858 18.9886 75.9858 19.8875C75.9858 20.7865 75.5955 21.4966 74.8118 21.4966ZM80.5964 17.4147H79.6271V16.2375H78.469V17.4147H77.7716V18.3104H78.469V21.0424C78.4626 21.9669 79.1344 22.4211 80.0045 22.3955C80.334 22.386 80.5612 22.322 80.6859 22.2804L80.4908 21.3751C80.4268 21.3911 80.2957 21.4199 80.1517 21.4199C79.8606 21.4199 79.6271 21.3175 79.6271 20.8504V18.3104H80.5964V17.4147ZM82.2846 24.171C83.1867 24.171 83.7082 23.7071 83.9865 22.9234L85.9603 17.4211L84.7223 17.4147L83.5866 21.1255H83.5354L82.403 17.4147H81.1746L82.9564 22.4307L82.8572 22.6963C82.6429 23.2561 82.3038 23.2945 81.7984 23.1473L81.5297 24.0494C81.6864 24.1134 81.9679 24.171 82.2846 24.171ZM86.764 24.171H87.9221V21.5542H87.97C88.1524 21.9125 88.5331 22.4147 89.3776 22.4147C90.5356 22.4147 91.4026 21.4966 91.4026 19.8779C91.4026 18.2401 90.51 17.3507 89.3744 17.3507C88.5075 17.3507 88.146 17.8722 87.97 18.2273H87.9029V17.4147H86.764V24.171ZM87.8997 19.8715C87.8997 18.9182 88.3091 18.3008 89.0545 18.3008C89.8255 18.3008 90.2221 18.9566 90.2221 19.8715C90.2221 20.7929 89.8191 21.4646 89.0545 21.4646C88.3155 21.4646 87.8997 20.8248 87.8997 19.8715ZM94.5696 22.4243C95.7148 22.4243 96.5018 21.8645 96.7065 21.0104L95.6252 20.8888C95.4685 21.3047 95.0846 21.5222 94.5856 21.5222C93.837 21.5222 93.3412 21.0296 93.3316 20.1882H96.7545V19.8332C96.7545 18.1089 95.718 17.3507 94.5088 17.3507C93.1012 17.3507 92.1831 18.384 92.1831 19.9003C92.1831 21.4422 93.0884 22.4243 94.5696 22.4243ZM93.3348 19.4077C93.3699 18.7807 93.8338 18.2528 94.5248 18.2528C95.1902 18.2528 95.638 18.7391 95.6444 19.4077H93.3348Z" fill="#B6B6B6"/>
<path d="M15.4781 22.3284C17.4743 22.3284 18.6579 21.0936 18.6579 19.0462C18.6579 17.0052 17.4743 15.7768 15.5229 15.7768H13.258V22.3284H15.4781ZM14.4448 21.3015V16.8037H15.4557C16.7865 16.8037 17.4807 17.5459 17.4807 19.0462C17.4807 20.5529 16.7865 21.3015 15.4205 21.3015H14.4448ZM21.9097 22.4243C23.0549 22.4243 23.8419 21.8645 24.0466 21.0104L22.9654 20.8888C22.8086 21.3047 22.4247 21.5222 21.9257 21.5222C21.1771 21.5222 20.6813 21.0296 20.6717 20.1882H24.0946V19.8332C24.0946 18.1089 23.0581 17.3507 21.8489 17.3507C20.4414 17.3507 19.5232 18.384 19.5232 19.9003C19.5232 21.4422 20.4286 22.4243 21.9097 22.4243ZM20.6749 19.4077C20.7101 18.7807 21.1739 18.2528 21.8649 18.2528C22.5303 18.2528 22.9782 18.7391 22.9846 19.4077H20.6749ZM28.9579 18.7135C28.7979 17.8818 28.1325 17.3507 26.9809 17.3507C25.7973 17.3507 24.9911 17.9329 24.9943 18.8415C24.9911 19.558 25.4326 20.0315 26.3763 20.2266L27.2144 20.4026C27.6655 20.5017 27.8766 20.6841 27.8766 20.9624C27.8766 21.2983 27.5119 21.551 26.9617 21.551C26.4307 21.551 26.0852 21.3207 25.986 20.8792L24.8568 20.988C25.0007 21.8901 25.7589 22.4243 26.9649 22.4243C28.1933 22.4243 29.0603 21.7877 29.0635 20.8568C29.0603 20.1563 28.6092 19.7276 27.6815 19.526L26.8433 19.3469C26.3443 19.2349 26.146 19.0622 26.1492 18.7775C26.146 18.4448 26.5139 18.2145 26.9969 18.2145C27.5311 18.2145 27.8126 18.5056 27.9022 18.8287L28.9579 18.7135ZM30.0184 22.3284H31.1764V17.4147H30.0184V22.3284ZM30.6006 16.7173C30.9685 16.7173 31.2692 16.4358 31.2692 16.0903C31.2692 15.7416 30.9685 15.4601 30.6006 15.4601C30.2295 15.4601 29.9288 15.7416 29.9288 16.0903C29.9288 16.4358 30.2295 16.7173 30.6006 16.7173ZM34.5041 24.2734C35.8317 24.2734 36.8106 23.6655 36.8106 22.4083V17.4147H35.6686V18.2273H35.6046C35.4287 17.8722 35.0608 17.3507 34.1938 17.3507C33.0582 17.3507 32.1657 18.2401 32.1657 19.8555C32.1657 21.4582 33.0582 22.258 34.1906 22.258C35.032 22.258 35.4255 21.8069 35.6046 21.4454H35.6622V22.3764C35.6622 23.0993 35.1823 23.3968 34.5233 23.3968C33.826 23.3968 33.5189 23.0673 33.3781 22.7794L32.3352 23.0321C32.5464 23.7199 33.2533 24.2734 34.5041 24.2734ZM34.5137 21.3495C33.7492 21.3495 33.3461 20.7545 33.3461 19.8491C33.3461 18.9566 33.7428 18.3008 34.5137 18.3008C35.2591 18.3008 35.6686 18.9182 35.6686 19.8491C35.6686 20.7865 35.2527 21.3495 34.5137 21.3495ZM39.1555 19.4493C39.1555 18.7391 39.5841 18.3296 40.1952 18.3296C40.7934 18.3296 41.1517 18.7231 41.1517 19.3789V22.3284H42.3097V19.1998C42.3129 18.0225 41.6411 17.3507 40.627 17.3507C39.8912 17.3507 39.3858 17.7026 39.1619 18.2496H39.1043V17.4147H37.9974V22.3284H39.1555V19.4493Z" fill="black"/>
</svg>
