<svg width="128" height="128" viewBox="0 0 128 128" fill="none" xmlns="http://www.w3.org/2000/svg">
<rect width="128" height="128" fill="#F0F0F0"/>
<rect x="22" y="42.5" width="49" height="71.3696" rx="3.62101" fill="white"/>
<g clip-path="url(#clip0)">
<path d="M58.6476 57.9611L53.3215 52.635C53.222 52.5363 53.1039 52.4582 52.9742 52.4052C52.8444 52.3521 52.7054 52.3253 52.5652 52.3261H35.5217C34.9567 52.3261 34.4148 52.5505 34.0153 52.9501C33.6158 53.3496 33.3913 53.8915 33.3913 54.4565V75.7609C33.3913 76.3259 33.6158 76.8678 34.0153 77.2673C34.4148 77.6668 34.9567 77.8913 35.5217 77.8913H56.8261C57.3911 77.8913 57.933 77.6668 58.3325 77.2673C58.7321 76.8678 58.9565 76.3259 58.9565 75.7609V58.7174C58.9573 58.5772 58.9305 58.4382 58.8774 58.3084C58.8244 58.1787 58.7463 58.0606 58.6476 57.9611ZM41.913 54.4565H50.4348V58.7174H41.913V54.4565ZM50.4348 75.7609H41.913V67.2391H50.4348V75.7609ZM52.5652 75.7609V67.2391C52.5652 66.6741 52.3408 66.1322 51.9412 65.7327C51.5417 65.3332 50.9998 65.1087 50.4348 65.1087H41.913C41.348 65.1087 40.8061 65.3332 40.4066 65.7327C40.0071 66.1322 39.7826 66.6741 39.7826 67.2391V75.7609H35.5217V54.4565H39.7826V58.7174C39.7826 59.2824 40.0071 59.8243 40.4066 60.2238C40.8061 60.6234 41.348 60.8478 41.913 60.8478H50.4348C50.9998 60.8478 51.5417 60.6234 51.9412 60.2238C52.3408 59.8243 52.5652 59.2824 52.5652 58.7174V54.8933L56.8261 59.1541V75.7609H52.5652Z" fill="black"/>
</g>
<rect x="27" y="47" width="38.3478" height="35.1522" rx="1.81051" stroke="#7B61FF" stroke-width="2"/>
<rect x="27.0127" y="87.0236" width="38.3224" height="9.05253" rx="1.81051" stroke="#7B61FF" stroke-width="2"/>
<rect x="27.0127" y="100.947" width="38.3224" height="9.05253" rx="1.81051" stroke="#7B61FF" stroke-width="2"/>
<rect x="22" y="42.5" width="49" height="71.3696" rx="3.62101" stroke="#7B61FF" stroke-width="2"/>
<rect x="61.413" y="28.6522" width="49" height="72.4348" rx="3.62101" fill="white"/>
<rect x="67" y="33" width="38.3224" height="9.05253" rx="1.81051" stroke="#7B61FF" stroke-width="2"/>
<rect x="67" y="48.4737" width="38.3224" height="9.05253" rx="1.81051" stroke="#7B61FF" stroke-width="2"/>
<rect x="67" y="63.9475" width="38.3224" height="9.05253" rx="1.81051" stroke="#7B61FF" stroke-width="2"/>
<rect x="61.413" y="28.6522" width="49" height="72.4348" rx="3.62101" stroke="#7B61FF" stroke-width="2"/>
<path d="M85.6695 28.4104C86.4238 28.4104 87.0273 27.8069 87.0273 27.0525C87.0273 26.2982 86.4238 25.6946 85.6695 25.6946C84.9151 25.6946 84.3116 26.2982 84.3116 27.0525C84.3116 27.8069 84.9151 28.4104 85.6695 28.4104Z" fill="white"/>
<path d="M45.7347 40.0115C46.1253 40.402 46.7584 40.402 47.1489 40.0115L53.5129 33.6475C53.9034 33.257 53.9034 32.6238 53.5129 32.2333C53.1224 31.8428 52.4892 31.8428 52.0987 32.2333L46.4418 37.8901L40.785 32.2333C40.3945 31.8428 39.7613 31.8428 39.3708 32.2333C38.9802 32.6238 38.9802 33.257 39.3708 33.6475L45.7347 40.0115ZM86.0273 27.0525C86.0273 27.2546 85.8716 27.4104 85.6695 27.4104V29.4104C86.9761 29.4104 88.0273 28.3592 88.0273 27.0525H86.0273ZM85.6695 27.4104C85.4674 27.4104 85.3116 27.2546 85.3116 27.0525H83.3116C83.3116 28.3592 84.3628 29.4104 85.6695 29.4104V27.4104ZM85.3116 27.0525C85.3116 26.8504 85.4674 26.6946 85.6695 26.6946V24.6946C84.3628 24.6946 83.3116 25.7459 83.3116 27.0525H85.3116ZM85.6695 26.6946C85.8716 26.6946 86.0273 26.8504 86.0273 27.0525H88.0273C88.0273 25.7459 86.9761 24.6946 85.6695 24.6946V26.6946ZM86.6695 25.6946V24.035H84.6695V25.6946H86.6695ZM79.6344 17L52.4768 17V19L79.6344 19V17ZM45.4418 24.035V39.3043H47.4418V24.035H45.4418ZM52.4768 17C48.5915 17 45.4418 20.1497 45.4418 24.035H47.4418C47.4418 21.2543 49.6961 19 52.4768 19V17ZM86.6695 24.035C86.6695 20.1497 83.5198 17 79.6344 17V19C82.4152 19 84.6695 21.2543 84.6695 24.035H86.6695Z" fill="black"/>
<defs>
<clipPath id="clip0">
<rect x="27" y="47" width="38.3478" height="35.1522" rx="1.81051" fill="white"/>
</clipPath>
</defs>
</svg>
