<svg width="1498" height="40" viewBox="0 0 1498 40" fill="none" xmlns="http://www.w3.org/2000/svg">
<rect width="1498" height="40" fill="#2C2C2C"/>
<path d="M802.792 22.1025L805.204 19.9736L804.522 19.2915L802.792 20.7384L801.063 19.2915L800.381 19.9736L802.792 22.1025Z" fill="white"/>
<path d="M746.415 17.7703C746.175 16.27 745 15.3931 743.517 15.3931C741.702 15.3931 740.362 16.753 740.362 18.9966C740.362 21.2402 741.695 22.6001 743.517 22.6001C745.059 22.6001 746.185 21.6341 746.415 20.2468L745.346 20.2434C745.165 21.1409 744.411 21.6341 743.524 21.6341C742.322 21.6341 741.414 20.7127 741.414 18.9966C741.414 17.2942 742.318 16.359 743.527 16.359C744.421 16.359 745.172 16.8626 745.346 17.7703H746.415ZM749.816 22.6103C751.299 22.6103 752.268 21.5245 752.268 19.8974C752.268 18.2601 751.299 17.1743 749.816 17.1743C748.332 17.1743 747.363 18.2601 747.363 19.8974C747.363 21.5245 748.332 22.6103 749.816 22.6103ZM749.819 21.7506C748.85 21.7506 748.397 20.9045 748.397 19.894C748.397 18.887 748.85 18.0306 749.819 18.0306C750.781 18.0306 751.234 18.887 751.234 19.894C751.234 20.9045 750.781 21.7506 749.819 21.7506ZM754.435 19.3802C754.435 18.541 754.949 18.0614 755.662 18.0614C756.357 18.0614 756.778 18.517 756.778 19.2809V22.5042H757.803V19.1576C757.803 17.8559 757.087 17.1743 756.011 17.1743C755.22 17.1743 754.703 17.5408 754.459 18.0991H754.394V17.2428H753.411V22.5042H754.435V19.3802ZM761.632 17.2428H760.553V15.9822H759.529V17.2428H758.758V18.0649H759.529V21.1717C759.526 22.1274 760.255 22.5898 761.064 22.5727C761.389 22.5692 761.608 22.5076 761.728 22.463L761.543 21.617C761.475 21.6307 761.348 21.6615 761.183 21.6615C760.851 21.6615 760.553 21.5519 760.553 20.9593V18.0649H761.632V17.2428ZM762.765 22.5042H763.789V19.2912C763.789 18.6027 764.32 18.106 765.046 18.106C765.259 18.106 765.499 18.1437 765.581 18.1676V17.188C765.478 17.1743 765.276 17.164 765.146 17.164C764.529 17.164 764.002 17.5134 763.81 18.0786H763.755V17.2428H762.765V22.5042ZM766.467 22.5042H767.491V17.2428H766.467V22.5042ZM766.984 16.431C767.337 16.431 767.632 16.1569 767.632 15.8212C767.632 15.4856 767.337 15.2081 766.984 15.2081C766.628 15.2081 766.337 15.4856 766.337 15.8212C766.337 16.1569 766.628 16.431 766.984 16.431ZM768.951 22.5042H769.952V21.6855H770.037C770.222 22.0212 770.599 22.6069 771.558 22.6069C772.832 22.6069 773.757 21.5862 773.757 19.8837C773.757 18.1779 772.819 17.1743 771.548 17.1743C770.572 17.1743 770.219 17.7703 770.037 18.0957H769.976V15.489H768.951V22.5042ZM769.955 19.8735C769.955 18.7739 770.435 18.0443 771.329 18.0443C772.257 18.0443 772.723 18.8287 772.723 19.8735C772.723 20.9285 772.243 21.7334 771.329 21.7334C770.448 21.7334 769.955 20.9799 769.955 19.8735ZM778.24 20.3222C778.244 21.2162 777.579 21.641 777.004 21.641C776.37 21.641 775.931 21.182 775.931 20.4661V17.2428H774.907V20.5894C774.907 21.8944 775.623 22.5727 776.634 22.5727C777.425 22.5727 777.963 22.1548 778.206 21.593H778.261V22.5042H779.268V17.2428H778.24V20.3222ZM783.1 17.2428H782.021V15.9822H780.997V17.2428H780.226V18.0649H780.997V21.1717C780.993 22.1274 781.723 22.5898 782.531 22.5727C782.857 22.5692 783.076 22.5076 783.196 22.463L783.011 21.617C782.942 21.6307 782.816 21.6615 782.651 21.6615C782.319 21.6615 782.021 21.5519 782.021 20.9593V18.0649H783.1V17.2428ZM786.444 22.6103C787.591 22.6103 788.403 22.0452 788.636 21.1888L787.667 21.0141C787.482 21.5108 787.036 21.7643 786.454 21.7643C785.577 21.7643 784.988 21.1957 784.961 20.1817H788.701V19.8187C788.701 17.9176 787.564 17.1743 786.372 17.1743C784.906 17.1743 783.94 18.2909 783.94 19.9077C783.94 21.5416 784.892 22.6103 786.444 22.6103ZM784.964 19.4145C785.005 18.6677 785.546 18.0203 786.379 18.0203C787.173 18.0203 787.694 18.6095 787.698 19.4145H784.964Z" fill="white"/>
<line x1="731.362" y1="14.6844" x2="726.539" y2="24.3303" stroke="#B6B6B6" stroke-width="0.964585"/>
<path d="M685.726 22.5044H686.784V19.4455H689.764V18.5378H686.784V16.4004H690.076V15.4892H685.726V22.5044ZM691.296 22.5044H692.32V17.243H691.296V22.5044ZM691.813 16.4312C692.166 16.4312 692.46 16.1572 692.46 15.8215C692.46 15.4858 692.166 15.2084 691.813 15.2084C691.457 15.2084 691.165 15.4858 691.165 15.8215C691.165 16.1572 691.457 16.4312 691.813 16.4312ZM695.904 24.587C697.243 24.587 698.277 23.9739 698.277 22.6209V17.243H697.274V18.0959H697.198C697.017 17.7705 696.654 17.1745 695.674 17.1745C694.403 17.1745 693.468 18.1781 693.468 19.8532C693.468 21.5316 694.424 22.4256 695.667 22.4256C696.633 22.4256 697.007 21.881 697.191 21.5453H697.257V22.5798C697.257 23.4053 696.691 23.7615 695.914 23.7615C695.061 23.7615 694.729 23.3333 694.547 23.0319L693.667 23.395C693.944 24.039 694.646 24.587 695.904 24.587ZM695.893 21.5761C694.979 21.5761 694.503 20.8739 694.503 19.8395C694.503 18.829 694.968 18.0446 695.893 18.0446C696.787 18.0446 697.267 18.7742 697.267 19.8395C697.267 20.9253 696.777 21.5761 695.893 21.5761ZM699.651 22.5044H700.675V19.2606C700.675 18.5515 701.172 18.0583 701.754 18.0583C702.323 18.0583 702.717 18.4351 702.717 19.0071V22.5044H703.737V19.151C703.737 18.5173 704.124 18.0583 704.792 18.0583C705.334 18.0583 705.779 18.3597 705.779 19.0722V22.5044H706.803V18.9763C706.803 17.774 706.132 17.1745 705.179 17.1745C704.422 17.1745 703.854 17.5376 703.6 18.0994H703.546C703.316 17.5239 702.833 17.1745 702.131 17.1745C701.436 17.1745 700.918 17.5205 700.699 18.0994H700.634V17.243H699.651V22.5044ZM709.707 22.6209C710.577 22.6209 711.067 22.179 711.262 21.7851H711.303V22.5044H712.303V19.0105C712.303 17.4794 711.098 17.1745 710.262 17.1745C709.31 17.1745 708.433 17.5582 708.09 18.5173L709.053 18.7365C709.203 18.3631 709.587 18.0035 710.276 18.0035C710.937 18.0035 711.276 18.3494 711.276 18.9454V18.9694C711.276 19.3428 710.892 19.3359 709.947 19.4455C708.95 19.562 707.929 19.8223 707.929 21.0178C707.929 22.0522 708.707 22.6209 709.707 22.6209ZM709.93 21.7988C709.351 21.7988 708.933 21.5384 708.933 21.0315C708.933 20.4834 709.419 20.2882 710.012 20.2094C710.344 20.1649 711.132 20.0758 711.279 19.9285V20.6067C711.279 21.2302 710.783 21.7988 709.93 21.7988ZM719.843 18.9968C719.843 16.7532 718.501 15.3933 716.685 15.3933C714.863 15.3933 713.524 16.7532 713.524 18.9968C713.524 21.237 714.863 22.6003 716.685 22.6003C718.501 22.6003 719.843 21.2404 719.843 18.9968ZM718.795 18.9968C718.795 20.7061 717.891 21.6344 716.685 21.6344C715.476 21.6344 714.575 20.7061 714.575 18.9968C714.575 17.2876 715.476 16.3593 716.685 16.3593C717.891 16.3593 718.795 17.2876 718.795 18.9968ZM721.163 22.5044H722.222V20.0381H723.66C725.287 20.0381 726.092 19.055 726.092 17.7603C726.092 16.4689 725.294 15.4892 723.664 15.4892H721.163V22.5044ZM722.222 19.1407V16.397H723.551C724.599 16.397 725.027 16.9656 725.027 17.7603C725.027 18.5549 724.599 19.1407 723.564 19.1407H722.222Z" fill="#B6B6B6"/>
<path d="M1478.74 22.4155L1481.15 20.2866L1480.47 19.6045L1478.74 21.0514L1477.01 19.6045L1476.33 20.2866L1478.74 22.4155Z" fill="#C4C4C4"/>
<path d="M1446.07 14.7073H1444.83L1442.73 16.0802V17.2969L1444.74 15.9815H1444.79V23.1255H1446.07V14.7073ZM1451.28 23.2652C1453.22 23.2652 1454.36 21.6786 1454.36 18.9205C1454.36 16.1829 1453.2 14.5922 1451.28 14.5922C1449.34 14.5922 1448.19 16.1788 1448.19 18.9205C1448.19 21.6745 1449.33 23.2611 1451.28 23.2652ZM1451.28 22.1678C1450.14 22.1678 1449.45 21.0251 1449.45 18.9205C1449.46 16.8242 1450.14 15.6691 1451.28 15.6691C1452.41 15.6691 1453.1 16.8242 1453.1 18.9205C1453.1 21.0251 1452.41 22.1678 1451.28 22.1678ZM1458.75 23.2652C1460.69 23.2652 1461.83 21.6786 1461.83 18.9205C1461.83 16.1829 1460.68 14.5922 1458.75 14.5922C1456.82 14.5922 1455.67 16.1788 1455.66 18.9205C1455.66 21.6745 1456.8 23.2611 1458.75 23.2652ZM1458.75 22.1678C1457.61 22.1678 1456.92 21.0251 1456.92 18.9205C1456.93 16.8242 1457.61 15.6691 1458.75 15.6691C1459.88 15.6691 1460.57 16.8242 1460.57 18.9205C1460.57 21.0251 1459.88 22.1678 1458.75 22.1678ZM1467.68 21.5471C1467.69 22.4966 1468.28 23.2981 1469.4 23.2981C1470.5 23.2981 1471.1 22.4966 1471.1 21.5471V21.1031C1471.1 20.1495 1470.52 19.3521 1469.4 19.3521C1468.3 19.3521 1467.69 20.1536 1467.68 21.1031V21.5471ZM1463.45 16.7296C1463.45 17.6791 1464.05 18.4807 1465.16 18.4807C1466.26 18.4807 1466.87 17.6833 1466.87 16.7296V16.2857C1466.87 15.3321 1466.28 14.5347 1465.16 14.5347C1464.07 14.5347 1463.45 15.3321 1463.45 16.2857V16.7296ZM1463.79 23.1255H1464.78L1470.56 14.7073H1469.58L1463.79 23.1255ZM1468.64 21.1031C1468.64 20.6304 1468.85 20.1742 1469.4 20.1742C1469.96 20.1742 1470.14 20.6304 1470.14 21.1031V21.5471C1470.14 22.0198 1469.95 22.476 1469.4 22.476C1468.84 22.476 1468.64 22.0157 1468.64 21.5471V21.1031ZM1464.41 16.2857C1464.41 15.8171 1464.62 15.3567 1465.16 15.3567C1465.73 15.3567 1465.91 15.813 1465.91 16.2857V16.7296C1465.91 17.2023 1465.71 17.6586 1465.16 17.6586C1464.6 17.6586 1464.41 17.2023 1464.41 16.7296V16.2857Z" fill="#C4C4C4"/>
<path d="M1417.97 16.3925L1425.21 20.5692L1417.97 24.746L1417.97 16.3925Z" stroke="#C4C4C4" stroke-width="0.964585"/>
<rect x="1340.32" y="5.13574" width="56.9105" height="28.9375" rx="3.85834" fill="#469FF4"/>
<path d="M1358.6 17.5386H1359.59C1359.55 16.2685 1358.37 15.319 1356.75 15.319C1355.14 15.319 1353.87 16.2562 1353.87 17.6702C1353.87 18.8047 1354.69 19.4788 1356.01 19.8569L1357.04 20.1529C1357.93 20.3995 1358.72 20.7119 1358.72 21.5504C1358.72 22.4712 1357.83 23.0795 1356.66 23.0795C1355.66 23.0795 1354.77 22.6356 1354.69 21.682H1353.64C1353.74 23.0631 1354.86 24.0003 1356.66 24.0003C1358.6 24.0003 1359.71 22.9316 1359.71 21.5669C1359.71 19.9885 1358.21 19.4788 1357.34 19.2486L1356.48 19.0184C1355.86 18.854 1354.86 18.5252 1354.86 17.6209C1354.86 16.8152 1355.6 16.2233 1356.71 16.2233C1357.73 16.2233 1358.51 16.7083 1358.6 17.5386ZM1362.22 20.0542C1362.22 18.9526 1362.92 18.3279 1363.88 18.3279C1364.79 18.3279 1365.34 18.9033 1365.34 19.9063V23.8523H1366.31V19.8405C1366.31 18.2169 1365.45 17.4564 1364.16 17.4564C1363.17 17.4564 1362.6 17.8716 1362.3 18.5252H1362.22V15.4341H1361.25V23.8523H1362.22V20.0542ZM1369.95 24.0003C1371.05 24.0003 1371.62 23.4084 1371.82 22.9973H1371.87V23.8523H1372.84V19.6925C1372.84 17.6866 1371.31 17.4564 1370.51 17.4564C1369.55 17.4564 1368.47 17.7853 1367.97 18.9362L1368.9 19.265C1369.11 18.8047 1369.61 18.3114 1370.54 18.3114C1371.43 18.3114 1371.87 18.7841 1371.87 19.5939V19.6268C1371.87 20.0953 1371.39 20.0542 1370.24 20.2022C1369.07 20.3543 1367.79 20.6133 1367.79 22.0601C1367.79 23.2933 1368.75 24.0003 1369.95 24.0003ZM1370.1 23.1289C1369.32 23.1289 1368.76 22.7836 1368.76 22.1095C1368.76 21.3696 1369.44 21.1394 1370.19 21.0407C1370.61 20.9914 1371.71 20.8763 1371.87 20.679V21.5669C1371.87 22.3561 1371.25 23.1289 1370.1 23.1289ZM1374.61 23.8523H1375.58V19.8569C1375.58 19.002 1376.26 18.3772 1377.18 18.3772C1377.44 18.3772 1377.7 18.4265 1377.77 18.4429V17.4564C1377.66 17.4482 1377.4 17.44 1377.26 17.44C1376.5 17.44 1375.84 17.8675 1375.61 18.4923H1375.55V17.5386H1374.61V23.8523ZM1381.37 23.9838C1382.66 23.9838 1383.59 23.3426 1383.89 22.389L1382.95 22.1259C1382.71 22.7836 1382.13 23.1124 1381.37 23.1124C1380.23 23.1124 1379.45 22.3766 1379.4 21.0243H1383.99V20.6133C1383.99 18.2621 1382.59 17.4564 1381.27 17.4564C1379.56 17.4564 1378.43 18.8047 1378.43 20.7448C1378.43 22.6849 1379.55 23.9838 1381.37 23.9838ZM1379.4 20.1858C1379.47 19.2034 1380.16 18.3279 1381.27 18.3279C1382.33 18.3279 1383 19.1171 1383 20.1858H1379.4Z" fill="white"/>
<circle cx="1305.68" cy="19.6045" r="13.5042" fill="black"/>
<path d="M1300.85 23.9341C1300.85 22.5902 1301.94 21.4897 1303.29 21.4897H1305.68V23.9451C1305.68 25.2769 1304.6 26.3565 1303.27 26.3565V26.3565C1301.93 26.3565 1300.85 25.266 1300.85 23.9341V23.9341Z" fill="#0ACF83"/>
<path d="M1300.85 19.122C1300.85 17.8144 1301.91 16.7544 1303.22 16.7544H1305.68V21.4896H1303.22C1301.91 21.4896 1300.85 20.4296 1300.85 19.122V19.122Z" fill="#A259FF"/>
<path d="M1305.68 19.122C1305.68 17.8144 1306.74 16.7544 1308.04 16.7544H1308.13C1309.44 16.7544 1310.5 17.8144 1310.5 19.122V19.122C1310.5 20.4296 1309.44 21.4896 1308.13 21.4896H1308.04C1306.74 21.4896 1305.68 20.4296 1305.68 19.122V19.122Z" fill="#1ABCFE"/>
<path d="M1310.5 14.3211C1310.5 12.9772 1309.41 11.8877 1308.07 11.8877H1305.68V16.7545H1308.07C1309.41 16.7545 1310.5 15.665 1310.5 14.3211V14.3211Z" fill="#FF7262"/>
<path d="M1300.85 14.3211C1300.85 12.9772 1301.94 11.8877 1303.29 11.8877H1305.68V16.7545H1303.29C1301.94 16.7545 1300.85 15.665 1300.85 14.3211V14.3211Z" fill="#F24E1E"/>
<rect x="262.367" width="38.5834" height="38.5834" fill="#469FF4"/>
<path fill-rule="evenodd" clip-rule="evenodd" d="M275.208 21.1581C273.942 16.8802 276.422 11.575 282.057 11.575C286.099 11.575 289.375 15.0678 289.375 18.7815C289.375 22.4951 286.099 26.0437 282.057 26.0437C281.175 26.0437 280.512 25.7682 279.73 25.5057L272.977 26.0437L275.208 21.1581Z" stroke="#E5E5E5" stroke-width="0.964585"/>
<rect x="262.367" width="38.5834" height="38.5834" fill="black"/>
<path fill-rule="evenodd" clip-rule="evenodd" d="M275.208 21.1581C273.942 16.8802 276.422 11.575 282.057 11.575C286.099 11.575 289.375 15.0678 289.375 18.7815C289.375 22.4951 286.099 26.0437 282.057 26.0437C281.175 26.0437 280.512 25.7682 279.73 25.5057L272.977 26.0437L275.208 21.1581Z" stroke="#E5E5E5" stroke-width="0.964585"/>
<rect x="262.367" width="38.5834" height="38.5834" fill="#2C2C2C"/>
<path fill-rule="evenodd" clip-rule="evenodd" d="M275.208 21.1581C273.942 16.8802 276.422 11.575 282.057 11.575C286.099 11.575 289.375 15.0678 289.375 18.7815C289.375 22.4951 286.099 26.0437 282.057 26.0437C281.175 26.0437 280.512 25.7682 279.73 25.5057L272.977 26.0437L275.208 21.1581Z" stroke="#E5E5E5" stroke-width="0.964585"/>
<rect x="223.784" width="38.5834" height="38.5834" fill="#469FF4"/>
<path d="M240.182 26.0437H243.316M246.451 26.0437H243.316M243.316 26.0437V11.575M243.316 11.575H249.345V14.951M243.316 11.575H237.288V14.951" stroke="white" stroke-width="0.964585"/>
<rect x="223.784" width="38.5834" height="38.5834" fill="black"/>
<path d="M240.182 26.0437H243.316M246.451 26.0437H243.316M243.316 26.0437V11.575M243.316 11.575H249.345V14.951M243.316 11.575H237.288V14.951" stroke="#E5E5E5" stroke-width="0.964585"/>
<rect x="223.784" width="38.5834" height="38.5834" fill="#2C2C2C"/>
<path d="M240.182 26.0437H243.316M246.451 26.0437H243.316M243.316 26.0437V11.575M243.316 11.575H249.345V14.951M243.316 11.575H237.288V14.951" stroke="#E5E5E5" stroke-width="0.964585"/>
<rect x="177.484" width="46.3001" height="38.5834" fill="#469FF4"/>
<path d="M214.017 21.1673L217.018 18.3263L216.268 17.7913L214.017 19.6668L211.767 17.7913L211.016 18.3263L214.017 21.1673Z" fill="white"/>
<path fill-rule="evenodd" clip-rule="evenodd" d="M191.12 11.7826L190.393 11.575L190.511 12.3216C190.758 13.885 191.37 16.2045 192.099 18.3122C192.465 19.3677 192.863 20.3802 193.265 21.2252C193.66 22.0558 194.081 22.7738 194.505 23.1978C195.361 24.0534 196.521 24.2647 197.509 24.2432C198.311 24.2258 199.053 24.055 199.544 23.8959L201.739 26.0916L202.08 26.4326L202.421 26.0916L205.315 23.1978L205.656 22.8568L205.315 22.5157L203.074 20.2744C203.151 19.7159 203.238 18.9327 203.164 18.1108C203.077 17.1596 202.77 16.1118 201.939 15.2813C201.501 14.8436 200.786 14.4827 199.979 14.1703C199.155 13.8518 198.171 13.5601 197.14 13.2873C196.211 13.0414 195.234 12.808 194.291 12.5829L193.979 12.5082C192.937 12.2592 191.953 12.0204 191.12 11.7826ZM193.011 17.9967C192.511 16.5518 192.071 15.0145 191.77 13.7107L196.434 18.3746C196.344 18.5635 196.293 18.7751 196.293 18.9984C196.293 19.7975 196.941 20.4453 197.74 20.4453C198.539 20.4453 199.187 19.7975 199.187 18.9984C199.187 18.1993 198.539 17.5516 197.74 17.5516C197.516 17.5516 197.305 17.6022 197.116 17.6926L192.588 13.1641C192.967 13.2577 193.358 13.3517 193.754 13.4464L194.066 13.5209L194.066 13.5209C195.011 13.7465 195.976 13.9771 196.893 14.2197C197.912 14.4895 198.857 14.7705 199.631 15.0699C200.421 15.3755 200.971 15.6777 201.257 15.9634C201.874 16.5799 202.129 17.3808 202.203 18.1981C202.278 19.0193 202.166 19.8115 202.085 20.3771L202.051 20.6158L202.222 20.7863L204.292 22.8568L202.08 25.0685L200.01 22.998L199.785 22.7732L199.49 22.8913C199.132 23.0345 198.345 23.2603 197.488 23.2789C196.627 23.2976 195.778 23.107 195.187 22.5157C194.888 22.2163 194.525 21.6281 194.136 20.8109C193.754 20.0081 193.369 19.031 193.011 17.9967Z" fill="white"/>
<rect x="177.484" width="46.3001" height="38.5834" fill="black"/>
<path d="M214.017 21.1673L217.018 18.3263L216.268 17.7913L214.017 19.6668L211.767 17.7913L211.016 18.3263L214.017 21.1673Z" fill="#E5E5E5"/>
<path fill-rule="evenodd" clip-rule="evenodd" d="M191.12 11.7826L190.393 11.575L190.511 12.3216C190.758 13.885 191.37 16.2045 192.099 18.3122C192.465 19.3677 192.863 20.3802 193.265 21.2252C193.66 22.0558 194.081 22.7738 194.505 23.1978C195.361 24.0534 196.521 24.2647 197.509 24.2432C198.311 24.2258 199.053 24.055 199.544 23.8959L201.739 26.0916L202.08 26.4326L202.421 26.0916L205.315 23.1978L205.656 22.8568L205.315 22.5157L203.074 20.2744C203.151 19.7159 203.238 18.9327 203.164 18.1108C203.077 17.1596 202.77 16.1118 201.939 15.2813C201.501 14.8436 200.786 14.4827 199.979 14.1703C199.155 13.8518 198.171 13.5601 197.14 13.2873C196.211 13.0414 195.234 12.808 194.291 12.5829L193.979 12.5082C192.937 12.2592 191.953 12.0204 191.12 11.7826ZM193.011 17.9967C192.511 16.5518 192.071 15.0145 191.77 13.7107L196.434 18.3746C196.344 18.5635 196.293 18.7751 196.293 18.9984C196.293 19.7975 196.941 20.4453 197.74 20.4453C198.539 20.4453 199.187 19.7975 199.187 18.9984C199.187 18.1993 198.539 17.5516 197.74 17.5516C197.516 17.5516 197.305 17.6022 197.116 17.6926L192.588 13.1641C192.967 13.2577 193.358 13.3517 193.754 13.4464L194.066 13.5209L194.066 13.5209C195.011 13.7465 195.976 13.9771 196.893 14.2197C197.912 14.4895 198.857 14.7705 199.631 15.0699C200.421 15.3755 200.971 15.6777 201.257 15.9634C201.874 16.5799 202.129 17.3808 202.203 18.1981C202.278 19.0193 202.166 19.8115 202.085 20.3771L202.051 20.6158L202.222 20.7863L204.292 22.8568L202.08 25.0685L200.01 22.998L199.785 22.7732L199.49 22.8913C199.132 23.0345 198.345 23.2603 197.488 23.2789C196.627 23.2976 195.778 23.107 195.187 22.5157C194.888 22.2163 194.525 21.6281 194.136 20.8109C193.754 20.0081 193.369 19.031 193.011 17.9967Z" fill="#E5E5E5"/>
<rect x="177.484" width="46.3001" height="38.5834" fill="#2C2C2C"/>
<path d="M214.017 21.1673L217.018 18.3263L216.268 17.7913L214.017 19.6668L211.767 17.7913L211.016 18.3263L214.017 21.1673Z" fill="#E5E5E5"/>
<path fill-rule="evenodd" clip-rule="evenodd" d="M191.12 11.7826L190.393 11.575L190.511 12.3216C190.758 13.885 191.37 16.2045 192.099 18.3122C192.465 19.3677 192.863 20.3802 193.265 21.2252C193.66 22.0558 194.081 22.7738 194.505 23.1978C195.361 24.0534 196.521 24.2647 197.509 24.2432C198.311 24.2258 199.053 24.055 199.544 23.8959L201.739 26.0916L202.08 26.4326L202.421 26.0916L205.315 23.1978L205.656 22.8568L205.315 22.5157L203.074 20.2744C203.151 19.7159 203.238 18.9327 203.164 18.1108C203.077 17.1596 202.77 16.1118 201.939 15.2813C201.501 14.8436 200.786 14.4827 199.979 14.1703C199.155 13.8518 198.171 13.5601 197.14 13.2873C196.211 13.0414 195.234 12.808 194.291 12.5829L193.979 12.5082C192.937 12.2592 191.953 12.0204 191.12 11.7826ZM193.011 17.9967C192.511 16.5518 192.071 15.0145 191.77 13.7107L196.434 18.3746C196.344 18.5635 196.293 18.7751 196.293 18.9984C196.293 19.7975 196.941 20.4453 197.74 20.4453C198.539 20.4453 199.187 19.7975 199.187 18.9984C199.187 18.1993 198.539 17.5516 197.74 17.5516C197.516 17.5516 197.305 17.6022 197.116 17.6926L192.588 13.1641C192.967 13.2577 193.358 13.3517 193.754 13.4464L194.066 13.5209L194.066 13.5209C195.011 13.7465 195.976 13.9771 196.893 14.2197C197.912 14.4895 198.857 14.7705 199.631 15.0699C200.421 15.3755 200.971 15.6777 201.257 15.9634C201.874 16.5799 202.129 17.3808 202.203 18.1981C202.278 19.0193 202.166 19.8115 202.085 20.3771L202.051 20.6158L202.222 20.7863L204.292 22.8568L202.08 25.0685L200.01 22.998L199.785 22.7732L199.49 22.8913C199.132 23.0345 198.345 23.2603 197.488 23.2789C196.627 23.2976 195.778 23.107 195.187 22.5157C194.888 22.2163 194.525 21.6281 194.136 20.8109C193.754 20.0081 193.369 19.031 193.011 17.9967Z" fill="#E5E5E5"/>
<rect x="131.183" width="46.3001" height="38.5834" fill="#469FF4"/>
<path d="M167.717 21.1673L170.718 18.3263L169.968 17.7913L167.717 19.6668L165.467 17.7913L164.716 18.3263L167.717 21.1673Z" fill="white"/>
<rect x="144.205" y="12.0572" width="14.4688" height="14.4688" stroke="white" stroke-width="0.964585"/>
<rect x="131.183" width="46.3001" height="38.5834" fill="black"/>
<path d="M167.717 21.1673L170.718 18.3263L169.968 17.7913L167.717 19.6668L165.467 17.7913L164.716 18.3263L167.717 21.1673Z" fill="white"/>
<rect x="144.205" y="12.0572" width="14.4688" height="14.4688" stroke="#E5E5E5" stroke-width="0.964585"/>
<rect x="131.183" width="46.3001" height="38.5834" fill="#2C2C2C"/>
<path d="M167.717 21.1673L170.718 18.3263L169.968 17.7913L167.717 19.6668L165.467 17.7913L164.716 18.3263L167.717 21.1673Z" fill="white"/>
<rect x="144.205" y="12.0572" width="14.4688" height="14.4688" stroke="#E5E5E5" stroke-width="0.964585"/>
<rect x="84.8834" width="46.3001" height="38.5834" fill="#469FF4"/>
<path d="M121.417 21.1673L124.418 18.3263L123.668 17.7913L121.417 19.6668L119.166 17.7913L118.416 18.3263L121.417 21.1673Z" fill="white"/>
<line x1="101.764" y1="11.575" x2="101.764" y2="27.0083" stroke="white" stroke-width="0.964585"/>
<line x1="110.445" y1="11.575" x2="110.445" y2="27.0083" stroke="white" stroke-width="0.964585"/>
<line x1="113.821" y1="14.951" x2="98.3877" y2="14.951" stroke="white" stroke-width="0.964585"/>
<line x1="113.821" y1="23.6324" x2="98.3877" y2="23.6324" stroke="white" stroke-width="0.964585"/>
<rect x="84.8834" width="46.3001" height="38.5834" fill="black"/>
<path d="M121.417 21.1673L124.418 18.3263L123.668 17.7913L121.417 19.6668L119.166 17.7913L118.416 18.3263L121.417 21.1673Z" fill="#E5E5E5"/>
<line x1="101.764" y1="11.575" x2="101.764" y2="27.0083" stroke="#E5E5E5" stroke-width="0.964585"/>
<line x1="110.445" y1="11.575" x2="110.445" y2="27.0083" stroke="#E5E5E5" stroke-width="0.964585"/>
<line x1="113.821" y1="14.951" x2="98.3877" y2="14.951" stroke="#E5E5E5" stroke-width="0.964585"/>
<line x1="113.821" y1="23.6324" x2="98.3877" y2="23.6324" stroke="#E5E5E5" stroke-width="0.964585"/>
<rect x="84.8834" width="46.3001" height="38.5834" fill="#2C2C2C"/>
<path d="M121.417 21.1673L124.418 18.3263L123.668 17.7913L121.417 19.6668L119.166 17.7913L118.416 18.3263L121.417 21.1673Z" fill="#E5E5E5"/>
<line x1="101.764" y1="11.575" x2="101.764" y2="27.0083" stroke="#E5E5E5" stroke-width="0.964585"/>
<line x1="110.445" y1="11.575" x2="110.445" y2="27.0083" stroke="#E5E5E5" stroke-width="0.964585"/>
<line x1="113.821" y1="14.951" x2="98.3877" y2="14.951" stroke="#E5E5E5" stroke-width="0.964585"/>
<line x1="113.821" y1="23.6324" x2="98.3877" y2="23.6324" stroke="#E5E5E5" stroke-width="0.964585"/>
<rect x="38.5834" width="46.3001" height="38.5834" fill="#469FF4"/>
<path d="M75.117 21.1673L78.1179 18.3263L77.3677 17.7913L75.117 19.6668L72.8663 17.7913L72.1161 18.3263L75.117 21.1673Z" fill="white"/>
<path d="M55.0228 25.1413L52.7683 12.9394L63.2372 19.6005L58.3819 20.9958C58.2842 21.0239 58.1979 21.0821 58.1352 21.1622L55.0228 25.1413Z" stroke="white" stroke-width="0.964585" stroke-linecap="round" stroke-linejoin="round"/>
<rect width="38.5834" height="38.5834" fill="#469FF4"/>
<line x1="12.5396" y1="13.9865" x2="26.0437" y2="13.9865" stroke="white" stroke-width="0.964585"/>
<line x1="12.5396" y1="18.8095" x2="26.0437" y2="18.8095" stroke="white" stroke-width="0.964585"/>
<line x1="12.5396" y1="23.6322" x2="26.0437" y2="23.6322" stroke="white" stroke-width="0.964585"/>
<rect width="38.5834" height="38.5834" fill="black"/>
<line x1="12.5396" y1="13.9865" x2="26.0437" y2="13.9865" stroke="#E5E5E5" stroke-width="0.964585"/>
<line x1="12.5396" y1="18.8095" x2="26.0437" y2="18.8095" stroke="#E5E5E5" stroke-width="0.964585"/>
<line x1="12.5396" y1="23.6322" x2="26.0437" y2="23.6322" stroke="#E5E5E5" stroke-width="0.964585"/>
<rect width="38.5834" height="38.5834" fill="#2C2C2C"/>
<line x1="12.5396" y1="13.9865" x2="26.0437" y2="13.9865" stroke="#E5E5E5" stroke-width="0.964585"/>
<line x1="12.5396" y1="18.8095" x2="26.0437" y2="18.8095" stroke="#E5E5E5" stroke-width="0.964585"/>
<line x1="12.5396" y1="23.6322" x2="26.0437" y2="23.6322" stroke="#E5E5E5" stroke-width="0.964585"/>
<path d="M1260.04 24.2423V18.6046C1260.04 16.3617 1260.93 14.2108 1262.51 12.6248C1264.1 11.0389 1266.25 10.1479 1268.49 10.1479C1270.74 10.1479 1272.89 11.0389 1274.47 12.6248C1276.06 14.2108 1276.95 16.3617 1276.95 18.6046V24.2423M1276.95 25.182C1276.95 25.6804 1276.75 26.1584 1276.4 26.5108C1276.05 26.8632 1275.57 27.0612 1275.07 27.0612H1274.13C1273.63 27.0612 1273.16 26.8632 1272.8 26.5108C1272.45 26.1584 1272.25 25.6804 1272.25 25.182V22.3631C1272.25 21.8647 1272.45 21.3867 1272.8 21.0343C1273.16 20.6818 1273.63 20.4838 1274.13 20.4838H1276.95V25.182ZM1260.04 25.182C1260.04 25.6804 1260.24 26.1584 1260.59 26.5108C1260.94 26.8632 1261.42 27.0612 1261.92 27.0612H1262.86C1263.36 27.0612 1263.83 26.8632 1264.19 26.5108C1264.54 26.1584 1264.74 25.6804 1264.74 25.182V22.3631C1264.74 21.8647 1264.54 21.3867 1264.19 21.0343C1263.83 20.6818 1263.36 20.4838 1262.86 20.4838H1260.04V25.182Z" stroke="white" stroke-width="1.19802" stroke-linecap="round" stroke-linejoin="round"/>
</svg>
