<svg width="128" height="128" viewBox="0 0 128 128" fill="none" xmlns="http://www.w3.org/2000/svg">
<g clip-path="url(#clip0)">
<path d="M0 6C0 2.68629 2.68629 0 6 0L122 0C125.314 0 128 2.68629 128 6V122C128 125.314 125.314 128 122 128H6C2.68629 128 0 125.314 0 122L0 6Z" fill="#F0F0F0"/>
<path d="M44.8212 18.8304C45.3542 18.2988 46.0762 18.0002 46.8289 18H82.1711C82.9238 18.0002 83.6458 18.2988 84.1787 18.8304L109.17 43.8212C109.701 44.3542 110 45.0762 110 45.8289V81.1711C110 81.9238 109.701 82.6458 109.17 83.1787L84.1787 108.17C83.6458 108.701 82.9238 109 82.1711 109H46.8289C46.0762 109 45.3542 108.701 44.8212 108.17L19.8304 83.1787C19.2988 82.6458 19.0002 81.9238 19 81.1711V45.8289C19.0002 45.0762 19.2988 44.3542 19.8304 43.8212L44.8212 18.8304ZM48.0063 23.6875L24.6875 47.0063V79.9937L48.0063 103.312H80.9937L104.312 79.9937V47.0063L80.9937 23.6875H48.0063Z" fill="#7B61FF"/>
<path d="M48.8883 50.9079C48.8805 51.0915 48.9103 51.2749 48.976 51.4466C49.0417 51.6183 49.1418 51.7747 49.2702 51.9063C49.3986 52.0379 49.5525 52.1418 49.7226 52.2117C49.8926 52.2816 50.0751 52.316 50.2589 52.3127H54.9511C55.736 52.3127 56.3616 51.67 56.464 50.8908C56.9759 47.1598 59.5353 44.4412 64.0966 44.4412C67.9983 44.4412 71.57 46.392 71.57 51.0842C71.57 54.6958 69.4429 56.3565 66.0816 58.8818C62.2539 61.6629 59.2225 64.9105 59.4386 70.1828L59.4556 71.417C59.4616 71.7902 59.614 72.146 59.8801 72.4077C60.1461 72.6695 60.5043 72.8162 60.8775 72.8161H65.4901C65.8672 72.8161 66.2288 72.6663 66.4955 72.3997C66.7621 72.133 66.9119 71.7714 66.9119 71.3942V70.7971C66.9119 66.7134 68.4646 65.5248 72.6563 62.3454C76.12 59.7121 79.7316 56.7888 79.7316 50.6519C79.7316 42.0581 72.4743 37.9062 64.5289 37.9062C57.3228 37.9062 49.4286 41.2619 48.8883 50.9079ZM57.7437 83.6849C57.7437 86.7164 60.1609 88.9573 63.4881 88.9573C66.9518 88.9573 69.3348 86.7164 69.3348 83.6849C69.3348 80.5454 66.9461 78.3387 63.4824 78.3387C60.1609 78.3387 57.7437 80.5454 57.7437 83.6849Z" fill="#7B61FF"/>
</g>
<defs>
<clipPath id="clip0">
<path d="M0 6C0 2.68629 2.68629 0 6 0L122 0C125.314 0 128 2.68629 128 6V122C128 125.314 125.314 128 122 128H6C2.68629 128 0 125.314 0 122L0 6Z" fill="white"/>
</clipPath>
</defs>
</svg>
